<svg width="16" height="16" viewBox="0 0 16 16" fill="none" xmlns="http://www.w3.org/2000/svg">
<path d="M8.005 3.5C7.11498 3.5 6.24496 3.76392 5.50493 4.25839C4.76491 4.75285 4.18814 5.45566 3.84754 6.27792C3.50695 7.10019 3.41783 8.00499 3.59147 8.87791C3.7651 9.75082 4.19368 10.5526 4.82302 11.182C5.45236 11.8113 6.25418 12.2399 7.12709 12.4135C8.00001 12.5872 8.90481 12.4981 9.72708 12.1575C10.5493 11.8169 11.2521 11.2401 11.7466 10.5001C12.2411 9.76004 12.505 8.89002 12.505 8C12.505 6.80653 12.0309 5.66193 11.187 4.81802C10.3431 3.97411 9.19847 3.5 8.005 3.5Z" fill="black"/>
<path d="M8.009 2.503C7.87634 2.503 7.74912 2.45032 7.65532 2.35655C7.56151 2.26278 7.50882 2.13561 7.50882 2.003V0.502998C7.50882 0.37039 7.56151 0.243213 7.65532 0.149445C7.74912 0.0556768 7.87634 0.00299835 8.009 0.00299835C8.14166 0.00299835 8.26888 0.0556768 8.36269 0.149445C8.45649 0.243213 8.50919 0.37039 8.50919 0.502998V2.003C8.50919 2.13561 8.45649 2.26278 8.36269 2.35655C8.26888 2.45032 8.14166 2.503 8.009 2.503ZM3.76641 4.255C3.70076 4.25496 3.63577 4.24196 3.57517 4.21673C3.51457 4.1915 3.45955 4.15455 3.41328 4.108L2.35088 3.048C2.25977 2.9537 2.20935 2.8274 2.21049 2.6963C2.21163 2.5652 2.26423 2.43979 2.35697 2.34709C2.44971 2.25438 2.57517 2.2018 2.70631 2.20066C2.83746 2.19952 2.96381 2.24992 3.05815 2.341L4.12154 3.4C4.19168 3.46993 4.23946 3.5591 4.25883 3.65621C4.27821 3.75332 4.2683 3.85399 4.23037 3.94546C4.19244 4.03693 4.12819 4.11509 4.04577 4.17002C3.96335 4.22495 3.86647 4.25418 3.76741 4.254L3.76641 4.255ZM2.00375 8.493H0.503188C0.37053 8.493 0.243305 8.44032 0.149502 8.34655C0.0556982 8.25278 0.003 8.12561 0.003 7.993C0.003 7.86039 0.0556982 7.73321 0.149502 7.63945C0.243305 7.54568 0.37053 7.493 0.503188 7.493H2.00375C2.13641 7.493 2.26363 7.54568 2.35744 7.63945C2.45124 7.73321 2.50394 7.86039 2.50394 7.993C2.50394 8.12561 2.45124 8.25278 2.35744 8.34655C2.26363 8.44032 2.13641 8.493 2.00375 8.493ZM2.69501 13.796C2.59595 13.7962 2.49907 13.7669 2.41665 13.712C2.33423 13.6571 2.26998 13.5789 2.23205 13.4875C2.19412 13.396 2.18421 13.2953 2.20359 13.1982C2.22296 13.1011 2.27074 13.0119 2.34088 12.942L3.40327 11.882C3.49761 11.7909 3.62396 11.7405 3.75511 11.7417C3.88626 11.7428 4.01171 11.7954 4.10445 11.8881C4.19719 11.9808 4.24979 12.1062 4.25093 12.2373C4.25207 12.3684 4.20165 12.4947 4.11054 12.589L3.04814 13.649C3.00187 13.6955 2.94686 13.7325 2.88625 13.7577C2.82565 13.783 2.76066 13.796 2.69501 13.796ZM7.996 15.997C7.86334 15.997 7.73612 15.9443 7.64231 15.8506C7.54851 15.7568 7.49581 15.6296 7.49581 15.497V13.997C7.49581 13.8644 7.54851 13.7372 7.64231 13.6434C7.73612 13.5497 7.86334 13.497 7.996 13.497C8.12866 13.497 8.25588 13.5497 8.34968 13.6434C8.44349 13.7372 8.49619 13.8644 8.49619 13.997V15.497C8.49619 15.6296 8.44349 15.7568 8.34968 15.8506C8.25588 15.9443 8.12866 15.997 7.996 15.997ZM13.3 13.806C13.2343 13.806 13.1693 13.793 13.1087 13.7677C13.0481 13.7425 12.9931 13.7056 12.9469 13.659L11.8865 12.599C11.8368 12.5534 11.7969 12.4982 11.7691 12.4368C11.7414 12.3754 11.7263 12.309 11.7249 12.2416C11.7234 12.1742 11.7356 12.1072 11.7607 12.0446C11.7858 11.9821 11.8233 11.9253 11.871 11.8776C11.9186 11.8299 11.9754 11.7923 12.038 11.7671C12.1005 11.7419 12.1675 11.7296 12.2349 11.731C12.3024 11.7323 12.3688 11.7473 12.4303 11.7749C12.4918 11.8026 12.547 11.8424 12.5927 11.892L13.6531 12.952C13.7232 13.0219 13.771 13.1109 13.7904 13.208C13.8098 13.305 13.7999 13.4056 13.7621 13.497C13.7243 13.5884 13.6602 13.6666 13.578 13.7216C13.4957 13.7766 13.399 13.806 13.3 13.806ZM15.5028 8.507H14.0022C13.8696 8.507 13.7424 8.45432 13.6486 8.36055C13.5548 8.26678 13.5021 8.13961 13.5021 8.007C13.5021 7.87439 13.5548 7.74721 13.6486 7.65345C13.7424 7.55968 13.8696 7.507 14.0022 7.507H15.5028C15.6355 7.507 15.7627 7.55968 15.8565 7.65345C15.9503 7.74721 16.003 7.87439 16.003 8.007C16.003 8.13961 15.9503 8.26678 15.8565 8.36055C15.7627 8.45432 15.6355 8.507 15.5028 8.507ZM12.2496 4.265C12.1505 4.26518 12.0537 4.23595 11.9712 4.18102C11.8888 4.12609 11.8246 4.04794 11.7866 3.95646C11.7487 3.86499 11.7388 3.76432 11.7582 3.66721C11.7775 3.5701 11.8253 3.48093 11.8955 3.411L12.9559 2.351C13.0023 2.30451 13.0574 2.26762 13.1181 2.24244C13.1788 2.21725 13.2439 2.20427 13.3096 2.20422C13.3754 2.20417 13.4404 2.21707 13.5012 2.24217C13.5619 2.26726 13.6171 2.30408 13.6636 2.3505C13.7101 2.39692 13.747 2.45204 13.7722 2.51272C13.7974 2.5734 13.8104 2.63845 13.8105 2.70414C13.8105 2.76984 13.7976 2.83491 13.7725 2.89562C13.7474 2.95633 13.7106 3.01151 13.6641 3.058L12.6037 4.118C12.5573 4.16467 12.5022 4.20169 12.4414 4.22692C12.3806 4.25215 12.3154 4.26509 12.2496 4.265Z" fill="black"/>
</svg>
