<svg width="16" height="16" viewBox="0 0 16 16" fill="none" xmlns="http://www.w3.org/2000/svg">
<path d="M7.65531 2.35743C7.74912 2.45124 7.87634 2.50394 8.009 2.50394C8.14166 2.50394 8.26888 2.45124 8.36269 2.35743C8.45649 2.26363 8.50919 2.13641 8.50919 2.00375V0.503186C8.50919 0.370528 8.45649 0.243303 8.36269 0.1495C8.26888 0.0556965 8.14166 0.00299835 8.009 0.00299835C7.87634 0.00299835 7.74912 0.0556965 7.65531 0.1495C7.56151 0.243303 7.50881 0.370528 7.50881 0.503186V2.00375C7.50881 2.13641 7.56151 2.26363 7.65531 2.35743Z" fill="black"/>
<path d="M3.57517 4.21831C3.63577 4.24355 3.70076 4.25656 3.76641 4.25659L3.76741 4.25559C3.86647 4.25577 3.96335 4.22653 4.04577 4.17158C4.12819 4.11663 4.19244 4.03845 4.23037 3.94694C4.2683 3.85543 4.27821 3.75472 4.25883 3.65758C4.23946 3.56043 4.19168 3.47123 4.12154 3.40127L3.05814 2.34188C2.96381 2.25076 2.83746 2.20035 2.70631 2.20149C2.57516 2.20263 2.44971 2.25523 2.35697 2.34797C2.26423 2.44071 2.21163 2.56616 2.21049 2.69731C2.20935 2.82846 2.25977 2.9548 2.35088 3.04914L3.41328 4.10954C3.45955 4.15611 3.51456 4.19307 3.57517 4.21831Z" fill="black"/>
<path d="M0.503186 8.49618H2.00375C2.13641 8.49618 2.26363 8.44349 2.35743 8.34968C2.45124 8.25588 2.50394 8.12865 2.50394 7.996C2.50394 7.86334 2.45124 7.73611 2.35743 7.64231C2.26363 7.54851 2.13641 7.49581 2.00375 7.49581H0.503186C0.370528 7.49581 0.243303 7.54851 0.1495 7.64231C0.0556965 7.73611 0.00299835 7.86334 0.00299835 7.996C0.00299835 8.12865 0.0556965 8.25588 0.1495 8.34968C0.243303 8.44349 0.370528 8.49618 0.503186 8.49618Z" fill="black"/>
<path d="M2.41665 13.7172C2.49907 13.7721 2.59595 13.8013 2.69501 13.8012C2.76066 13.8011 2.82565 13.7881 2.88625 13.7629C2.94685 13.7377 3.00187 13.7007 3.04814 13.6541L4.11054 12.5937C4.20165 12.4994 4.25207 12.373 4.25093 12.2419C4.24979 12.1107 4.19718 11.9853 4.10445 11.8925C4.01171 11.7998 3.88625 11.7472 3.75511 11.7461C3.62396 11.7449 3.49761 11.7953 3.40327 11.8865L2.34087 12.9469C2.27074 13.0168 2.22296 13.106 2.20359 13.2032C2.18421 13.3003 2.19412 13.401 2.23205 13.4925C2.26998 13.584 2.33423 13.6622 2.41665 13.7172Z" fill="black"/>
<path d="M7.64231 15.8565C7.73611 15.9503 7.86334 16.003 7.996 16.003C8.12865 16.003 8.25588 15.9503 8.34968 15.8565C8.44349 15.7627 8.49618 15.6355 8.49618 15.5028V14.0022C8.49618 13.8696 8.44349 13.7424 8.34968 13.6486C8.25588 13.5548 8.12865 13.5021 7.996 13.5021C7.86334 13.5021 7.73611 13.5548 7.64231 13.6486C7.54851 13.7424 7.49581 13.8696 7.49581 14.0022V15.5028C7.49581 15.6355 7.54851 15.7627 7.64231 15.8565Z" fill="black"/>
<path d="M13.1087 13.7729C13.1693 13.7981 13.2343 13.8111 13.3 13.8112C13.399 13.8112 13.4957 13.7818 13.578 13.7267C13.6602 13.6717 13.7243 13.5935 13.7621 13.5021C13.7999 13.4106 13.8098 13.31 13.7904 13.2129C13.771 13.1159 13.7232 13.0268 13.6531 12.9569L12.5927 11.8965C12.547 11.8469 12.4918 11.807 12.4303 11.7794C12.3688 11.7517 12.3024 11.7367 12.2349 11.7354C12.1675 11.734 12.1005 11.7463 12.038 11.7715C11.9754 11.7967 11.9186 11.8343 11.871 11.882C11.8233 11.9297 11.7858 11.9866 11.7607 12.0492C11.7356 12.1117 11.7234 12.1788 11.7249 12.2462C11.7263 12.3136 11.7414 12.38 11.7691 12.4415C11.7969 12.5029 11.8368 12.5581 11.8865 12.6037L12.9469 13.6641C12.9931 13.7107 13.0481 13.7477 13.1087 13.7729Z" fill="black"/>
<path d="M14.0022 8.51019H15.5028C15.6355 8.51019 15.7627 8.45749 15.8565 8.36369C15.9503 8.26988 16.003 8.14266 16.003 8.01C16.003 7.87734 15.9503 7.75012 15.8565 7.65632C15.7627 7.56251 15.6355 7.50981 15.5028 7.50981H14.0022C13.8696 7.50981 13.7424 7.56251 13.6486 7.65632C13.5548 7.75012 13.5021 7.87734 13.5021 8.01C13.5021 8.14266 13.5548 8.26988 13.6486 8.36369C13.7424 8.45749 13.8696 8.51019 14.0022 8.51019Z" fill="black"/>
<path d="M11.9712 4.18259C12.0537 4.23754 12.1505 4.26677 12.2496 4.2666C12.3154 4.26669 12.3806 4.25375 12.4414 4.22851C12.5022 4.20327 12.5573 4.16623 12.6037 4.11954L13.6641 3.05914C13.7106 3.01264 13.7474 2.95744 13.7725 2.89671C13.7976 2.83597 13.8105 2.77088 13.8105 2.70516C13.8104 2.63944 13.7974 2.57437 13.7722 2.51367C13.747 2.45296 13.7101 2.39782 13.6636 2.35138C13.6171 2.30494 13.5619 2.26811 13.5012 2.24301C13.4404 2.2179 13.3754 2.205 13.3096 2.20505C13.2439 2.20509 13.1788 2.21808 13.1181 2.24328C13.0574 2.26847 13.0023 2.30537 12.9559 2.35188L11.8955 3.41228C11.8253 3.48223 11.7775 3.57144 11.7582 3.66858C11.7388 3.76573 11.7487 3.86644 11.7866 3.95794C11.8246 4.04945 11.8888 4.12764 11.9712 4.18259Z" fill="black"/>
<path d="M5.50493 4.25839C6.24495 3.76392 7.11498 3.5 8.005 3.5C9.19847 3.5 10.3431 3.97411 11.187 4.81802C12.0309 5.66193 12.505 6.80653 12.505 8C12.505 8.89002 12.2411 9.76005 11.7466 10.5001C11.2521 11.2401 10.5493 11.8169 9.72708 12.1575C8.90481 12.4981 8.00001 12.5872 7.12709 12.4135C6.25418 12.2399 5.45235 11.8113 4.82302 11.182C4.19368 10.5526 3.7651 9.75082 3.59147 8.87791C3.41783 8.00499 3.50695 7.10019 3.84754 6.27792C4.18814 5.45566 4.76491 4.75285 5.50493 4.25839ZM9.9495 5.08986C9.37392 4.70527 8.69723 4.5 8.005 4.5C7.07707 4.50106 6.18744 4.87015 5.53129 5.5263C4.87515 6.18244 4.50606 7.07207 4.505 8C4.505 8.69223 4.71027 9.36892 5.09486 9.9445C5.47944 10.5201 6.02607 10.9687 6.66561 11.2336C7.30515 11.4985 8.00888 11.5678 8.68781 11.4327C9.36675 11.2977 9.99039 10.9644 10.4799 10.4749C10.9694 9.98539 11.3027 9.36175 11.4377 8.68282C11.5728 8.00388 11.5035 7.30015 11.2386 6.66061C10.9737 6.02107 10.5251 5.47444 9.9495 5.08986Z" fill="black"/>
</svg>
