<svg width="16" height="16" viewBox="0 0 16 16" fill="none" xmlns="http://www.w3.org/2000/svg">
<path d="M4.745 1.777C4.77046 1.89148 4.83415 1.99387 4.92558 2.0673C5.01701 2.14074 5.13073 2.18084 5.248 2.181C5.28565 2.18095 5.32319 2.17693 5.36 2.169C5.49357 2.13913 5.60985 2.0575 5.68333 1.94203C5.75682 1.82656 5.78151 1.68665 5.752 1.553L5.496 0.403001C5.46066 0.275548 5.37773 0.166533 5.26433 0.0984638C5.15092 0.0303947 5.01572 0.00846964 4.88662 0.0372156C4.75752 0.0659615 4.64438 0.143183 4.57058 0.252937C4.49677 0.36269 4.46793 0.496594 4.49 0.627001L4.745 1.777ZM1.023 3.535L2.017 4.168C2.13225 4.23605 2.26944 4.25665 2.3996 4.22546C2.52975 4.19427 2.6427 4.11372 2.71459 4.00082C2.78648 3.88793 2.81169 3.75151 2.7849 3.62038C2.75811 3.48925 2.68141 3.37365 2.571 3.298L1.577 2.665C1.46175 2.59695 1.32456 2.57635 1.19441 2.60754C1.06425 2.63874 0.951303 2.71928 0.879413 2.83218C0.807522 2.94507 0.782312 3.08149 0.809103 3.21262C0.835894 3.34376 0.91259 3.45935 1.023 3.535ZM0.628001 8.043L1.778 7.787C1.84419 7.77236 1.90684 7.74482 1.96239 7.70597C2.01793 7.66711 2.06528 7.61769 2.10173 7.56054C2.13817 7.50339 2.163 7.43961 2.17481 7.37286C2.18661 7.30611 2.18514 7.23769 2.1705 7.1715C2.15586 7.10531 2.12832 7.04266 2.08947 6.98712C2.05061 6.93157 2.00119 6.88422 1.94404 6.84778C1.88689 6.81133 1.82311 6.7865 1.75636 6.7747C1.68961 6.7629 1.62119 6.76436 1.555 6.779L0.405001 7.035C0.280711 7.06228 0.170885 7.13453 0.0966224 7.23786C0.0223595 7.34119 -0.0111029 7.46832 0.00266351 7.59482C0.0164299 7.72133 0.0764543 7.83828 0.171205 7.92322C0.265957 8.00816 0.388752 8.05509 0.516001 8.055C0.553653 8.05495 0.591194 8.05093 0.628001 8.043ZM10.866 5.763C10.9037 5.76295 10.9412 5.75893 10.978 5.751L12.128 5.495C12.1942 5.48029 12.2568 5.45269 12.3123 5.41378C12.3679 5.37486 12.4152 5.32539 12.4516 5.26819C12.488 5.21099 12.5128 5.14718 12.5245 5.0804C12.5362 5.01362 12.5347 4.94519 12.52 4.879C12.5053 4.81281 12.4777 4.75017 12.4388 4.69465C12.3999 4.63913 12.3504 4.59182 12.2932 4.55542C12.236 4.51902 12.1722 4.49424 12.1054 4.4825C12.0386 4.47077 11.9702 4.47229 11.904 4.487L10.754 4.743C10.6296 4.7703 10.5197 4.84263 10.4455 4.94606C10.3712 5.0495 10.3378 5.17675 10.3517 5.30332C10.3656 5.4299 10.4258 5.54687 10.5208 5.63172C10.6157 5.71658 10.7387 5.76334 10.866 5.763ZM8.522 2.728C8.63739 2.80139 8.77719 2.82597 8.9107 2.79634C9.0442 2.76672 9.16048 2.68531 9.234 2.57L9.867 1.576C9.93505 1.46075 9.95565 1.32356 9.92446 1.1934C9.89327 1.06325 9.81272 0.950303 9.69982 0.878412C9.58693 0.806522 9.45051 0.781311 9.31938 0.808102C9.18825 0.834893 9.07265 0.911589 8.997 1.022L8.364 2.016C8.29061 2.13139 8.26603 2.27119 8.29566 2.4047C8.32528 2.5382 8.40669 2.65448 8.522 2.728ZM2.819 7.032C2.89018 7.33542 3.00149 7.628 3.15 7.902C3.47743 7.79125 3.78425 7.62702 4.058 7.416C3.95401 7.22454 3.87599 7.02007 3.826 6.808C3.68178 6.15982 3.80092 5.48089 4.15723 4.92054C4.51354 4.36019 5.07784 3.96432 5.726 3.82C6.04698 3.74804 6.379 3.74013 6.70305 3.79673C7.02709 3.85333 7.33677 3.97332 7.61435 4.14983C7.89193 4.32634 8.13195 4.55589 8.32065 4.82533C8.50935 5.09477 8.64302 5.3988 8.714 5.72L8.718 5.758C9.08019 5.80527 9.43666 5.88903 9.782 6.008C9.77425 5.83607 9.75386 5.66494 9.721 5.496C9.51731 4.58074 8.95838 3.78388 8.16717 3.28072C7.37595 2.77756 6.41726 2.60931 5.502 2.813C4.58674 3.01669 3.78988 3.57562 3.28672 4.36683C2.78356 5.15805 2.61531 6.11674 2.819 7.032Z" fill="black"/>
<path d="M11.9944 14.3957C11.1346 15.3767 9.84622 16 8.40623 16C6.99447 16 5.72847 15.4009 4.8691 14.453C4.54288 14.58 4.1862 14.65 3.8125 14.65C2.2592 14.65 1 13.4412 1 11.95C1 10.4588 2.2592 9.25 3.8125 9.25C3.9857 9.25 4.15524 9.26503 4.31978 9.2938C5.12358 7.92463 6.65243 7 8.40623 7C10.1747 7 11.7144 7.94015 12.5127 9.32822C12.7289 9.27711 12.9549 9.25 13.1875 9.25C14.7408 9.25 16 10.4588 16 11.95C16 13.4412 14.7408 14.65 13.1875 14.65C12.761 14.65 12.3566 14.5588 11.9944 14.3957Z" fill="black"/>
</svg>
