<svg width="16" height="16" viewBox="0 0 16 16" fill="none" xmlns="http://www.w3.org/2000/svg">
<path d="M8.40623 15.9851C9.76855 15.9851 10.9951 15.4272 11.8516 14.5364C11.938 14.4465 12.0742 14.4184 12.1933 14.4616C12.5024 14.5737 12.8375 14.6351 13.1875 14.6351C14.7408 14.6351 16 13.4263 16 11.9351C16 10.444 14.7408 9.23512 13.1875 9.23512C13.0295 9.23512 12.8746 9.24763 12.7238 9.27165C12.5983 9.29164 12.4707 9.23858 12.4042 9.13453C11.5798 7.84514 10.0977 6.98512 8.40623 6.98512C6.72405 6.98512 5.24882 7.83578 4.42185 9.11344C4.35858 9.2112 4.24078 9.26375 4.1216 9.25124C4.02009 9.24059 3.91696 9.23512 3.8125 9.23512C2.2592 9.23512 1 10.444 1 11.9351C1 13.4263 2.2592 14.6351 3.8125 14.6351C4.1154 14.6351 4.40712 14.5892 4.68049 14.5041C4.79476 14.4685 4.92146 14.4971 5.0041 14.5808C5.85835 15.4457 7.06667 15.9851 8.40623 15.9851ZM12.0672 13.3786C11.9059 13.263 11.6569 13.2915 11.5467 13.4533C10.8771 14.4359 9.72066 15.0851 8.40623 15.0851C7.12396 15.0851 5.99201 14.4673 5.31577 13.5248C5.21044 13.378 4.98975 13.3475 4.83414 13.4447C4.54023 13.6284 4.18935 13.7351 3.8125 13.7351C2.77697 13.7351 1.9375 12.9292 1.9375 11.9351C1.9375 10.941 2.77697 10.1351 3.8125 10.1351C4.05316 10.1351 4.28324 10.1787 4.49464 10.258C4.66778 10.3229 4.87784 10.25 4.95016 10.0856C5.51901 8.79256 6.85223 7.88512 8.40623 7.88512C9.98142 7.88512 11.3298 8.81748 11.8851 10.1387C11.9606 10.3182 12.1995 10.3927 12.3815 10.3094C12.6257 10.1977 12.899 10.1351 13.1875 10.1351C14.223 10.1351 15.0625 10.941 15.0625 11.9351C15.0625 12.9292 14.223 13.7351 13.1875 13.7351C12.7675 13.7351 12.3798 13.6026 12.0672 13.3786Z" fill="black"/>
<path d="M4.995 1.76212C5.02046 1.8766 5.08415 1.97899 5.17558 2.05242C5.26701 2.12586 5.38073 2.16596 5.498 2.16612C5.53565 2.16607 5.57319 2.16205 5.61 2.15412C5.74357 2.12425 5.85985 2.04262 5.93333 1.92715C6.00682 1.81167 6.03151 1.67177 6.002 1.53812L5.746 0.388119C5.71066 0.260667 5.62773 0.151652 5.51433 0.0835827C5.40092 0.0155136 5.26572 -0.00641149 5.13662 0.0223344C5.00752 0.0510804 4.89438 0.128302 4.82058 0.238056C4.74677 0.347809 4.71793 0.481713 4.74 0.612119L4.995 1.76212ZM1.273 3.52012L2.267 4.15312C2.38235 4.22515 2.52147 4.24873 2.65411 4.21874C2.78675 4.18875 2.90219 4.1076 2.97533 3.99296C3.04846 3.87831 3.07339 3.73942 3.04467 3.6065C3.01596 3.47358 2.93594 3.35736 2.822 3.28312L1.827 2.65012C1.71175 2.58207 1.57456 2.56147 1.44441 2.59266C1.31425 2.62385 1.2013 2.7044 1.12941 2.8173C1.05752 2.93019 1.03231 3.06661 1.0591 3.19774C1.08589 3.32887 1.16259 3.44447 1.273 3.52012ZM0.878001 8.02812L2.028 7.77212C2.09419 7.75748 2.15684 7.72994 2.21239 7.69109C2.26793 7.65223 2.31528 7.60281 2.35173 7.54566C2.38817 7.4885 2.413 7.42473 2.42481 7.35798C2.43661 7.29123 2.43514 7.22281 2.4205 7.15662C2.40586 7.09043 2.37832 7.02778 2.33947 6.97223C2.30061 6.91669 2.25119 6.86934 2.19404 6.8329C2.13689 6.79645 2.07311 6.77162 2.00636 6.75981C1.93961 6.74801 1.87119 6.74948 1.805 6.76412L0.655001 7.02012C0.530711 7.0474 0.420885 7.11965 0.346622 7.22298C0.27236 7.32631 0.238897 7.45344 0.252664 7.57994C0.26643 7.70645 0.326454 7.8234 0.421206 7.90834C0.515957 7.99328 0.638752 8.04021 0.766001 8.04012C0.803653 8.04007 0.841194 8.03605 0.878001 8.02812ZM11.116 5.74812C11.1537 5.74807 11.1912 5.74405 11.228 5.73612L12.378 5.48012C12.4442 5.46541 12.5068 5.43781 12.5623 5.39889C12.6179 5.35998 12.6652 5.31051 12.7016 5.25331C12.738 5.1961 12.7628 5.13229 12.7745 5.06552C12.7862 4.99874 12.7847 4.93031 12.77 4.86412C12.7553 4.79793 12.7277 4.73529 12.6888 4.67977C12.6499 4.62425 12.6004 4.57694 12.5432 4.54054C12.486 4.50414 12.4222 4.47936 12.3554 4.46762C12.2886 4.45588 12.2202 4.45741 12.154 4.47212L11.004 4.72812C10.8796 4.75542 10.7697 4.82774 10.6955 4.93118C10.6212 5.03462 10.5878 5.16187 10.6017 5.28844C10.6156 5.41502 10.6758 5.53198 10.7708 5.61684C10.8657 5.7017 10.9887 5.74846 11.116 5.74812ZM8.772 2.71312C8.88739 2.78651 9.02719 2.81109 9.1607 2.78146C9.2942 2.75184 9.41048 2.67043 9.484 2.55512L10.117 1.56112C10.185 1.44587 10.2057 1.30868 10.1745 1.17852C10.1433 1.04837 10.0627 0.935421 9.94982 0.863531C9.83693 0.791641 9.70051 0.76643 9.56938 0.793221C9.43825 0.820012 9.32265 0.896708 9.247 1.00712L8.614 2.00112C8.54061 2.11651 8.51603 2.25631 8.54566 2.38982C8.57528 2.52332 8.65669 2.6396 8.772 2.71312ZM3.07 7.01712C3.14086 7.32049 3.25184 7.61307 3.4 7.88712C3.72778 7.77648 4.03495 7.61226 4.309 7.40112C4.20466 7.20971 4.12631 7.00524 4.076 6.79312C3.93178 6.14493 4.05092 5.466 4.40723 4.90566C4.76354 4.34531 5.32784 3.94944 5.976 3.80512C6.29698 3.73316 6.629 3.72525 6.95305 3.78185C7.27709 3.83845 7.58677 3.95844 7.86435 4.13495C8.14193 4.31146 8.38195 4.54101 8.57065 4.81045C8.75935 5.07989 8.89302 5.38392 8.964 5.70512C8.967 5.71812 8.966 5.73112 8.969 5.74312C9.33085 5.79045 9.68699 5.87421 10.032 5.99312C10.0243 5.82119 10.0039 5.65006 9.971 5.48112C9.76731 4.56586 9.20838 3.769 8.41717 3.26584C7.62595 2.76268 6.66726 2.59443 5.752 2.79812C4.83674 3.00181 4.03988 3.56074 3.53672 4.35195C3.03356 5.14317 2.86631 6.10186 3.07 7.01712Z" fill="black"/>
</svg>
