<svg width="16" height="16" viewBox="0 0 16 16" fill="none" xmlns="http://www.w3.org/2000/svg">
<path d="M13.2683 15.1619C13.1889 15.1307 13.0977 15.1463 13.035 15.2043C12.5003 15.6982 11.7854 16 11 16C10.2146 16 9.49973 15.6982 8.96498 15.2043C8.90226 15.1463 8.81112 15.1307 8.73166 15.1619C8.50505 15.2511 8.25824 15.3 8 15.3C6.89543 15.3 6 14.4046 6 13.3C6 12.1954 6.89543 11.3 8 11.3C8.11886 11.3 8.23529 11.3104 8.34845 11.3302C8.43236 11.345 8.51838 11.3116 8.56834 11.2426C9.11338 10.4898 9.9995 10 11 10C12.0005 10 12.8866 10.4898 13.4317 11.2426C13.4816 11.3116 13.5676 11.345 13.6516 11.3302C13.7647 11.3104 13.8811 11.3 14 11.3C15.1046 11.3 16 12.1954 16 13.3C16 14.4046 15.1046 15.3 14 15.3C13.7418 15.3 13.4949 15.2511 13.2683 15.1619ZM11 15.25C11.7522 15.25 12.4182 14.8809 12.8267 14.3139C12.913 14.1942 13.0998 14.1797 13.2146 14.2725C13.4292 14.4461 13.7025 14.55 14 14.55C14.6904 14.55 15.25 13.9904 15.25 13.3C15.25 12.6096 14.6904 12.05 14 12.05C13.792 12.05 13.596 12.1008 13.4234 12.1906C13.2923 12.2589 13.1117 12.2076 13.0507 12.0729C12.6975 11.2928 11.9121 10.75 11 10.75C10.0879 10.75 9.30252 11.2928 8.94927 12.0729C8.8883 12.2076 8.70766 12.2589 8.57656 12.1906C8.40405 12.1008 8.20796 12.05 8 12.05C7.30964 12.05 6.75 12.6096 6.75 13.3C6.75 13.9904 7.30964 14.55 8 14.55C8.29752 14.55 8.57076 14.4461 8.78539 14.2725C8.90017 14.1797 9.08701 14.1942 9.1733 14.3139C9.58183 14.8809 10.2478 15.25 11 15.25Z" fill="black"/>
<path d="M3.4 11.877L3.402 11.875C3.44812 11.8272 3.5033 11.7892 3.5643 11.7629C3.6253 11.7367 3.69091 11.723 3.7573 11.7224C3.82369 11.7218 3.88953 11.7344 3.95098 11.7596C4.01243 11.7847 4.06825 11.8219 4.1152 11.8688C4.16214 11.9157 4.19927 11.9716 4.22441 12.033C4.24955 12.0945 4.2622 12.1603 4.26163 12.2267C4.26105 12.2931 4.24726 12.3587 4.22105 12.4197C4.19485 12.4807 4.15676 12.5359 4.109 12.582L3.044 13.646C2.99788 13.6938 2.9427 13.7318 2.8817 13.7581C2.8207 13.7843 2.75509 13.798 2.6887 13.7986C2.62231 13.7992 2.55647 13.7866 2.49502 13.7614C2.43357 13.7363 2.37775 13.6991 2.3308 13.6522C2.28386 13.6053 2.24673 13.5494 2.22159 13.488C2.19645 13.4265 2.1838 13.3607 2.18437 13.2943C2.18495 13.2279 2.19874 13.1623 2.22495 13.1013C2.25115 13.0403 2.28924 12.9851 2.337 12.939L2.34 12.936H2.341L3.398 11.877H3.4Z" fill="black"/>
<path d="M8.35655 2.35355C8.26278 2.44732 8.13561 2.5 8.003 2.5C7.87039 2.5 7.74321 2.44732 7.64945 2.35355C7.55568 2.25979 7.503 2.13261 7.503 2V0.5C7.503 0.367392 7.55568 0.240215 7.64945 0.146447C7.74321 0.0526784 7.87039 0 8.003 0C8.13561 0 8.26278 0.0526784 8.35655 0.146447C8.45032 0.240215 8.503 0.367392 8.503 0.5V2C8.503 2.13261 8.45032 2.25979 8.35655 2.35355Z" fill="black"/>
<path d="M3.7597 4.24534C3.6286 4.24648 3.5023 4.19608 3.408 4.105L2.347 3.044C2.25605 2.94957 2.20582 2.8232 2.20714 2.69209C2.20846 2.56099 2.26122 2.43566 2.35406 2.34308C2.4469 2.2505 2.57239 2.1981 2.70349 2.19715C2.8346 2.1962 2.96083 2.24678 3.055 2.338L4.115 3.398C4.20608 3.4923 4.25648 3.6186 4.25534 3.7497C4.2542 3.8808 4.20161 4.00621 4.10891 4.09891C4.0162 4.19161 3.8908 4.2442 3.7597 4.24534Z" fill="black"/>
<path d="M2.35355 7.63645C2.44732 7.73021 2.5 7.85739 2.5 7.99C2.5 8.12261 2.44732 8.24979 2.35355 8.34355C2.25979 8.43732 2.13261 8.49 2 8.49H0.5C0.367392 8.49 0.240215 8.43732 0.146447 8.34355C0.0526784 8.24979 0 8.12261 0 7.99C0 7.85739 0.0526784 7.73021 0.146447 7.63645C0.240215 7.54268 0.367392 7.49 0.5 7.49H2C2.13261 7.49 2.25979 7.54268 2.35355 7.63645Z" fill="black"/>
<path d="M13.6394 8.35655C13.5457 8.26278 13.493 8.13561 13.493 8.003C13.493 7.87039 13.5457 7.74321 13.6394 7.64945C13.7332 7.55568 13.8604 7.503 13.993 7.503H15.493C15.6256 7.503 15.7528 7.55568 15.8466 7.64945C15.9403 7.74321 15.993 7.87039 15.993 8.003C15.993 8.13561 15.9403 8.26278 15.8466 8.35655C15.7528 8.45032 15.6256 8.503 15.493 8.503H13.993C13.8604 8.503 13.7332 8.45032 13.6394 8.35655Z" fill="black"/>
<path d="M12.4326 4.22338C12.3718 4.24844 12.3067 4.26123 12.241 4.261C12.1421 4.26098 12.0454 4.23161 11.9631 4.1766C11.8809 4.1216 11.8168 4.04343 11.779 3.952C11.7412 3.86057 11.7314 3.75998 11.7508 3.66296C11.7702 3.56595 11.818 3.47687 11.888 3.407L12.949 2.347C13.044 2.25969 13.1691 2.21248 13.2981 2.21525C13.4271 2.21801 13.55 2.27053 13.6412 2.36183C13.7323 2.45313 13.7847 2.57613 13.7872 2.70513C13.7898 2.83413 13.7424 2.95913 13.655 3.054L12.595 4.115C12.5485 4.16149 12.4934 4.19833 12.4326 4.22338Z" fill="black"/>
<path d="M9.97479 9.16642C9.20868 9.36904 8.52387 9.80337 8.014 10.41V10.411C7.53275 10.4297 7.06358 10.567 6.64819 10.8107C6.2328 11.0544 5.88407 11.397 5.633 11.808C4.96573 11.3951 4.41804 10.8148 4.04428 10.1249C3.67052 9.43489 3.48367 8.65917 3.50229 7.87469C3.52091 7.09021 3.74434 6.32423 4.15041 5.65277C4.55648 4.9813 5.13108 4.42769 5.81719 4.04688C6.50329 3.66607 7.27705 3.47128 8.06168 3.48186C8.84631 3.49244 9.61454 3.70801 10.2901 4.10718C10.9657 4.50635 11.5252 5.07525 11.913 5.75741C12.3008 6.43958 12.5035 7.2113 12.501 7.996C12.495 8.43115 12.4253 8.86308 12.294 9.278C11.5509 9.00276 10.7409 8.96379 9.97479 9.16642Z" fill="black"/>
</svg>
