<svg width="16" height="16" viewBox="0 0 16 16" fill="none" xmlns="http://www.w3.org/2000/svg">
<path d="M13.2683 15.1619C13.1889 15.1307 13.0977 15.1463 13.035 15.2043C12.5003 15.6982 11.7854 16 11 16C10.2146 16 9.49973 15.6982 8.96498 15.2043C8.90226 15.1463 8.81112 15.1307 8.73166 15.1619C8.50505 15.2511 8.25824 15.3 8 15.3C6.89543 15.3 6 14.4046 6 13.3C6 12.1954 6.89543 11.3 8 11.3C8.11886 11.3 8.23529 11.3104 8.34845 11.3302C8.43236 11.345 8.51838 11.3116 8.56834 11.2426C9.11338 10.4898 9.9995 10 11 10C12.0005 10 12.8866 10.4898 13.4317 11.2426C13.4816 11.3116 13.5676 11.345 13.6516 11.3302C13.7647 11.3104 13.8811 11.3 14 11.3C15.1046 11.3 16 12.1954 16 13.3C16 14.4046 15.1046 15.3 14 15.3C13.7418 15.3 13.4949 15.2511 13.2683 15.1619ZM11 15.25C11.7522 15.25 12.4182 14.8809 12.8267 14.3139C12.913 14.1942 13.0998 14.1797 13.2146 14.2725C13.4292 14.4461 13.7025 14.55 14 14.55C14.6904 14.55 15.25 13.9904 15.25 13.3C15.25 12.6096 14.6904 12.05 14 12.05C13.792 12.05 13.596 12.1008 13.4234 12.1906C13.2923 12.2589 13.1117 12.2076 13.0507 12.0729C12.6975 11.2928 11.9121 10.75 11 10.75C10.0879 10.75 9.30252 11.2928 8.94927 12.0729C8.8883 12.2076 8.70766 12.2589 8.57656 12.1906C8.40405 12.1008 8.20796 12.05 8 12.05C7.30964 12.05 6.75 12.6096 6.75 13.3C6.75 13.9904 7.30964 14.55 8 14.55C8.29752 14.55 8.57076 14.4461 8.78539 14.2725C8.90017 14.1797 9.08701 14.1942 9.1733 14.3139C9.58183 14.8809 10.2478 15.25 11 15.25Z" fill="black"/>
<path d="M7.65532 2.35743C7.74913 2.45124 7.87635 2.50394 8.00901 2.50394C8.14167 2.50394 8.26889 2.45124 8.36269 2.35743C8.4565 2.26363 8.5092 2.13641 8.5092 2.00375V0.503186C8.5092 0.370528 8.4565 0.243303 8.36269 0.1495C8.26889 0.0556965 8.14167 0.00299835 8.00901 0.00299835C7.87635 0.00299835 7.74913 0.0556965 7.65532 0.1495C7.56152 0.243303 7.50882 0.370528 7.50882 0.503186V2.00375C7.50882 2.13641 7.56152 2.26363 7.65532 2.35743Z" fill="black"/>
<path d="M3.57517 4.21831C3.63578 4.24355 3.70077 4.25656 3.76642 4.25659L3.76742 4.25559C3.86648 4.25577 3.96336 4.22653 4.04578 4.17158C4.1282 4.11663 4.19244 4.03845 4.23038 3.94694C4.26831 3.85543 4.27821 3.75472 4.25884 3.65758C4.23947 3.56043 4.19168 3.47123 4.12155 3.40127L3.05815 2.34188C2.96381 2.25076 2.83747 2.20035 2.70632 2.20149C2.57517 2.20263 2.44972 2.25523 2.35698 2.34797C2.26424 2.44071 2.21164 2.56616 2.2105 2.69731C2.20936 2.82846 2.25977 2.9548 2.35089 3.04914L3.41328 4.10954C3.45955 4.15611 3.51457 4.19307 3.57517 4.21831Z" fill="black"/>
<path d="M0.503194 8.49618H2.00376C2.13641 8.49618 2.26364 8.44349 2.35744 8.34968C2.45125 8.25588 2.50394 8.12865 2.50394 7.996C2.50394 7.86334 2.45125 7.73611 2.35744 7.64231C2.26364 7.54851 2.13641 7.49581 2.00376 7.49581H0.503194C0.370536 7.49581 0.243311 7.54851 0.149508 7.64231C0.0557042 7.73611 0.00300598 7.86334 0.00300598 7.996C0.00300598 8.12865 0.0557042 8.25588 0.149508 8.34968C0.243311 8.44349 0.370536 8.49618 0.503194 8.49618Z" fill="black"/>
<path d="M2.41666 13.7172C2.49908 13.7721 2.59596 13.8013 2.69502 13.8012C2.76066 13.8011 2.82566 13.7881 2.88626 13.7629C2.94686 13.7377 3.00188 13.7007 3.04815 13.6541L4.11055 12.5937C4.20166 12.4994 4.25208 12.373 4.25094 12.2419C4.2498 12.1107 4.19719 11.9853 4.10445 11.8925C4.01171 11.7998 3.88626 11.7472 3.75511 11.7461C3.62397 11.7449 3.49762 11.7953 3.40328 11.8865L2.34088 12.9469C2.27075 13.0168 2.22297 13.106 2.20359 13.2032C2.18422 13.3003 2.19413 13.401 2.23206 13.4925C2.26999 13.584 2.33424 13.6622 2.41666 13.7172Z" fill="black"/>
<path d="M12.3925 9C12.4669 8.67358 12.505 8.33823 12.505 8C12.505 6.80652 12.0309 5.66193 11.187 4.81802C10.3431 3.9741 9.19848 3.5 8.00501 3.5C7.11499 3.5 6.24496 3.76392 5.50494 4.25839C4.76492 4.75285 4.18814 5.45566 3.84755 6.27792C3.50695 7.10019 3.41784 8.00499 3.59147 8.8779C3.76511 9.75082 4.19369 10.5526 4.82303 11.182C4.99034 11.3493 5.16986 11.5024 5.35965 11.6403L6.07815 10.9219C5.69034 10.6661 5.35541 10.3344 5.09486 9.94449C4.71028 9.36892 4.50501 8.69223 4.50501 8C4.50606 7.07207 4.87515 6.18244 5.5313 5.52629C6.18745 4.87015 7.07707 4.50106 8.00501 4.5C8.69724 4.5 9.37393 4.70527 9.9495 5.08985C10.5251 5.47444 10.9737 6.02106 11.2386 6.66061C11.5035 7.30015 11.5728 8.00388 11.4378 8.68281C11.4164 8.79003 11.3902 8.89586 11.3591 9H12.3925Z" fill="black"/>
<path d="M14.0023 8.51019H15.5028C15.6355 8.51019 15.7627 8.45749 15.8565 8.36369C15.9503 8.26988 16.003 8.14266 16.003 8.01C16.003 7.87734 15.9503 7.75012 15.8565 7.65632C15.7627 7.56251 15.6355 7.50981 15.5028 7.50981H14.0023C13.8696 7.50981 13.7424 7.56251 13.6486 7.65632C13.5548 7.75012 13.5021 7.87734 13.5021 8.01C13.5021 8.14266 13.5548 8.26988 13.6486 8.36369C13.7424 8.45749 13.8696 8.51019 14.0023 8.51019Z" fill="black"/>
<path d="M11.9712 4.18259C12.0537 4.23754 12.1505 4.26677 12.2496 4.2666C12.3154 4.26669 12.3806 4.25375 12.4414 4.22851C12.5022 4.20327 12.5573 4.16623 12.6037 4.11954L13.6641 3.05914C13.7106 3.01264 13.7474 2.95744 13.7725 2.89671C13.7976 2.83597 13.8105 2.77088 13.8105 2.70516C13.8104 2.63944 13.7974 2.57437 13.7722 2.51367C13.747 2.45296 13.7101 2.39782 13.6636 2.35138C13.6171 2.30494 13.5619 2.26811 13.5012 2.24301C13.4405 2.2179 13.3754 2.205 13.3096 2.20505C13.2439 2.20509 13.1789 2.21808 13.1181 2.24328C13.0574 2.26847 13.0023 2.30537 12.9559 2.35188L11.8955 3.41228C11.8253 3.48223 11.7775 3.57144 11.7582 3.66858C11.7388 3.76573 11.7487 3.86644 11.7866 3.95794C11.8246 4.04945 11.8888 4.12764 11.9712 4.18259Z" fill="black"/>
</svg>
