<svg width="16" height="16" viewBox="0 0 16 16" fill="none" xmlns="http://www.w3.org/2000/svg">
<path d="M13.5831 11.0782C13.3843 11.0828 13.1867 11.108 12.9938 11.1532C12.2365 10.4306 11.2071 10.0165 10.1274 10C9.56084 10.0042 9.00148 10.1199 8.48541 10.3395C7.96934 10.5591 7.50804 10.8778 7.13124 11.2751C6.94079 11.2373 6.74663 11.2185 6.55198 11.2188C6.07836 11.2131 5.61029 11.3149 5.18769 11.5157C4.76509 11.7165 4.40051 12.0103 4.12505 12.3721C3.98395 12.3217 3.83603 12.2902 3.68561 12.2783C3.42508 12.2772 3.16784 12.333 2.93429 12.4414C2.70073 12.5498 2.49727 12.7078 2.34003 12.9028C2.18279 13.0978 2.07609 13.3245 2.02837 13.565C1.98066 13.8054 1.99325 14.053 2.06515 14.2881C2.13704 14.5231 2.26627 14.7393 2.44258 14.9193C2.6189 15.0994 2.83746 15.2385 3.08095 15.3255C3.32445 15.4125 3.58618 15.4451 3.84541 15.4207C4.10465 15.3962 4.35426 15.3155 4.57448 15.1848C5.13167 15.6277 5.84197 15.8644 6.57195 15.8504C7.0994 15.8496 7.6181 15.7238 8.08004 15.4848C8.75296 15.8518 9.52418 16.0293 10.3016 15.9961C11.0791 15.9628 11.8299 15.7202 12.4645 15.2973C12.8086 15.4807 13.1973 15.5776 13.5931 15.5786C14.2263 15.5786 14.834 15.3444 15.2845 14.9267C15.7351 14.509 15.9921 13.9415 16 13.3471C15.9753 12.7528 15.7128 12.189 15.2648 11.7684C14.8167 11.3478 14.2162 11.1014 13.5831 11.0782ZM13.5831 14.6691C13.3517 14.6661 13.1249 14.608 12.9239 14.5003C12.7796 14.4272 12.6184 14.3886 12.4545 14.3878C12.2429 14.3871 12.0366 14.4495 11.8652 14.566C11.3611 14.9117 10.7517 15.0958 10.1274 15.091C9.58384 15.0971 9.04871 14.9642 8.57941 14.7066C8.42525 14.6207 8.24931 14.5754 8.07005 14.5753C7.9015 14.5748 7.7359 14.6169 7.59066 14.6972C7.28366 14.8531 6.94094 14.9368 6.59193 14.941C6.10429 14.9477 5.62999 14.7915 5.25362 14.5003C5.07271 14.3551 4.84249 14.2753 4.60445 14.2753C4.41469 14.2753 4.0052 14.5097 3.71557 14.5097C3.55091 14.4909 3.39929 14.4161 3.28932 14.2995C3.17935 14.1829 3.11864 14.0326 3.11864 13.8769C3.11864 13.7211 3.17935 13.5708 3.28932 13.4542C3.39929 13.3376 3.55091 13.2628 3.71557 13.244C3.76551 13.244 4.11507 13.3003 4.20495 13.3003C4.362 13.3084 4.51832 13.2749 4.65606 13.2036C4.79381 13.1323 4.90743 13.0261 4.98396 12.8971C5.17208 12.6647 5.4154 12.4767 5.69455 12.3481C5.97371 12.2195 6.28099 12.1539 6.59193 12.1564C6.72176 12.1564 7.08131 12.222 7.20115 12.222C7.33692 12.2155 7.46983 12.1831 7.59176 12.1266C7.71369 12.0702 7.82207 11.991 7.91025 11.8939C8.19669 11.6043 8.54249 11.3719 8.92692 11.2108C9.31135 11.0497 9.72648 10.9631 10.1474 10.9563C10.5504 10.9614 10.9483 11.0411 11.3185 11.1907C11.6887 11.3403 12.0238 11.557 12.3047 11.8283C12.3984 11.918 12.5103 11.9891 12.6338 12.0374C12.7573 12.0857 12.89 12.1103 13.0238 12.1095C13.1236 12.1095 13.4832 12.0345 13.5831 12.0345C13.9462 12.0617 14.2875 12.2082 14.5469 12.4483C14.8063 12.6884 14.9672 13.0067 15.0013 13.3471C14.9986 13.6986 14.848 14.0348 14.5824 14.2825C14.3167 14.5301 13.9575 14.6691 13.5831 14.6691Z" fill="black"/>
<path d="M8.35355 2.37355C8.25978 2.46732 8.1326 2.52 7.99999 2.52C7.93262 2.52005 7.86592 2.50649 7.80392 2.48012C7.74191 2.45375 7.68588 2.41512 7.63918 2.36655C7.59248 2.31799 7.55607 2.26048 7.53216 2.19749C7.50824 2.1345 7.4973 2.06732 7.49999 2V0.5C7.49999 0.367392 7.55267 0.240215 7.64644 0.146447C7.74021 0.0526788 7.86739 1.59201e-07 7.99999 1.59201e-07C8.06737 -5.36058e-05 8.13407 0.0135112 8.19607 0.0398799C8.25807 0.0662486 8.31411 0.104877 8.36081 0.153446C8.40751 0.202014 8.44391 0.259521 8.46783 0.322511C8.49175 0.385501 8.50269 0.452676 8.49999 0.52V2.02C8.49999 2.15261 8.44732 2.27979 8.35355 2.37355Z" fill="black"/>
<path d="M3.5793 4.23201C3.5191 4.20595 3.46488 4.16783 3.41999 4.12L2.35999 3.06C2.26717 2.96717 2.21502 2.84128 2.21502 2.71C2.21502 2.57873 2.26717 2.45283 2.35999 2.36C2.45282 2.26717 2.57872 2.21503 2.70999 2.21503C2.84127 2.21503 2.96717 2.26717 3.05999 2.36L4.11999 3.42C4.16782 3.46489 4.20595 3.51911 4.23201 3.57931C4.25807 3.6395 4.27151 3.7044 4.27151 3.77C4.27151 3.8356 4.25807 3.9005 4.23201 3.9607C4.20595 4.02089 4.16782 4.07511 4.11999 4.12C4.0751 4.16783 4.02089 4.20595 3.96069 4.23201C3.90049 4.25807 3.83559 4.27152 3.76999 4.27152C3.7044 4.27152 3.6395 4.25807 3.5793 4.23201Z" fill="black"/>
<path d="M2.36355 7.64645C2.45732 7.74021 2.50999 7.86739 2.50999 8C2.51001 8.06651 2.49675 8.13236 2.471 8.19368C2.44525 8.255 2.40752 8.31057 2.36003 8.35714C2.31254 8.4037 2.25623 8.44032 2.19441 8.46485C2.13259 8.48938 2.06649 8.50133 1.99999 8.5H0.509995C0.377386 8.5 0.250209 8.44732 0.156441 8.35355C0.0626729 8.25979 0.00999451 8.13261 0.00999451 8C0.00999451 7.86739 0.0626729 7.74021 0.156441 7.64645C0.250209 7.55268 0.377386 7.5 0.509995 7.5H2.00999C2.1426 7.5 2.26978 7.55268 2.36355 7.64645Z" fill="black"/>
<path d="M13.6064 8.35355C13.5127 8.25979 13.46 8.13261 13.46 8C13.4598 7.93083 13.4739 7.86237 13.5015 7.79895C13.5291 7.73552 13.5695 7.67851 13.6203 7.63152C13.671 7.58452 13.731 7.54857 13.7963 7.52594C13.8617 7.5033 13.931 7.49447 14 7.5H15.5C15.6326 7.5 15.7598 7.55268 15.8535 7.64645C15.9473 7.74021 16 7.86739 16 8C16.0002 8.06917 15.9861 8.13763 15.9585 8.20105C15.9309 8.26448 15.8905 8.32149 15.8397 8.36848C15.7889 8.41548 15.729 8.45143 15.6636 8.47406C15.5983 8.4967 15.5289 8.50553 15.46 8.5H13.96C13.8274 8.5 13.7002 8.44732 13.6064 8.35355Z" fill="black"/>
<path d="M12.4409 4.24203C12.3806 4.26787 12.3156 4.2808 12.25 4.28C12.1844 4.2808 12.1194 4.26787 12.0591 4.24203C11.9988 4.2162 11.9446 4.17804 11.9 4.13C11.8522 4.08511 11.814 4.03089 11.788 3.9707C11.7619 3.9105 11.7485 3.8456 11.7485 3.78C11.7485 3.7144 11.7619 3.6495 11.788 3.58931C11.814 3.52911 11.8522 3.47489 11.9 3.43L12.96 2.37C13.006 2.32404 13.0605 2.28758 13.1206 2.2627C13.1806 2.23783 13.245 2.22503 13.31 2.22503C13.375 2.22503 13.4394 2.23783 13.4994 2.2627C13.5595 2.28758 13.614 2.32404 13.66 2.37C13.706 2.41596 13.7424 2.47053 13.7673 2.53058C13.7922 2.59064 13.805 2.655 13.805 2.72C13.805 2.785 13.7922 2.84937 13.7673 2.90942C13.7424 2.96947 13.706 3.02404 13.66 3.07L12.6 4.13C12.5553 4.17804 12.5011 4.2162 12.4409 4.24203Z" fill="black"/>
<path d="M5.86 10.42C5.50779 10.5051 5.17059 10.6434 4.86 10.83C4.1289 10.0225 3.72899 8.9692 3.74 7.88C3.74 6.71835 4.20146 5.60428 5.02287 4.78287C5.84428 3.96146 6.95835 3.5 8.12 3.5C9.28165 3.5 10.3957 3.96146 11.2171 4.78287C12.0385 5.60428 12.5 6.71835 12.5 7.88C12.4971 8.4419 12.3886 8.99824 12.18 9.52C11.8869 9.37784 11.5781 9.27045 11.26 9.2C11.5052 8.62236 11.5863 7.98826 11.4943 7.36751C11.4023 6.74676 11.1408 6.16344 10.7385 5.68177C10.3363 5.20009 9.80896 4.83876 9.21456 4.63754C8.62016 4.43632 7.98177 4.40302 7.36966 4.54131C6.75756 4.6796 6.19549 4.98411 5.74533 5.42133C5.29517 5.85854 4.97439 6.41149 4.8183 7.0193C4.66221 7.62711 4.67687 8.2662 4.86067 8.86622C5.04446 9.46623 5.39027 10.0039 5.86 10.42Z" fill="black"/>
</svg>
