<svg width="16" height="16" viewBox="0 0 16 16" fill="none" xmlns="http://www.w3.org/2000/svg">
<path d="M7.89998 16C9.35312 16 10.6615 15.3801 11.575 14.3903C11.6672 14.2905 11.8124 14.2591 11.9395 14.3072C12.2692 14.4318 12.6267 14.5 13 14.5C14.6569 14.5 16 13.1569 16 11.5C16 9.84315 14.6569 8.5 13 8.5C12.8315 8.5 12.6663 8.51389 12.5053 8.54059C12.3715 8.56279 12.2354 8.50384 12.1645 8.38823C11.2852 6.95558 9.70416 6 7.89998 6C6.10565 6 4.53208 6.94517 3.64997 8.3648C3.58248 8.47342 3.45684 8.53181 3.32971 8.51791C3.22143 8.50607 3.11143 8.5 3 8.5C1.34315 8.5 0 9.84315 0 11.5C0 13.1569 1.34315 14.5 3 14.5C3.3231 14.5 3.63426 14.4489 3.92586 14.3544C4.04774 14.3149 4.18289 14.3466 4.27104 14.4396C5.18224 15.4006 6.47112 16 7.89998 16ZM11.805 13.1039C11.6329 12.9755 11.3674 13.0071 11.2498 13.1868C10.5356 14.2787 9.30203 15 7.89998 15C6.53223 15 5.32481 14.3135 4.60349 13.2663C4.49114 13.1032 4.25573 13.0693 4.08975 13.1773C3.77625 13.3814 3.40197 13.5 3 13.5C1.89543 13.5 1 12.6046 1 11.5C1 10.3954 1.89543 9.5 3 9.5C3.25671 9.5 3.50212 9.54836 3.72762 9.63648C3.9123 9.70864 4.13636 9.62762 4.2135 9.44496C4.82027 8.00827 6.24238 7 7.89998 7C9.58019 7 11.0184 8.03595 11.6108 9.50397C11.6913 9.70341 11.9462 9.78625 12.1403 9.69369C12.4007 9.56951 12.6922 9.5 13 9.5C14.1046 9.5 15 10.3954 15 11.5C15 12.6046 14.1046 13.5 13 13.5C12.552 13.5 12.1384 13.3527 11.805 13.1039Z" fill="black"/>
<path d="M4.008 6.63655C4.02798 6.24132 4.19885 5.86882 4.48539 5.59587C4.77192 5.32292 5.15227 5.17032 5.548 5.16955C5.58421 5.1714 5.62027 5.17541 5.656 5.18155L5.74 5.19355C5.92578 5.21677 6.11435 5.18737 6.28424 5.1087C6.45414 5.03003 6.59854 4.90524 6.701 4.74855C6.94963 4.36511 7.29021 4.04994 7.69174 3.83175C8.09328 3.61355 8.54301 3.49925 9 3.49925C9.45699 3.49925 9.90672 3.61355 10.3083 3.83175C10.7098 4.04994 11.0504 4.36511 11.299 4.74855C11.4015 4.90524 11.5459 5.03003 11.7158 5.1087C11.8857 5.18737 12.0742 5.21677 12.26 5.19355L12.344 5.18155C12.3797 5.17542 12.4158 5.17141 12.452 5.16955C12.6993 5.16565 12.9438 5.22199 13.1644 5.33369C13.385 5.4454 13.5751 5.60911 13.7184 5.81071C13.8616 6.0123 13.9536 6.24573 13.9865 6.49083C14.0193 6.73592 13.9921 6.98534 13.907 7.21755C14.2191 7.35258 14.509 7.53396 14.767 7.75555C14.9704 7.34585 15.0567 6.88796 15.0164 6.43235C14.9761 5.97674 14.8108 5.54109 14.5387 5.17344C14.2666 4.80579 13.8983 4.5204 13.4743 4.34873C13.0504 4.17706 12.5872 4.12578 12.136 4.20055C11.7964 3.67847 11.3317 3.24948 10.7843 2.95251C10.2368 2.65554 9.62383 2.5 9.001 2.5C8.37817 2.5 7.76521 2.65554 7.21774 2.95251C6.67027 3.24948 6.20563 3.67847 5.866 4.20055C5.76112 4.18317 5.65524 4.17248 5.549 4.16855C5.21431 4.16841 4.88287 4.23422 4.57362 4.36221C4.26436 4.4902 3.98336 4.67787 3.74665 4.91448C3.50994 5.1511 3.32216 5.43203 3.19405 5.74124C3.06594 6.05044 3 6.38185 3 6.71655C3.00464 6.89083 3.02777 7.06414 3.069 7.23355C3.30669 6.93495 3.63768 6.72473 4.009 6.63655H4.008Z" fill="black"/>
</svg>
