<svg width="16" height="16" viewBox="0 0 16 16" fill="none" xmlns="http://www.w3.org/2000/svg">
<path d="M4.40274 1.39259C3.95514 3.97266 4.14204 6.95069 6.2761 9.18991C8.36511 11.3818 11.7531 12.2505 14.5595 12.0415C14.3047 12.3742 14.0174 12.6906 13.6975 12.9866C10.6622 15.7954 5.88611 15.6467 3.03714 12.6574C0.196123 9.67637 0.344338 4.99519 3.37126 2.19414C3.69691 1.89279 4.04221 1.62571 4.40274 1.39259ZM5.54414 0.790584C5.65762 0.29687 5.1928 -0.166939 4.7329 0.0586621C4.00437 0.416046 3.31584 0.882964 2.69207 1.46018C-0.743774 4.63963 -0.913381 9.96167 2.31324 13.3473C5.53987 16.7329 10.9409 16.9 14.3767 13.7206C15.0005 13.1434 15.5166 12.4955 15.9243 11.8015C16.1816 11.3634 15.741 10.8771 15.2339 10.9578C12.5289 11.3878 9.01684 10.6162 7 8.5C4.98316 6.38378 4.9389 3.42379 5.54414 0.790584Z" fill="black"/>
</svg>
