<svg width="16" height="16" viewBox="0 0 16 16" fill="none" xmlns="http://www.w3.org/2000/svg">
<path d="M10.9944 14.3957C10.1346 15.3767 8.84622 16 7.40623 16C5.99447 16 4.72847 15.4009 3.8691 14.453C3.54288 14.58 3.1862 14.65 2.8125 14.65C1.2592 14.65 0 13.4412 0 11.95C0 10.4588 1.2592 9.25 2.8125 9.25C2.9857 9.25 3.15524 9.26503 3.31978 9.2938C4.12358 7.92463 5.65243 7 7.40623 7C9.17469 7 10.7144 7.94015 11.5127 9.32822C11.7289 9.27711 11.9549 9.25 12.1875 9.25C13.7408 9.25 15 10.4588 15 11.95C15 13.4412 13.7408 14.65 12.1875 14.65C11.761 14.65 11.3566 14.5588 10.9944 14.3957Z" fill="black"/>
<path d="M15.605 6.634C15.5682 6.6341 15.5315 6.63915 15.496 6.649C15.1433 6.74503 14.7795 6.79379 14.414 6.794C13.9287 6.79222 13.4473 6.70837 12.99 6.546C11.9828 6.19155 11.1446 5.47308 10.6404 4.5319C10.1361 3.59071 10.0022 2.49492 10.265 1.46C10.2801 1.40333 10.2822 1.34397 10.2711 1.28637C10.26 1.22878 10.236 1.17445 10.2008 1.12748C10.1657 1.08051 10.1204 1.04212 10.0683 1.01519C10.0162 0.988256 9.95864 0.973491 9.9 0.972C9.85203 0.971939 9.8045 0.981106 9.76 0.999C8.83032 1.37322 8.04205 2.03064 7.50699 2.87802C6.97192 3.7254 6.71722 4.71973 6.779 5.72C6.786 5.84 6.817 5.953 6.834 6.07C7.05516 6.04095 7.27794 6.02592 7.501 6.025C7.614 6.025 7.725 6.037 7.837 6.045C7.81002 5.91819 7.78999 5.79 7.777 5.661C7.74089 5.06813 7.84492 4.47509 8.08068 3.92991C8.31644 3.38474 8.67728 2.90275 9.134 2.523C9.13745 3.07621 9.22581 3.62561 9.396 4.152C9.64572 4.92246 10.0703 5.6247 10.6365 6.20378C11.2028 6.78286 11.8953 7.22308 12.66 7.49C13.2234 7.68922 13.8164 7.792 14.414 7.794H14.461C14.2075 8.0955 13.9086 8.35563 13.575 8.565C13.8943 8.72988 14.1886 8.93931 14.449 9.187C15.1323 8.65847 15.6593 7.95446 15.974 7.15C15.9955 7.09122 16.0024 7.02807 15.9939 6.96604C15.9855 6.90401 15.962 6.84499 15.9255 6.79412C15.889 6.74324 15.8407 6.70206 15.7846 6.67415C15.7286 6.64625 15.6666 6.63246 15.604 6.634H15.605Z" fill="black"/>
</svg>
