<svg width="16" height="16" viewBox="0 0 16 16" fill="none" xmlns="http://www.w3.org/2000/svg">
<path d="M7.40623 16C8.76855 16 9.99514 15.4421 10.8516 14.5513C10.938 14.4614 11.0742 14.4332 11.1933 14.4765C11.5024 14.5886 11.8375 14.65 12.1875 14.65C13.7408 14.65 15 13.4412 15 11.95C15 10.4588 13.7408 9.25 12.1875 9.25C12.0295 9.25 11.8746 9.2625 11.7238 9.28653C11.5983 9.30651 11.4707 9.25345 11.4042 9.1494C10.5798 7.86002 9.09765 7 7.40623 7C5.72405 7 4.24882 7.85065 3.42185 9.12832C3.35858 9.22608 3.24078 9.27863 3.1216 9.26612C3.02009 9.25547 2.91696 9.25 2.8125 9.25C1.2592 9.25 0 10.4588 0 11.95C0 13.4412 1.2592 14.65 2.8125 14.65C3.1154 14.65 3.40712 14.604 3.68049 14.519C3.79476 14.4834 3.92146 14.512 4.0041 14.5957C4.85835 15.4606 6.06667 16 7.40623 16ZM11.0672 13.3935C10.9059 13.2779 10.6569 13.3064 10.5467 13.4682C9.87713 14.4508 8.72066 15.1 7.40623 15.1C6.12396 15.1 4.99201 14.4822 4.31577 13.5397C4.21044 13.3929 3.98975 13.3623 3.83414 13.4596C3.54023 13.6433 3.18935 13.75 2.8125 13.75C1.77697 13.75 0.9375 12.9441 0.9375 11.95C0.9375 10.9559 1.77697 10.15 2.8125 10.15C3.05316 10.15 3.28324 10.1935 3.49464 10.2728C3.66778 10.3378 3.87784 10.2649 3.95016 10.1005C4.51901 8.80744 5.85223 7.9 7.40623 7.9C8.98142 7.9 10.3298 8.83236 10.8851 10.1536C10.9606 10.3331 11.1995 10.4076 11.3815 10.3243C11.6257 10.2126 11.899 10.15 12.1875 10.15C13.223 10.15 14.0625 10.9559 14.0625 11.95C14.0625 12.9441 13.223 13.75 12.1875 13.75C11.7675 13.75 11.3798 13.6174 11.0672 13.3935Z" fill="black"/>
<path d="M15.605 6.634C15.5682 6.6341 15.5315 6.63915 15.496 6.649C15.1433 6.74503 14.7795 6.79379 14.414 6.794C13.9287 6.79222 13.4473 6.70837 12.99 6.546C11.9828 6.19155 11.1446 5.47308 10.6404 4.5319C10.1361 3.59071 10.0022 2.49492 10.265 1.46C10.2801 1.40333 10.2822 1.34397 10.2711 1.28637C10.26 1.22878 10.236 1.17445 10.2008 1.12748C10.1657 1.08051 10.1204 1.04212 10.0683 1.01519C10.0162 0.988256 9.95864 0.973491 9.9 0.972C9.85203 0.971939 9.8045 0.981106 9.76 0.999C8.83032 1.37322 8.04205 2.03064 7.50699 2.87802C6.97192 3.7254 6.71722 4.71973 6.779 5.72C6.786 5.84 6.817 5.953 6.834 6.07C7.05516 6.04095 7.27794 6.02592 7.501 6.025C7.614 6.025 7.725 6.037 7.837 6.045C7.81003 5.91819 7.79 5.79 7.777 5.661C7.74089 5.06813 7.84492 4.47509 8.08068 3.92991C8.31644 3.38474 8.67728 2.90275 9.134 2.523C9.13745 3.07621 9.22581 3.62561 9.396 4.152C9.64572 4.92246 10.0703 5.6247 10.6365 6.20378C11.2028 6.78286 11.8953 7.22308 12.66 7.49C13.2234 7.68922 13.8164 7.792 14.414 7.794H14.461C14.2075 8.0955 13.9086 8.35563 13.575 8.565C13.8943 8.72988 14.1886 8.93931 14.449 9.187C15.1323 8.65847 15.6593 7.95446 15.974 7.15C15.9955 7.09122 16.0024 7.02807 15.9939 6.96604C15.9855 6.90401 15.962 6.84499 15.9255 6.79412C15.889 6.74324 15.8407 6.70206 15.7846 6.67415C15.7286 6.64625 15.6666 6.63246 15.604 6.634H15.605Z" fill="black"/>
</svg>
