<svg width="16" height="16" viewBox="0 0 16 16" fill="none" xmlns="http://www.w3.org/2000/svg">
<path d="M7.26834 15.1619C7.18888 15.1307 7.09774 15.1463 7.03502 15.2043C6.50027 15.6982 5.78538 16 5 16C4.21462 16 3.49973 15.6982 2.96498 15.2043C2.90226 15.1463 2.81112 15.1307 2.73166 15.1619C2.50505 15.2511 2.25824 15.3 2 15.3C0.895431 15.3 0 14.4046 0 13.3C0 12.1954 0.895431 11.3 2 11.3C2.11886 11.3 2.23529 11.3104 2.34845 11.3302C2.43236 11.345 2.51838 11.3116 2.56834 11.2426C3.11338 10.4898 3.9995 10 5 10C6.0005 10 6.88662 10.4898 7.43166 11.2426C7.48162 11.3116 7.56764 11.345 7.65155 11.3302C7.76471 11.3104 7.88115 11.3 8 11.3C9.10457 11.3 10 12.1954 10 13.3C10 14.4046 9.10457 15.3 8 15.3C7.74176 15.3 7.49495 15.2511 7.26834 15.1619ZM5 15.25C5.75219 15.25 6.41817 14.8809 6.8267 14.3139C6.91299 14.1942 7.09983 14.1797 7.21461 14.2725C7.42924 14.4461 7.70248 14.55 8 14.55C8.69036 14.55 9.25 13.9904 9.25 13.3C9.25 12.6096 8.69036 12.05 8 12.05C7.79204 12.05 7.59595 12.1008 7.42344 12.1906C7.29234 12.2589 7.1117 12.2076 7.05073 12.0729C6.69748 11.2928 5.91212 10.75 5 10.75C4.08788 10.75 3.30252 11.2928 2.94927 12.0729C2.8883 12.2076 2.70766 12.2589 2.57656 12.1906C2.40405 12.1008 2.20796 12.05 2 12.05C1.30964 12.05 0.75 12.6096 0.75 13.3C0.75 13.9904 1.30964 14.55 2 14.55C2.29752 14.55 2.57076 14.4461 2.78539 14.2725C2.90017 14.1797 3.08701 14.1942 3.1733 14.3139C3.58183 14.8809 4.24781 15.25 5 15.25Z" fill="black"/>
<path d="M8.5261 7.06491C7.01275 5.47698 6.75495 3.42841 6.9696 1.59402C6.87725 1.66885 6.78674 1.7472 6.69824 1.8291C4.63358 3.73969 4.43923 6.86971 6.18261 9.00744C6.11081 9.00249 6.03873 9 5.9665 9C5.65103 9 5.33853 9.04747 5.03924 9.13985C3.3711 6.62697 3.72076 3.22192 6.01905 1.09514C6.48688 0.662223 7.00328 0.312035 7.54968 0.0439966C7.8946 -0.125204 8.24322 0.222653 8.15811 0.592938C7.70417 2.56784 7.73737 4.78784 9.25 6.375C10.7626 7.96216 13.3967 8.54082 15.4254 8.21831C15.8058 8.15785 16.1362 8.52252 15.9432 8.85111C15.6374 9.37164 15.2504 9.85752 14.7825 10.2904C13.6722 11.3179 12.2883 11.8794 10.879 11.9826C10.7929 11.6147 10.608 11.2741 10.3403 10.9997C11.6882 11.0147 13.0439 10.5369 14.1033 9.55647C14.1922 9.47424 14.2775 9.38984 14.3593 9.30344C12.3238 9.31616 10.0132 8.62527 8.5261 7.06491Z" fill="black"/>
</svg>
