<svg width="16" height="16" viewBox="0 0 16 16" fill="none" xmlns="http://www.w3.org/2000/svg">
<path d="M11.5831 11.0782C11.3843 11.0828 11.1867 11.108 10.9938 11.1532C10.2365 10.4306 9.20707 10.0165 8.12744 10C7.56084 10.0042 7.00148 10.1199 6.48541 10.3395C5.96934 10.5591 5.50804 10.8778 5.13124 11.2751C4.94079 11.2373 4.74663 11.2185 4.55198 11.2188C4.07836 11.2131 3.61029 11.3149 3.18769 11.5157C2.76509 11.7165 2.40051 12.0103 2.12505 12.3721C1.98395 12.3217 1.83603 12.2902 1.68561 12.2783C1.42508 12.2772 1.16784 12.333 0.934285 12.4414C0.70073 12.5498 0.497272 12.7078 0.340031 12.9028C0.18279 13.0978 0.076087 13.3245 0.0283749 13.565C-0.0193372 13.8054 -0.0067469 14.053 0.0651483 14.2881C0.137043 14.5231 0.266268 14.7393 0.442584 14.9193C0.618899 15.0994 0.837462 15.2385 1.08095 15.3255C1.32445 15.4125 1.58618 15.4451 1.84541 15.4207C2.10465 15.3962 2.35426 15.3155 2.57448 15.1848C3.13167 15.6277 3.84197 15.8644 4.57195 15.8504C5.0994 15.8496 5.6181 15.7238 6.08004 15.4848C6.75296 15.8518 7.52418 16.0293 8.30162 15.9961C9.07907 15.9628 9.8299 15.7202 10.4645 15.2973C10.8086 15.4807 11.1973 15.5776 11.5931 15.5786C12.2263 15.5786 12.834 15.3444 13.2845 14.9267C13.7351 14.509 13.9921 13.9415 14 13.3471C13.9753 12.7528 13.7128 12.189 13.2648 11.7684C12.8167 11.3478 12.2162 11.1014 11.5831 11.0782ZM11.5831 14.6691C11.3517 14.6661 11.1249 14.608 10.9239 14.5003C10.7796 14.4272 10.6184 14.3886 10.4545 14.3878C10.2429 14.3871 10.0366 14.4495 9.86524 14.566C9.36108 14.9117 8.75175 15.0958 8.12744 15.091C7.58384 15.0971 7.04871 14.9642 6.57941 14.7066C6.42525 14.6207 6.24931 14.5754 6.07005 14.5753C5.9015 14.5748 5.7359 14.6169 5.59066 14.6972C5.28366 14.8531 4.94094 14.9368 4.59193 14.941C4.10429 14.9477 3.62999 14.7915 3.25362 14.5003C3.07271 14.3551 2.84249 14.2753 2.60445 14.2753C2.41469 14.2753 2.0052 14.5097 1.71557 14.5097C1.55091 14.4909 1.39929 14.4161 1.28932 14.2995C1.17935 14.1829 1.11864 14.0326 1.11864 13.8769C1.11864 13.7211 1.17935 13.5708 1.28932 13.4542C1.39929 13.3376 1.55091 13.2628 1.71557 13.244C1.76551 13.244 2.11507 13.3003 2.20495 13.3003C2.362 13.3084 2.51832 13.2749 2.65606 13.2036C2.79381 13.1323 2.90743 13.0261 2.98396 12.8971C3.17208 12.6647 3.4154 12.4767 3.69455 12.3481C3.97371 12.2195 4.28099 12.1539 4.59193 12.1564C4.72176 12.1564 5.08131 12.222 5.20115 12.222C5.33692 12.2155 5.46983 12.1831 5.59176 12.1266C5.71369 12.0702 5.82207 11.991 5.91025 11.8939C6.19669 11.6043 6.54249 11.3719 6.92692 11.2108C7.31135 11.0497 7.72648 10.9631 8.14742 10.9563C8.5504 10.9614 8.94835 11.0411 9.31851 11.1907C9.68868 11.3403 10.0238 11.557 10.3047 11.8283C10.3984 11.918 10.5103 11.9891 10.6338 12.0374C10.7573 12.0857 10.89 12.1103 11.0238 12.1095C11.1236 12.1095 11.4832 12.0345 11.5831 12.0345C11.9462 12.0617 12.2875 12.2082 12.5469 12.4483C12.8063 12.6884 12.9672 13.0067 13.0013 13.3471C12.9986 13.6986 12.848 14.0348 12.5824 14.2825C12.3167 14.5301 11.9575 14.6691 11.5831 14.6691Z" fill="black"/>
<path d="M15.47 7.68H15.33C14.8831 7.84846 14.4156 7.95609 13.94 8C13.3142 8.02573 12.6885 7.94457 12.09 7.76C11.2743 7.51291 10.5276 7.07862 9.90955 6.49179C9.29146 5.90495 8.81905 5.18179 8.53001 4.38C8.15488 3.40162 8.06812 2.33619 8.28001 1.31C8.29862 1.23647 8.2999 1.15962 8.28376 1.08551C8.26762 1.0114 8.2345 0.942044 8.187 0.88291C8.1395 0.823776 8.07892 0.776477 8.01003 0.744737C7.94114 0.712997 7.86582 0.697684 7.79001 0.700003C7.73083 0.685967 7.66919 0.685967 7.61001 0.700003C6.41854 1.23234 5.42691 2.1293 4.7781 3.26157C4.12929 4.39384 3.85683 5.7029 4.00001 7C4.11998 8.01068 4.49507 8.97422 5.09001 9.8C5.35253 9.59751 5.63779 9.42635 5.94001 9.29C5.42393 8.58877 5.0999 7.76492 5.00001 6.9C4.90417 5.98125 5.05575 5.05358 5.43906 4.21313C5.82236 3.37267 6.42344 2.65 7.18001 2.12C7.14288 3.00528 7.28226 3.88911 7.59001 4.72C7.94001 5.65714 8.50223 6.50052 9.23262 7.18407C9.96302 7.86763 10.8418 8.37279 11.8 8.66C12.5122 8.87733 13.2561 8.97201 14 8.94C14.22 8.94 14.45 8.94 14.66 8.88C14.2945 9.52665 13.793 10.0862 13.19 10.52C13.4489 10.7406 13.6717 11.0004 13.85 11.29C14.8477 10.5269 15.5933 9.48178 15.99 8.29C16.0096 8.21389 16.0106 8.13418 15.9929 8.0576C15.9752 7.98102 15.9394 7.90982 15.8884 7.85001C15.8374 7.7902 15.7727 7.74353 15.6999 7.71394C15.6271 7.68435 15.5483 7.67271 15.47 7.68Z" fill="black"/>
</svg>
