<svg width="16" height="16" viewBox="0 0 16 16" fill="none" xmlns="http://www.w3.org/2000/svg">
<path d="M4.29289 14.7071C4.10536 14.5196 4 14.2652 4 14C4 13.5 4.55542 12.605 5 12C5.44458 12.605 6 13.5 6 14C6 14.2652 5.89464 14.5196 5.70711 14.7071C5.51957 14.8946 5.26522 15 5 15C4.73478 15 4.48043 14.8946 4.29289 14.7071Z" fill="black"/>
<path d="M11.2929 14.7071C11.1054 14.5196 11 14.2652 11 14C11 13.5 11.5554 12.605 12 12C12.4446 12.605 13 13.5 13 14C13 14.2652 12.8946 14.5196 12.7071 14.7071C12.5196 14.8946 12.2652 15 12 15C11.7348 15 11.4804 14.8946 11.2929 14.7071Z" fill="black"/>
<path d="M7.5 15C7.5 15.2652 7.60536 15.5196 7.79289 15.7071C7.98043 15.8946 8.23478 16 8.5 16C8.76522 16 9.01957 15.8946 9.20711 15.7071C9.39464 15.5196 9.5 15.2652 9.5 15C9.5 14.5 8.94458 13.605 8.5 13C8.05542 13.605 7.5 14.5 7.5 15Z" fill="black"/>
<path d="M11.9944 10.8957C11.1346 11.8767 9.84622 12.5 8.40623 12.5C6.99447 12.5 5.72847 11.9009 4.8691 10.953C4.54288 11.08 4.1862 11.15 3.8125 11.15C2.2592 11.15 1 9.94117 1 8.45C1 6.95883 2.2592 5.75 3.8125 5.75C3.9857 5.75 4.15524 5.76503 4.31978 5.7938C5.12358 4.42463 6.65243 3.5 8.40623 3.5C10.1747 3.5 11.7144 4.44015 12.5127 5.82822C12.7289 5.77711 12.9549 5.75 13.1875 5.75C14.7408 5.75 16 6.95883 16 8.45C16 9.94117 14.7408 11.15 13.1875 11.15C12.761 11.15 12.3566 11.0588 11.9944 10.8957Z" fill="black"/>
<path d="M4.97901 1.904H4.98601C5.11845 1.90216 5.24474 1.84784 5.33717 1.75297C5.4296 1.6581 5.48061 1.53044 5.47901 1.398L5.46701 0.493C5.46517 0.361609 5.41168 0.236223 5.31811 0.143963C5.22454 0.0517036 5.09841 -1.28758e-05 4.96701 2.40459e-09H4.96001C4.82757 0.00184461 4.70128 0.0561616 4.60885 0.151028C4.51642 0.245895 4.46541 0.37356 4.46701 0.506L4.47901 1.41C4.48059 1.54157 4.53396 1.66721 4.62756 1.75968C4.72116 1.85216 4.84743 1.90401 4.97901 1.904ZM2.08701 2.85C2.13383 2.89674 2.18947 2.93372 2.25069 2.9588C2.31191 2.98389 2.37749 2.99657 2.44365 2.99612C2.50981 2.99567 2.57522 2.98209 2.63609 2.95618C2.69696 2.93026 2.75209 2.89253 2.79827 2.84515C2.84445 2.79778 2.88077 2.74171 2.90513 2.6802C2.92949 2.61869 2.94139 2.55295 2.94016 2.48681C2.93892 2.42066 2.92458 2.35542 2.89794 2.29485C2.87131 2.23429 2.83293 2.17962 2.78501 2.134L2.13701 1.504C2.09101 1.45399 2.03529 1.41387 1.97326 1.38611C1.91124 1.35835 1.84421 1.34353 1.77626 1.34254C1.70831 1.34156 1.64088 1.35444 1.57807 1.38039C1.51527 1.40634 1.45841 1.44481 1.41098 1.49347C1.36354 1.54213 1.32653 1.59995 1.30219 1.6634C1.27785 1.72684 1.26669 1.79458 1.26941 1.86248C1.27213 1.93038 1.28866 1.99702 1.31799 2.05831C1.34732 2.11961 1.38884 2.17429 1.44001 2.219L2.08701 2.85ZM1.90801 5.053C1.90643 4.92143 1.85306 4.79579 1.75946 4.70332C1.66586 4.61084 1.53958 4.55899 1.40801 4.559H1.40101L0.497009 4.571C0.364401 4.5718 0.23754 4.62524 0.144334 4.71957C0.0511287 4.8139 -0.000786637 4.94139 9.0124e-06 5.074C0.000804662 5.20661 0.0542461 5.33347 0.148577 5.42667C0.242908 5.51988 0.370401 5.5718 0.503009 5.571H0.510009L1.41501 5.559C1.54745 5.55716 1.67374 5.50284 1.76617 5.40797C1.8586 5.3131 1.90961 5.18544 1.90801 5.053ZM7.54601 2.932C7.61284 2.93226 7.67904 2.91912 7.7407 2.89335C7.80236 2.86759 7.85823 2.82972 7.90501 2.782L8.53501 2.134C8.62574 2.0387 8.67525 1.91147 8.67279 1.77991C8.67034 1.64835 8.61612 1.52306 8.5219 1.43121C8.42768 1.33936 8.30105 1.28835 8.16947 1.28925C8.03789 1.29014 7.91197 1.34287 7.81901 1.436L7.18801 2.083C7.11903 2.15337 7.07238 2.24256 7.05393 2.33936C7.03547 2.43616 7.04603 2.53626 7.08428 2.62708C7.12253 2.7179 7.18677 2.79539 7.26892 2.84981C7.35106 2.90424 7.44746 2.93318 7.54601 2.933V2.932ZM2.25401 5.315C2.57695 5.16841 2.92013 5.07132 3.27201 5.027C3.32744 4.58533 3.54186 4.17897 3.87518 3.88394C4.2085 3.5889 4.63788 3.4254 5.08301 3.424C5.27111 3.42639 5.45768 3.4581 5.63601 3.518C6.04288 3.3254 6.47423 3.18947 6.91801 3.114C6.50865 2.75816 6.00535 2.52793 5.46844 2.4509C4.93154 2.37387 4.38381 2.45331 3.89092 2.6797C3.39802 2.9061 2.98087 3.26984 2.68948 3.72732C2.39808 4.1848 2.2448 4.71661 2.24801 5.259C2.24801 5.279 2.25401 5.296 2.25401 5.315Z" fill="black"/>
</svg>
