<svg width="16" height="16" viewBox="0 0 16 16" fill="none" xmlns="http://www.w3.org/2000/svg">
<path d="M2.29289 13.7071C2.10536 13.5196 2 13.2652 2 13C2 12.5 2.55542 11.605 3 11C3.44458 11.605 4 12.5 4 13C4 13.2652 3.89464 13.5196 3.70711 13.7071C3.51957 13.8946 3.26522 14 3 14C2.73478 14 2.48043 13.8946 2.29289 13.7071Z" fill="black"/>
<path d="M12.2929 13.7071C12.1054 13.5196 12 13.2652 12 13C12 12.5 12.5554 11.605 13 11C13.4446 11.605 14 12.5 14 13C14 13.2652 13.8946 13.5196 13.7071 13.7071C13.5196 13.8946 13.2652 14 13 14C12.7348 14 12.4804 13.8946 12.2929 13.7071Z" fill="black"/>
<path d="M7 15C7 15.2652 7.10536 15.5196 7.29289 15.7071C7.48043 15.8946 7.73478 16 8 16C8.26522 16 8.51957 15.8946 8.70711 15.7071C8.89464 15.5196 9 15.2652 9 15C9 14.5 8.44458 13.605 8 13C7.55542 13.605 7 14.5 7 15Z" fill="black"/>
<path d="M11.7274 8.21748C10.8102 9.3074 9.43597 10 7.89998 10C6.3941 10 5.04371 9.33429 4.12704 8.2811C3.77907 8.42226 3.39862 8.5 3 8.5C1.34315 8.5 0 7.15685 0 5.5C0 3.84315 1.34315 2.5 3 2.5C3.18474 2.5 3.36559 2.5167 3.5411 2.54867C4.39849 1.02737 6.02926 0 7.89998 0C9.78634 0 11.4287 1.04461 12.2802 2.58691C12.5108 2.53012 12.7519 2.5 13 2.5C14.6569 2.5 16 3.84315 16 5.5C16 7.15685 14.6569 8.5 13 8.5C12.545 8.5 12.1137 8.39872 11.7274 8.21748Z" fill="black"/>
</svg>
