<svg width="16" height="16" viewBox="0 0 16 16" fill="none" xmlns="http://www.w3.org/2000/svg">
<path d="M1 12.5C1 12.7652 1.10536 13.0196 1.29289 13.2071C1.48043 13.3946 1.73478 13.5 2 13.5C2.26522 13.5 2.51957 13.3946 2.70711 13.2071C2.89464 13.0196 3 12.7652 3 12.5C3 12 2.44458 11.105 2 10.5C1.55542 11.105 1 12 1 12.5Z" fill="black"/>
<path d="M5 15C5 15.2652 5.10536 15.5196 5.29289 15.7071C5.48043 15.8946 5.73478 16 6 16C6.26522 16 6.51957 15.8946 6.70711 15.7071C6.89464 15.5196 7 15.2652 7 15C7 14.5 6.44458 13.605 6 13C5.55542 13.605 5 14.5 5 15Z" fill="black"/>
<path d="M9.29289 15.7071C9.10536 15.5196 9 15.2652 9 15C9 14.5 9.55542 13.605 10 13C10.4446 13.605 11 14.5 11 15C11 15.2652 10.8946 15.5196 10.7071 15.7071C10.5196 15.8946 10.2652 16 10 16C9.73478 16 9.48043 15.8946 9.29289 15.7071Z" fill="black"/>
<path d="M13 12.5C13 12.7652 13.1054 13.0196 13.2929 13.2071C13.4804 13.3946 13.7348 13.5 14 13.5C14.2652 13.5 14.5196 13.3946 14.7071 13.2071C14.8946 13.0196 15 12.7652 15 12.5C15 12 14.4446 11.105 14 10.5C13.5554 11.105 13 12 13 12.5Z" fill="black"/>
<path d="M11.7274 8.21748C10.8102 9.3074 9.43597 10 7.89998 10C6.3941 10 5.04371 9.33429 4.12704 8.2811C3.77907 8.42226 3.39862 8.5 3 8.5C1.34315 8.5 0 7.15685 0 5.5C0 3.84315 1.34315 2.5 3 2.5C3.18474 2.5 3.36559 2.5167 3.5411 2.54867C4.39849 1.02737 6.02926 0 7.89998 0C9.78634 0 11.4287 1.04461 12.2802 2.58691C12.5108 2.53012 12.7519 2.5 13 2.5C14.6569 2.5 16 3.84315 16 5.5C16 7.15685 14.6569 8.5 13 8.5C12.545 8.5 12.1137 8.39872 11.7274 8.21748Z" fill="black"/>
</svg>
