<svg width="16" height="16" viewBox="0 0 16 16" fill="none" xmlns="http://www.w3.org/2000/svg">
<path d="M8.53354 12.125C8.60257 12.0055 8.75547 11.9645 8.87504 12.0335C8.99462 12.1026 9.03558 12.2555 8.96655 12.375L7.21655 15.4061C7.14751 15.5257 6.99462 15.5667 6.87504 15.4976C6.75547 15.4286 6.7145 15.2757 6.78354 15.1561L8.53354 12.125Z" fill="black"/>
<path d="M12.7835 12.825C12.8526 12.7055 13.0055 12.6645 13.125 12.7335C13.2446 12.8026 13.2856 12.9555 13.2165 13.075L12.2165 14.8071C12.1475 14.9267 11.9946 14.9676 11.875 14.8986C11.7555 14.8296 11.7145 14.6767 11.7835 14.5571L12.7835 12.825Z" fill="black"/>
<path d="M3.78354 12.825C3.85257 12.7055 4.00547 12.6645 4.12504 12.7335C4.24461 12.8026 4.28558 12.9555 4.21655 13.075L3.21655 14.8071C3.14751 14.9267 2.99461 14.9676 2.87504 14.8986C2.75547 14.8296 2.7145 14.6767 2.78354 14.5571L3.78354 12.825Z" fill="black"/>
<path d="M11.7274 8.21748C10.8102 9.3074 9.43597 10 7.89998 10C6.3941 10 5.04371 9.33429 4.12704 8.2811C3.77907 8.42226 3.39862 8.5 3 8.5C1.34315 8.5 0 7.15685 0 5.5C0 3.84315 1.34315 2.5 3 2.5C3.18474 2.5 3.36559 2.5167 3.5411 2.54867C4.39849 1.02737 6.02926 0 7.89998 0C9.78634 0 11.4287 1.04461 12.2802 2.58691C12.5108 2.53012 12.7519 2.5 13 2.5C14.6569 2.5 16 3.84315 16 5.5C16 7.15685 14.6569 8.5 13 8.5C12.545 8.5 12.1137 8.39872 11.7274 8.21748Z" fill="black"/>
</svg>
