<svg width="16" height="16" viewBox="0 0 16 16" fill="none" xmlns="http://www.w3.org/2000/svg">
<path d="M1.29289 12.2071C1.10536 12.0196 1 11.7652 1 11.5C1 11 1.55542 10.105 2 9.5C2.44458 10.105 3 11 3 11.5C3 11.7652 2.89464 12.0196 2.70711 12.2071C2.51957 12.3946 2.26522 12.5 2 12.5C1.73478 12.5 1.48043 12.3946 1.29289 12.2071Z" fill="black"/>
<path d="M4.29289 13.7071C4.10536 13.5196 4 13.2652 4 13C4 12.5 4.55542 11.605 5 11C5.44458 11.605 6 12.5 6 13C6 13.2652 5.89464 13.5196 5.70711 13.7071C5.51957 13.8946 5.26522 14 5 14C4.73478 14 4.48043 13.8946 4.29289 13.7071Z" fill="black"/>
<path d="M10 13C10 13.2652 10.1054 13.5196 10.2929 13.7071C10.4804 13.8946 10.7348 14 11 14C11.2652 14 11.5196 13.8946 11.7071 13.7071C11.8946 13.5196 12 13.2652 12 13C12 12.5 11.4446 11.605 11 11C10.5554 11.605 10 12.5 10 13Z" fill="black"/>
<path d="M7.29289 15.7071C7.10536 15.5196 7 15.2652 7 15C7 14.5 7.55542 13.605 8 13C8.44458 13.605 9 14.5 9 15C9 15.2652 8.89464 15.5196 8.70711 15.7071C8.51957 15.8946 8.26522 16 8 16C7.73478 16 7.48043 15.8946 7.29289 15.7071Z" fill="black"/>
<path d="M13 11.5C13 11.7652 13.1054 12.0196 13.2929 12.2071C13.4804 12.3946 13.7348 12.5 14 12.5C14.2652 12.5 14.5196 12.3946 14.7071 12.2071C14.8946 12.0196 15 11.7652 15 11.5C15 11 14.4446 10.105 14 9.5C13.5554 10.105 13 11 13 11.5Z" fill="black"/>
<path d="M11.7274 8.21748C10.8102 9.3074 9.43597 10 7.89998 10C6.3941 10 5.04371 9.33429 4.12704 8.2811C3.77907 8.42226 3.39862 8.5 3 8.5C1.34315 8.5 0 7.15685 0 5.5C0 3.84315 1.34315 2.5 3 2.5C3.18474 2.5 3.36559 2.5167 3.5411 2.54867C4.39849 1.02737 6.02926 0 7.89998 0C9.78634 0 11.4287 1.04461 12.2802 2.58691C12.5108 2.53012 12.7519 2.5 13 2.5C14.6569 2.5 16 3.84315 16 5.5C16 7.15685 14.6569 8.5 13 8.5C12.545 8.5 12.1137 8.39872 11.7274 8.21748Z" fill="black"/>
</svg>
