<svg width="16" height="16" viewBox="0 0 16 16" fill="none" xmlns="http://www.w3.org/2000/svg">
<path d="M8.94251 11.7036C9.06085 11.4793 8.99063 11.1924 8.78565 11.0629C8.58068 10.9334 8.31858 11.0103 8.20024 11.2346L6.05749 15.2964C5.93915 15.5207 6.00937 15.8076 6.21435 15.9371C6.41932 16.0666 6.68142 15.9897 6.79976 15.7654L8.94251 11.7036Z" fill="black"/>
<path d="M2.79995 11.5559C2.99125 11.671 3.0568 11.926 2.94635 12.1254L1.74643 14.2915C1.63598 14.4909 1.39136 14.5592 1.20005 14.4441C1.00875 14.329 0.943203 14.074 1.05365 13.8746L2.25357 11.7085C2.36402 11.5091 2.60864 11.4408 2.79995 11.5559Z" fill="black"/>
<path d="M5.79995 11.5559C5.99125 11.671 6.0568 11.926 5.94635 12.1254L4.74643 14.2915C4.63598 14.4909 4.39136 14.5592 4.20005 14.4441C4.00875 14.329 3.9432 14.074 4.05365 13.8746L5.25357 11.7085C5.36402 11.5091 5.60864 11.4408 5.79995 11.5559Z" fill="black"/>
<path d="M14.7999 11.5559C14.9913 11.671 15.0568 11.926 14.9463 12.1254L13.7464 14.2915C13.636 14.4909 13.3914 14.5592 13.2001 14.4441C13.0087 14.329 12.9432 14.074 13.0537 13.8746L14.2536 11.7085C14.364 11.5091 14.6086 11.4408 14.7999 11.5559Z" fill="black"/>
<path d="M11.9463 12.1254C12.0568 11.926 11.9913 11.671 11.7999 11.5559C11.6086 11.4408 11.364 11.5091 11.2536 11.7085L10.0537 13.8746C9.9432 14.074 10.0087 14.329 10.2001 14.4441C10.3914 14.5592 10.636 14.4909 10.7464 14.2915L11.9463 12.1254Z" fill="black"/>
<path d="M11.7274 8.21748C10.8102 9.3074 9.43597 10 7.89998 10C6.3941 10 5.04371 9.33429 4.12704 8.2811C3.77907 8.42226 3.39862 8.5 3 8.5C1.34315 8.5 0 7.15685 0 5.5C0 3.84315 1.34315 2.5 3 2.5C3.18474 2.5 3.36559 2.5167 3.5411 2.54867C4.39849 1.02737 6.02926 0 7.89998 0C9.78634 0 11.4287 1.04461 12.2802 2.58691C12.5108 2.53012 12.7519 2.5 13 2.5C14.6569 2.5 16 3.84315 16 5.5C16 7.15685 14.6569 8.5 13 8.5C12.545 8.5 12.1137 8.39872 11.7274 8.21748Z" fill="black"/>
</svg>
