<svg width="16" height="16" viewBox="0 0 16 16" fill="none" xmlns="http://www.w3.org/2000/svg">
<path d="M8.94251 11.7036C9.06085 11.4793 8.99063 11.1924 8.78565 11.0629C8.58068 10.9334 8.31858 11.0103 8.20024 11.2346L6.05749 15.2964C5.93915 15.5207 6.00937 15.8076 6.21435 15.9371C6.41932 16.0666 6.68142 15.9897 6.79976 15.7654L8.94251 11.7036Z" fill="black"/>
<path d="M2.79995 11.5559C2.99125 11.671 3.0568 11.926 2.94635 12.1254L1.74643 14.2915C1.63598 14.4909 1.39136 14.5592 1.20005 14.4441C1.00875 14.329 0.943203 14.074 1.05365 13.8746L2.25357 11.7085C2.36402 11.5091 2.60864 11.4408 2.79995 11.5559Z" fill="black"/>
<path d="M5.79995 11.5559C5.99125 11.671 6.0568 11.926 5.94635 12.1254L4.74643 14.2915C4.63598 14.4909 4.39136 14.5592 4.20005 14.4441C4.00875 14.329 3.9432 14.074 4.05365 13.8746L5.25357 11.7085C5.36402 11.5091 5.60864 11.4408 5.79995 11.5559Z" fill="black"/>
<path d="M14.7999 11.5559C14.9913 11.671 15.0568 11.926 14.9463 12.1254L13.7464 14.2915C13.636 14.4909 13.3914 14.5592 13.2001 14.4441C13.0087 14.329 12.9432 14.074 13.0537 13.8746L14.2536 11.7085C14.364 11.5091 14.6086 11.4408 14.7999 11.5559Z" fill="black"/>
<path d="M11.9463 12.1254C12.0568 11.926 11.9913 11.671 11.7999 11.5559C11.6086 11.4408 11.364 11.5091 11.2536 11.7085L10.0537 13.8746C9.9432 14.074 10.0087 14.329 10.2001 14.4441C10.3914 14.5592 10.636 14.4909 10.7464 14.2915L11.9463 12.1254Z" fill="black"/>
<path d="M7.89998 10C9.35312 10 10.6615 9.3801 11.575 8.39032C11.6672 8.29047 11.8124 8.25914 11.9395 8.30718C12.2692 8.4318 12.6267 8.5 13 8.5C14.6569 8.5 16 7.15685 16 5.5C16 3.84315 14.6569 2.5 13 2.5C12.8315 2.5 12.6663 2.51389 12.5053 2.54059C12.3715 2.56279 12.2354 2.50384 12.1645 2.38823C11.2852 0.955579 9.70416 0 7.89998 0C6.10565 0 4.53208 0.945171 3.64997 2.3648C3.58248 2.47342 3.45684 2.53181 3.32971 2.51791C3.22143 2.50607 3.11143 2.5 3 2.5C1.34315 2.5 0 3.84315 0 5.5C0 7.15685 1.34315 8.5 3 8.5C3.3231 8.5 3.63426 8.44892 3.92586 8.35441C4.04774 8.3149 4.18289 8.34663 4.27104 8.43961C5.18224 9.40064 6.47112 10 7.89998 10ZM11.805 7.10391C11.6329 6.97547 11.3674 7.00712 11.2498 7.18684C10.5356 8.27865 9.30203 9 7.89998 9C6.53223 9 5.32481 8.31351 4.60349 7.2663C4.49114 7.10319 4.25573 7.06925 4.08975 7.17731C3.77625 7.38141 3.40197 7.5 3 7.5C1.89543 7.5 1 6.60457 1 5.5C1 4.39543 1.89543 3.5 3 3.5C3.25671 3.5 3.50212 3.54836 3.72762 3.63648C3.9123 3.70864 4.13636 3.62762 4.2135 3.44496C4.82027 2.00827 6.24238 1 7.89998 1C9.58019 1 11.0184 2.03595 11.6108 3.50397C11.6913 3.70341 11.9462 3.78625 12.1403 3.69369C12.4007 3.56951 12.6922 3.5 13 3.5C14.1046 3.5 15 4.39543 15 5.5C15 6.60457 14.1046 7.5 13 7.5C12.552 7.5 12.1384 7.35271 11.805 7.10391Z" fill="black"/>
</svg>
