<svg width="16" height="16" viewBox="0 0 16 16" fill="none" xmlns="http://www.w3.org/2000/svg">
<path d="M1.94635 12.6254C2.0568 12.426 1.99125 12.171 1.79995 12.0559C1.60864 11.9408 1.36402 12.0091 1.25357 12.2085L0.053653 14.3746C-0.0567965 14.574 0.00874916 14.829 0.200053 14.9441C0.391358 15.0592 0.635978 14.9909 0.746427 14.7915L1.94635 12.6254Z" fill="black"/>
<path d="M4.74635 12.6254C4.8568 12.426 4.79125 12.171 4.59995 12.0559C4.40865 11.9408 4.16403 12.0091 4.05358 12.2085L2.85366 14.3746C2.74321 14.574 2.80875 14.829 3.00006 14.9441C3.19136 15.0592 3.43598 14.9909 3.54643 14.7915L4.74635 12.6254Z" fill="black"/>
<path d="M7.39995 12.0559C7.59125 12.171 7.6568 12.426 7.54635 12.6254L6.34643 14.7915C6.23598 14.9909 5.99136 15.0592 5.80005 14.9441C5.60875 14.829 5.5432 14.574 5.65365 14.3746L6.85357 12.2085C6.96402 12.0091 7.20864 11.9408 7.39995 12.0559Z" fill="black"/>
<path d="M13.1463 12.6254C13.2568 12.426 13.1912 12.171 12.9999 12.0559C12.8086 11.9408 12.564 12.0091 12.4536 12.2085L11.2536 14.3746C11.1432 14.574 11.2087 14.829 11.4001 14.9441C11.5914 15.0592 11.836 14.9909 11.9464 14.7915L13.1463 12.6254Z" fill="black"/>
<path d="M10.1999 12.0559C10.3913 12.171 10.4568 12.426 10.3463 12.6254L9.14643 14.7915C9.03598 14.9909 8.79136 15.0592 8.60005 14.9441C8.40875 14.829 8.34321 14.574 8.45365 14.3746L9.65357 12.2085C9.76402 12.0091 10.0086 11.9408 10.1999 12.0559Z" fill="black"/>
<path d="M15.9463 12.6254C16.0568 12.426 15.9913 12.171 15.7999 12.0559C15.6086 11.9408 15.364 12.0091 15.2536 12.2085L14.0537 14.3746C13.9432 14.574 14.0087 14.829 14.2001 14.9441C14.3914 15.0592 14.636 14.9909 14.7464 14.7915L15.9463 12.6254Z" fill="black"/>
<path d="M11.7274 8.21748C10.8102 9.3074 9.43597 10 7.89998 10C6.3941 10 5.04371 9.33429 4.12704 8.2811C3.77907 8.42226 3.39862 8.5 3 8.5C1.34315 8.5 0 7.15685 0 5.5C0 3.84315 1.34315 2.5 3 2.5C3.18474 2.5 3.36559 2.5167 3.5411 2.54867C4.39849 1.02737 6.02926 0 7.89998 0C9.78634 0 11.4287 1.04461 12.2802 2.58691C12.5108 2.53012 12.7519 2.5 13 2.5C14.6569 2.5 16 3.84315 16 5.5C16 7.15685 14.6569 8.5 13 8.5C12.545 8.5 12.1137 8.39872 11.7274 8.21748Z" fill="black"/>
</svg>
