<svg width="16" height="16" viewBox="0 0 16 16" fill="none" xmlns="http://www.w3.org/2000/svg">
<path d="M1.94635 12.6254C2.0568 12.426 1.99125 12.171 1.79995 12.0559C1.60864 11.9408 1.36402 12.0091 1.25357 12.2085L0.053653 14.3746C-0.0567965 14.574 0.00874916 14.829 0.200053 14.9441C0.391358 15.0592 0.635978 14.9909 0.746427 14.7915L1.94635 12.6254Z" fill="black"/>
<path d="M4.74635 12.6254C4.8568 12.426 4.79125 12.171 4.59995 12.0559C4.40865 11.9408 4.16403 12.0091 4.05358 12.2085L2.85366 14.3746C2.74321 14.574 2.80875 14.829 3.00006 14.9441C3.19136 15.0592 3.43598 14.9909 3.54643 14.7915L4.74635 12.6254Z" fill="black"/>
<path d="M7.39995 12.0559C7.59125 12.171 7.6568 12.426 7.54635 12.6254L6.34643 14.7915C6.23598 14.9909 5.99136 15.0592 5.80005 14.9441C5.60875 14.829 5.5432 14.574 5.65365 14.3746L6.85357 12.2085C6.96402 12.0091 7.20864 11.9408 7.39995 12.0559Z" fill="black"/>
<path d="M13.1463 12.6254C13.2568 12.426 13.1912 12.171 12.9999 12.0559C12.8086 11.9408 12.564 12.0091 12.4536 12.2085L11.2536 14.3746C11.1432 14.574 11.2087 14.829 11.4001 14.9441C11.5914 15.0592 11.836 14.9909 11.9464 14.7915L13.1463 12.6254Z" fill="black"/>
<path d="M10.1999 12.0559C10.3913 12.171 10.4568 12.426 10.3463 12.6254L9.14643 14.7915C9.03598 14.9909 8.79136 15.0592 8.60005 14.9441C8.40875 14.829 8.34321 14.574 8.45365 14.3746L9.65357 12.2085C9.76402 12.0091 10.0086 11.9408 10.1999 12.0559Z" fill="black"/>
<path d="M15.9463 12.6254C16.0568 12.426 15.9913 12.171 15.7999 12.0559C15.6086 11.9408 15.364 12.0091 15.2536 12.2085L14.0537 14.3746C13.9432 14.574 14.0087 14.829 14.2001 14.9441C14.3914 15.0592 14.636 14.9909 14.7464 14.7915L15.9463 12.6254Z" fill="black"/>
<path d="M7.89998 10C9.35312 10 10.6615 9.3801 11.575 8.39032C11.6672 8.29047 11.8124 8.25914 11.9395 8.30718C12.2692 8.4318 12.6267 8.5 13 8.5C14.6569 8.5 16 7.15685 16 5.5C16 3.84315 14.6569 2.5 13 2.5C12.8315 2.5 12.6663 2.51389 12.5053 2.54059C12.3715 2.56279 12.2354 2.50384 12.1645 2.38823C11.2852 0.955579 9.70416 0 7.89998 0C6.10565 0 4.53208 0.945171 3.64997 2.3648C3.58248 2.47342 3.45684 2.53181 3.32971 2.51791C3.22143 2.50607 3.11143 2.5 3 2.5C1.34315 2.5 0 3.84315 0 5.5C0 7.15685 1.34315 8.5 3 8.5C3.3231 8.5 3.63426 8.44892 3.92586 8.35441C4.04774 8.3149 4.18289 8.34663 4.27104 8.43961C5.18224 9.40064 6.47112 10 7.89998 10ZM11.805 7.10391C11.6329 6.97547 11.3674 7.00712 11.2498 7.18684C10.5356 8.27865 9.30203 9 7.89998 9C6.53223 9 5.32481 8.31351 4.60349 7.2663C4.49114 7.10319 4.25573 7.06925 4.08975 7.17731C3.77625 7.38141 3.40197 7.5 3 7.5C1.89543 7.5 1 6.60457 1 5.5C1 4.39543 1.89543 3.5 3 3.5C3.25671 3.5 3.50212 3.54836 3.72762 3.63648C3.9123 3.70864 4.13636 3.62762 4.2135 3.44496C4.82027 2.00827 6.24238 1 7.89998 1C9.58019 1 11.0184 2.03595 11.6108 3.50397C11.6913 3.70341 11.9462 3.78625 12.1403 3.69369C12.4007 3.56951 12.6922 3.5 13 3.5C14.1046 3.5 15 4.39543 15 5.5C15 6.60457 14.1046 7.5 13 7.5C12.552 7.5 12.1384 7.35271 11.805 7.10391Z" fill="black"/>
</svg>
