<svg width="16" height="16" viewBox="0 0 16 16" fill="none" xmlns="http://www.w3.org/2000/svg">
<path d="M1 9L2 10.5L1 12L0 10.5L1 9Z" fill="black"/>
<path d="M16 10.5L15 9L14 10.5L15 12L16 10.5Z" fill="black"/>
<path d="M9 14.5L8 13L7 14.5L8 16L9 14.5Z" fill="black"/>
<path d="M4.5 11L5.5 12.5L4.5 14L3.5 12.5L4.5 11Z" fill="black"/>
<path d="M12.5 12.5L11.5 11L10.5 12.5L11.5 14L12.5 12.5Z" fill="black"/>
<path d="M11.7274 8.21748C10.8102 9.3074 9.43597 10 7.89998 10C6.3941 10 5.04371 9.33429 4.12704 8.2811C3.77907 8.42226 3.39862 8.5 3 8.5C1.34315 8.5 0 7.15685 0 5.5C0 3.84315 1.34315 2.5 3 2.5C3.18474 2.5 3.36559 2.5167 3.5411 2.54867C4.39849 1.02737 6.02926 0 7.89998 0C9.78634 0 11.4287 1.04461 12.2802 2.58691C12.5108 2.53012 12.7519 2.5 13 2.5C14.6569 2.5 16 3.84315 16 5.5C16 7.15685 14.6569 8.5 13 8.5C12.545 8.5 12.1137 8.39872 11.7274 8.21748Z" fill="black"/>
</svg>
