<svg width="16" height="16" viewBox="0 0 16 16" fill="none" xmlns="http://www.w3.org/2000/svg">
<path d="M7.89998 10C9.35312 10 10.6615 9.3801 11.575 8.39032C11.6672 8.29047 11.8124 8.25914 11.9395 8.30718C12.2692 8.4318 12.6267 8.5 13 8.5C14.6569 8.5 16 7.15685 16 5.5C16 3.84315 14.6569 2.5 13 2.5C12.8315 2.5 12.6663 2.51389 12.5053 2.54059C12.3715 2.56279 12.2354 2.50384 12.1645 2.38823C11.2852 0.955579 9.70416 0 7.89998 0C6.10565 0 4.53208 0.945171 3.64997 2.3648C3.58248 2.47342 3.45684 2.53181 3.32971 2.51791C3.22143 2.50607 3.11143 2.5 3 2.5C1.34315 2.5 0 3.84315 0 5.5C0 7.15685 1.34315 8.5 3 8.5C3.3231 8.5 3.63426 8.44892 3.92586 8.35441C4.04774 8.3149 4.18289 8.34663 4.27104 8.43961C5.18224 9.40064 6.47112 10 7.89998 10ZM11.805 7.10391C11.6329 6.97547 11.3674 7.00712 11.2498 7.18684C10.5356 8.27865 9.30203 9 7.89998 9C6.53223 9 5.32481 8.31351 4.60349 7.2663C4.49114 7.10319 4.25573 7.06925 4.08975 7.17731C3.77625 7.38141 3.40197 7.5 3 7.5C1.89543 7.5 1 6.60457 1 5.5C1 4.39543 1.89543 3.5 3 3.5C3.25671 3.5 3.50212 3.54836 3.72762 3.63648C3.9123 3.70864 4.13636 3.62762 4.2135 3.44496C4.82027 2.00827 6.24238 1 7.89998 1C9.58019 1 11.0184 2.03595 11.6108 3.50397C11.6913 3.70341 11.9462 3.78625 12.1403 3.69369C12.4007 3.56951 12.6922 3.5 13 3.5C14.1046 3.5 15 4.39543 15 5.5C15 6.60457 14.1046 7.5 13 7.5C12.552 7.5 12.1384 7.35271 11.805 7.10391Z" fill="black"/>
<path d="M1 9L2 10.5L1 12L0 10.5L1 9Z" fill="black"/>
<path d="M16 10.5L15 9L14 10.5L15 12L16 10.5Z" fill="black"/>
<path d="M9 14.5L8 13L7 14.5L8 16L9 14.5Z" fill="black"/>
<path d="M4.5 11L5.5 12.5L4.5 14L3.5 12.5L4.5 11Z" fill="black"/>
<path d="M12.5 12.5L11.5 11L10.5 12.5L11.5 14L12.5 12.5Z" fill="black"/>
</svg>
