<svg width="16" height="16" viewBox="0 0 16 16" fill="none" xmlns="http://www.w3.org/2000/svg">
<path d="M9 11C9 11.2652 9.10536 11.5196 9.29289 11.7071C9.48043 11.8946 9.73478 12 10 12C10.2652 12 10.5196 11.8946 10.7071 11.7071C10.8946 11.5196 11 11.2652 11 11C11 10.5 10.4446 9.60499 10 9C9.55542 9.60499 9 10.5 9 11Z" fill="black"/>
<path d="M1.29289 12.7071C1.10536 12.5196 1 12.2652 1 12C1 11.5 1.55542 10.605 2 10C2.44458 10.605 3 11.5 3 12C3 12.2652 2.89464 12.5196 2.70711 12.7071C2.51957 12.8946 2.26522 13 2 13C1.73478 13 1.48043 12.8946 1.29289 12.7071Z" fill="black"/>
<path d="M4.29289 12.7071C4.10536 12.5196 4 12.2652 4 12C4 11.5 4.55542 10.605 5 10C5.44458 10.605 6 11.5 6 12C6 12.2652 5.89464 12.5196 5.70711 12.7071C5.51957 12.8946 5.26522 13 5 13C4.73478 13 4.48043 12.8946 4.29289 12.7071Z" fill="black"/>
<path d="M13.2929 11.7071C13.1054 11.5196 13 11.2652 13 11C13 10.5 13.5554 9.60499 14 9C14.4446 9.60499 15 10.5 15 11C15 11.2652 14.8946 11.5196 14.7071 11.7071C14.5196 11.8946 14.2652 12 14 12C13.7348 12 13.4804 11.8946 13.2929 11.7071Z" fill="black"/>
<path d="M11 14C11 14.2652 11.1054 14.5196 11.2929 14.7071C11.4804 14.8946 11.7348 15 12 15C12.2652 15 12.5196 14.8946 12.7071 14.7071C12.8946 14.5196 13 14.2652 13 14C13 13.5 12.4446 12.605 12 12C11.5554 12.605 11 13.5 11 14Z" fill="black"/>
<path d="M7.85705 0C7.64184 0 7.45077 0.137715 7.38271 0.341886L7.21604 0.841886C7.1946 0.906218 7.18693 0.970968 7.19109 1.03343C3.46247 1.34329 0.481342 3.77229 0.00186237 6.85651C-0.0317389 7.07265 0.397967 7.25041 0.593853 7.14003C1.00612 6.90772 1.64923 6.69549 2.62294 6.69549C3.98171 6.69549 4.69668 7.10877 5.039 7.41316C5.16922 7.52895 5.45372 7.52895 5.58394 7.41316C5.87836 7.15137 6.44843 6.80902 7.46667 6.71833V15.4667C7.46667 15.7612 7.70546 16 8.00001 16C8.29456 16 8.53334 15.7612 8.53334 15.4667V6.71834C9.55157 6.80902 10.1216 7.15137 10.4161 7.41316C10.5463 7.52895 10.8308 7.52895 10.961 7.41316C11.3033 7.10877 12.0183 6.69549 13.3771 6.69549C14.3508 6.69549 14.9939 6.90772 15.4061 7.14003C15.602 7.25041 16.0317 7.07265 15.9981 6.85651C15.5184 3.77047 12.534 1.34042 8.80229 1.03288C8.80637 0.97059 8.79868 0.90603 8.7773 0.841886L8.61063 0.341886C8.54258 0.137715 8.35151 0 8.13629 0H7.85705Z" fill="black"/>
</svg>
