<svg width="16" height="16" viewBox="0 0 16 16" fill="none" xmlns="http://www.w3.org/2000/svg">
<path d="M9 11C9 11.2652 9.10536 11.5196 9.29289 11.7071C9.48043 11.8946 9.73478 12 10 12C10.2652 12 10.5196 11.8946 10.7071 11.7071C10.8946 11.5196 11 11.2652 11 11C11 10.5 10.4446 9.60499 10 9C9.55542 9.60499 9 10.5 9 11Z" fill="black"/>
<path d="M1.29289 12.7071C1.10536 12.5196 1 12.2652 1 12C1 11.5 1.55542 10.605 2 10C2.44458 10.605 3 11.5 3 12C3 12.2652 2.89464 12.5196 2.70711 12.7071C2.51957 12.8946 2.26522 13 2 13C1.73478 13 1.48043 12.8946 1.29289 12.7071Z" fill="black"/>
<path d="M4.29289 12.7071C4.10536 12.5196 4 12.2652 4 12C4 11.5 4.55542 10.605 5 10C5.44458 10.605 6 11.5 6 12C6 12.2652 5.89464 12.5196 5.70711 12.7071C5.51957 12.8946 5.26522 13 5 13C4.73478 13 4.48043 12.8946 4.29289 12.7071Z" fill="black"/>
<path d="M13.2929 11.7071C13.1054 11.5196 13 11.2652 13 11C13 10.5 13.5554 9.60499 14 9C14.4446 9.60499 15 10.5 15 11C15 11.2652 14.8946 11.5196 14.7071 11.7071C14.5196 11.8946 14.2652 12 14 12C13.7348 12 13.4804 11.8946 13.2929 11.7071Z" fill="black"/>
<path d="M11 14C11 14.2652 11.1054 14.5196 11.2929 14.7071C11.4804 14.8946 11.7348 15 12 15C12.2652 15 12.5196 14.8946 12.7071 14.7071C12.8946 14.5196 13 14.2652 13 14C13 13.5 12.4446 12.605 12 12C11.5554 12.605 11 13.5 11 14Z" fill="black"/>
<path d="M7.38604 0.341886C7.45409 0.137715 7.64516 0 7.86038 0H8.13962C8.35483 0 8.5459 0.137715 8.61396 0.341886L8.78063 0.841886C8.78669 0.860081 8.79166 0.878309 8.79556 0.896509C10.6513 1.03644 12.3313 1.66125 13.6036 2.61685C15.0556 3.70745 16 5.25206 16 7C16 7.19576 15.8858 7.37351 15.7077 7.45483C15.5302 7.53586 15.3219 7.50626 15.1741 7.37919L10.8259 7.37919L10.827 7.37828L15.1728 7.37807L15.1701 7.37588C15.1656 7.37218 15.1575 7.36557 15.1459 7.35648C15.1226 7.33827 15.0855 7.3102 15.0354 7.27548C14.935 7.20589 14.7842 7.11061 14.5906 7.01473C14.202 6.82229 13.6534 6.63334 13 6.63334C12.3466 6.63334 11.798 6.82229 11.4094 7.01473C11.2158 7.11061 11.065 7.20589 10.9646 7.27548C10.9145 7.3102 10.8774 7.33827 10.8541 7.35648C10.8425 7.36557 10.8344 7.37218 10.8299 7.37588L10.827 7.37828L10.1729 7.37819L10.1701 7.37588C10.1656 7.37218 10.1575 7.36557 10.1459 7.35648C10.1226 7.33827 10.0855 7.3102 10.0354 7.27548C9.93505 7.20589 9.7842 7.11061 9.5906 7.01473C9.30579 6.87368 8.935 6.73451 8.5 6.67023V7.37822L10.1729 7.37819L10.1741 7.37919L8.5 7.37822V15.5C8.5 15.7761 8.27614 16 8 16C7.72386 16 7.5 15.7761 7.5 15.5V7.37919L0.825913 7.37919C0.678071 7.50626 0.469764 7.53586 0.292314 7.45483C0.114241 7.37351 0 7.19576 0 7C0 5.25206 0.944434 3.70745 2.39641 2.61685C3.66866 1.66125 5.3487 1.03644 7.20444 0.896509C7.20834 0.878309 7.21331 0.860081 7.21937 0.841886L7.38604 0.341886ZM7.5 7.37919V6.67023C7.065 6.73451 6.69421 6.87368 6.4094 7.01473C6.2158 7.11061 6.06495 7.20589 5.96458 7.27548C5.91451 7.3102 5.87735 7.33827 5.8541 7.35648C5.84248 7.36557 5.83437 7.37218 5.82988 7.37588L5.82699 7.37828L7.5 7.37919ZM3 5.63334C3.80656 5.63334 4.48129 5.85514 4.96393 6.08442C4.98389 5.47987 5.08228 4.77364 5.31163 4.06239C5.5405 3.3526 5.90423 2.62582 6.4598 1.99199C5.11355 2.2149 3.92036 2.72286 2.99698 3.41642C2.03521 4.13882 1.37985 5.04914 1.12222 6.04453C1.59764 5.83009 2.24035 5.63334 3 5.63334ZM6.26337 4.36928C6.06402 4.9875 5.98022 5.60241 5.96329 6.11975L5.9656 6.1186C6.45202 5.87771 7.15339 5.63334 8 5.63334C8.84661 5.63334 9.54798 5.87771 10.0344 6.1186L10.0367 6.11975C10.0198 5.60241 9.93598 4.9875 9.73663 4.36928C9.44364 3.46067 8.91097 2.5718 8 1.95608C7.08903 2.5718 6.55636 3.46067 6.26337 4.36928ZM13 5.63334C13.7596 5.63334 14.4024 5.83009 14.8778 6.04453C14.6201 5.04914 13.9648 4.13882 13.003 3.41642C12.0796 2.72286 10.8864 2.2149 9.5402 1.99199C10.0958 2.62582 10.4595 3.3526 10.6884 4.06239C10.9177 4.77364 11.0161 5.47987 11.0361 6.08442C11.5187 5.85514 12.1934 5.63334 13 5.63334ZM0.829879 7.37588L0.825913 7.37919L5.17406 7.37917L5.17012 7.37588C5.16563 7.37218 5.15752 7.36557 5.1459 7.35648C5.12265 7.33827 5.08549 7.3102 5.03542 7.27548C4.93505 7.20589 4.7842 7.11061 4.5906 7.01473C4.20202 6.82229 3.65339 6.63334 3 6.63334C2.34661 6.63334 1.79798 6.82229 1.4094 7.01473C1.2158 7.11061 1.06495 7.20589 0.964577 7.27548C0.914506 7.3102 0.877354 7.33827 0.854098 7.35648C0.842481 7.36557 0.834367 7.37218 0.829879 7.37588ZM5.17406 7.37917C5.36146 7.54027 5.63858 7.54023 5.82598 7.37913L5.17406 7.37917Z" fill="black"/>
<path d="M10.1741 7.37919H10.8259C10.6385 7.54027 10.3615 7.54027 10.1741 7.37919Z" fill="black"/>
</svg>
