<svg width="16" height="16" viewBox="0 0 16 16" fill="none" xmlns="http://www.w3.org/2000/svg">
<path d="M10.2929 11.2071C10.1054 11.0196 10 10.7652 10 10.5C10 10 10.5554 9.10499 11 8.5C11.4446 9.10499 12 10 12 10.5C12 10.7652 11.8946 11.0196 11.7071 11.2071C11.5196 11.3946 11.2652 11.5 11 11.5C10.7348 11.5 10.4804 11.3946 10.2929 11.2071Z" fill="black"/>
<path d="M1.29289 11.7071C1.10536 11.5196 1 11.2652 1 11C1 10.5 1.55542 9.60499 2 9C2.44458 9.60499 3 10.5 3 11C3 11.2652 2.89464 11.5196 2.70711 11.7071C2.51957 11.8946 2.26522 12 2 12C1.73478 12 1.48043 11.8946 1.29289 11.7071Z" fill="black"/>
<path d="M5.29289 11.7071C5.10536 11.5196 5 11.2652 5 11C5 10.5 5.55542 9.60499 6 9C6.44458 9.60499 7 10.5 7 11C7 11.2652 6.89464 11.5196 6.70711 11.7071C6.51957 11.8946 6.26522 12 6 12C5.73478 12 5.48043 11.8946 5.29289 11.7071Z" fill="black"/>
<path d="M3 14C3 14.2652 3.10536 14.5196 3.29289 14.7071C3.48043 14.8946 3.73478 15 4 15C4.26522 15 4.51957 14.8946 4.70711 14.7071C4.89464 14.5196 5 14.2652 5 14C5 13.5 4.44458 12.605 4 12C3.55542 12.605 3 13.5 3 14Z" fill="black"/>
<path d="M13 10.5C13 10.7652 13.1054 11.0196 13.2929 11.2071C13.4804 11.3946 13.7348 11.5 14 11.5C14.2652 11.5 14.5196 11.3946 14.7071 11.2071C14.8946 11.0196 15 10.7652 15 10.5C15 10 14.4446 9.10499 14 8.5C13.5554 9.10499 13 10 13 10.5Z" fill="black"/>
<path d="M13.2929 15.2071C13.1054 15.0196 13 14.7652 13 14.5C13 14 13.5554 13.105 14 12.5C14.4446 13.105 15 14 15 14.5C15 14.7652 14.8946 15.0196 14.7071 15.2071C14.5196 15.3946 14.2652 15.5 14 15.5C13.7348 15.5 13.4804 15.3946 13.2929 15.2071Z" fill="black"/>
<path d="M10 14.5C10 14.7652 10.1054 15.0196 10.2929 15.2071C10.4804 15.3946 10.7348 15.5 11 15.5C11.2652 15.5 11.5196 15.3946 11.7071 15.2071C11.8946 15.0196 12 14.7652 12 14.5C12 14 11.4446 13.105 11 12.5C10.5554 13.105 10 14 10 14.5Z" fill="black"/>
<path d="M7.85705 0C7.64184 0 7.45077 0.137715 7.38271 0.341886L7.21604 0.841886C7.1946 0.906218 7.18693 0.970968 7.19109 1.03343C3.46247 1.34329 0.481342 3.77229 0.00186237 6.85651C-0.0317389 7.07265 0.397967 7.25041 0.593853 7.14003C1.00612 6.90772 1.64923 6.69549 2.62294 6.69549C3.98171 6.69549 4.69668 7.10877 5.039 7.41316C5.16922 7.52895 5.45372 7.52895 5.58394 7.41316C5.87836 7.15137 6.44843 6.80902 7.46667 6.71833V15.4667C7.46667 15.7612 7.70546 16 8.00001 16C8.29456 16 8.53334 15.7612 8.53334 15.4667V6.71834C9.55157 6.80902 10.1216 7.15137 10.4161 7.41316C10.5463 7.52895 10.8308 7.52895 10.961 7.41316C11.3033 7.10877 12.0183 6.69549 13.3771 6.69549C14.3508 6.69549 14.9939 6.90772 15.4061 7.14003C15.602 7.25041 16.0317 7.07265 15.9981 6.85651C15.5184 3.77047 12.534 1.34042 8.80229 1.03288C8.80637 0.97059 8.79868 0.90603 8.7773 0.841886L8.61063 0.341886C8.54258 0.137715 8.35151 0 8.13629 0H7.85705Z" fill="black"/>
</svg>
