<svg width="16" height="16" viewBox="0 0 16 16" fill="none" xmlns="http://www.w3.org/2000/svg">
<path d="M1.29289 10.7071C1.10536 10.5196 1 10.2652 1 10C1 9.5 1.55542 8.60499 2 8C2.44458 8.60499 3 9.5 3 10C3 10.2652 2.89464 10.5196 2.70711 10.7071C2.51957 10.8946 2.26522 11 2 11C1.73478 11 1.48043 10.8946 1.29289 10.7071Z" fill="black"/>
<path d="M9.29289 10.7071C9.10536 10.5196 9 10.2652 9 10C9 9.5 9.55542 8.60499 10 8C10.4446 8.60499 11 9.5 11 10C11 10.2652 10.8946 10.5196 10.7071 10.7071C10.5196 10.8946 10.2652 11 10 11C9.73478 11 9.48043 10.8946 9.29289 10.7071Z" fill="black"/>
<path d="M11.7929 10.7071C11.6054 10.5196 11.5 10.2652 11.5 10C11.5 9.5 12.0554 8.60499 12.5 8C12.9446 8.60499 13.5 9.5 13.5 10C13.5 10.2652 13.3946 10.5196 13.2071 10.7071C13.0196 10.8946 12.7652 11 12.5 11C12.2348 11 11.9804 10.8946 11.7929 10.7071Z" fill="black"/>
<path d="M14 10C14 10.2652 14.1054 10.5196 14.2929 10.7071C14.4804 10.8946 14.7348 11 15 11C15.2652 11 15.5196 10.8946 15.7071 10.7071C15.8946 10.5196 16 10.2652 16 10C16 9.5 15.4446 8.60499 15 8C14.5554 8.60499 14 9.5 14 10Z" fill="black"/>
<path d="M13.2929 14.7071C13.1054 14.5196 13 14.2652 13 14C13 13.5 13.5554 12.605 14 12C14.4446 12.605 15 13.5 15 14C15 14.2652 14.8946 14.5196 14.7071 14.7071C14.5196 14.8946 14.2652 15 14 15C13.7348 15 13.4804 14.8946 13.2929 14.7071Z" fill="black"/>
<path d="M10 14C10 14.2652 10.1054 14.5196 10.2929 14.7071C10.4804 14.8946 10.7348 15 11 15C11.2652 15 11.5196 14.8946 11.7071 14.7071C11.8946 14.5196 12 14.2652 12 14C12 13.5 11.4446 12.605 11 12C10.5554 12.605 10 13.5 10 14Z" fill="black"/>
<path d="M4 10C4 10.2652 4.10536 10.5196 4.29289 10.7071C4.48043 10.8946 4.73478 11 5 11C5.26522 11 5.51957 10.8946 5.70711 10.7071C5.89464 10.5196 6 10.2652 6 10C6 9.5 5.44458 8.60499 5 8C4.55542 8.60499 4 9.5 4 10Z" fill="black"/>
<path d="M4.29289 14.7071C4.10536 14.5196 4 14.2652 4 14C4 13.5 4.55542 12.605 5 12C5.44458 12.605 6 13.5 6 14C6 14.2652 5.89464 14.5196 5.70711 14.7071C5.51957 14.8946 5.26522 15 5 15C4.73478 15 4.48043 14.8946 4.29289 14.7071Z" fill="black"/>
<path d="M1 14C1 14.2652 1.10536 14.5196 1.29289 14.7071C1.48043 14.8946 1.73478 15 2 15C2.26522 15 2.51957 14.8946 2.70711 14.7071C2.89464 14.5196 3 14.2652 3 14C3 13.5 2.44458 12.605 2 12C1.55542 12.605 1 13.5 1 14Z" fill="black"/>
<path d="M7.85705 0C7.64184 0 7.45077 0.137715 7.38271 0.341886L7.21604 0.841886C7.1946 0.906218 7.18693 0.970968 7.19109 1.03343C3.46247 1.34329 0.481342 3.77229 0.00186237 6.85651C-0.0317389 7.07265 0.397967 7.25041 0.593853 7.14003C1.00612 6.90772 1.64923 6.69549 2.62294 6.69549C3.98171 6.69549 4.69668 7.10877 5.039 7.41316C5.16922 7.52895 5.45372 7.52895 5.58394 7.41316C5.87836 7.15137 6.44843 6.80902 7.46667 6.71833V15.4667C7.46667 15.7612 7.70546 16 8.00001 16C8.29456 16 8.53334 15.7612 8.53334 15.4667V6.71834C9.55157 6.80902 10.1216 7.15137 10.4161 7.41316C10.5463 7.52895 10.8308 7.52895 10.961 7.41316C11.3033 7.10877 12.0183 6.69549 13.3771 6.69549C14.3508 6.69549 14.9939 6.90772 15.4061 7.14003C15.602 7.25041 16.0317 7.07265 15.9981 6.85651C15.5184 3.77047 12.534 1.34042 8.80229 1.03288C8.80637 0.97059 8.79868 0.90603 8.7773 0.841886L8.61063 0.341886C8.54258 0.137715 8.35151 0 8.13629 0H7.85705Z" fill="black"/>
</svg>
