<svg width="16" height="16" viewBox="0 0 16 16" fill="none" xmlns="http://www.w3.org/2000/svg">
<path d="M1 8.5C1 8.22386 1.22386 8 1.5 8C1.77614 8 2 8.22386 2 8.5V10.5C2 10.7761 1.77614 11 1.5 11C1.22386 11 1 10.7761 1 10.5V8.5Z" fill="black"/>
<path d="M3 8.5C3 8.22386 3.22386 8 3.5 8C3.77614 8 4 8.22386 4 8.5V10.5C4 10.7761 3.77614 11 3.5 11C3.22386 11 3 10.7761 3 10.5V8.5Z" fill="black"/>
<path d="M5.5 8C5.22386 8 5 8.22386 5 8.5V10.5C5 10.7761 5.22386 11 5.5 11C5.77614 11 6 10.7761 6 10.5V8.5C6 8.22386 5.77614 8 5.5 8Z" fill="black"/>
<path d="M4 12.5C4 12.2239 4.22386 12 4.5 12C4.77614 12 5 12.2239 5 12.5V14.5C5 14.7761 4.77614 15 4.5 15C4.22386 15 4 14.7761 4 14.5V12.5Z" fill="black"/>
<path d="M2.5 12C2.22386 12 2 12.2239 2 12.5V14.5C2 14.7761 2.22386 15 2.5 15C2.77614 15 3 14.7761 3 14.5V12.5C3 12.2239 2.77614 12 2.5 12Z" fill="black"/>
<path d="M10 8.5C10 8.22386 10.2239 8 10.5 8C10.7761 8 11 8.22386 11 8.5V10.5C11 10.7761 10.7761 11 10.5 11C10.2239 11 10 10.7761 10 10.5V8.5Z" fill="black"/>
<path d="M12.5 8C12.2239 8 12 8.22386 12 8.5V10.5C12 10.7761 12.2239 11 12.5 11C12.7761 11 13 10.7761 13 10.5V8.5C13 8.22386 12.7761 8 12.5 8Z" fill="black"/>
<path d="M14 8.5C14 8.22386 14.2239 8 14.5 8C14.7761 8 15 8.22386 15 8.5V10.5C15 10.7761 14.7761 11 14.5 11C14.2239 11 14 10.7761 14 10.5V8.5Z" fill="black"/>
<path d="M14.5 12C14.2239 12 14 12.2239 14 12.5V14.5C14 14.7761 14.2239 15 14.5 15C14.7761 15 15 14.7761 15 14.5V12.5C15 12.2239 14.7761 12 14.5 12Z" fill="black"/>
<path d="M10 12.5C10 12.2239 10.2239 12 10.5 12C10.7761 12 11 12.2239 11 12.5V14.5C11 14.7761 10.7761 15 10.5 15C10.2239 15 10 14.7761 10 14.5V12.5Z" fill="black"/>
<path d="M12.5 12C12.2239 12 12 12.2239 12 12.5V14.5C12 14.7761 12.2239 15 12.5 15C12.7761 15 13 14.7761 13 14.5V12.5C13 12.2239 12.7761 12 12.5 12Z" fill="black"/>
<path d="M7.85705 0C7.64184 0 7.45077 0.137715 7.38271 0.341886L7.21604 0.841886C7.1946 0.906218 7.18693 0.970968 7.19109 1.03343C3.46247 1.34329 0.481342 3.77229 0.00186237 6.85651C-0.0317389 7.07265 0.397967 7.25041 0.593853 7.14003C1.00612 6.90772 1.64923 6.69549 2.62294 6.69549C3.98171 6.69549 4.69668 7.10877 5.039 7.41316C5.16922 7.52895 5.45372 7.52895 5.58394 7.41316C5.87836 7.15137 6.44843 6.80902 7.46667 6.71833V15.4667C7.46667 15.7612 7.70546 16 8.00001 16C8.29456 16 8.53334 15.7612 8.53334 15.4667V6.71834C9.55157 6.80902 10.1216 7.15137 10.4161 7.41316C10.5463 7.52895 10.8308 7.52895 10.961 7.41316C11.3033 7.10877 12.0183 6.69549 13.3771 6.69549C14.3508 6.69549 14.9939 6.90772 15.4061 7.14003C15.602 7.25041 16.0317 7.07265 15.9981 6.85651C15.5184 3.77047 12.534 1.34042 8.80229 1.03288C8.80637 0.97059 8.79868 0.90603 8.7773 0.841886L8.61063 0.341886C8.54258 0.137715 8.35151 0 8.13629 0H7.85705Z" fill="black"/>
</svg>
