<svg width="16" height="16" viewBox="0 0 16 16" fill="none" xmlns="http://www.w3.org/2000/svg">
<path d="M1 11C1 12.0609 1.42143 13.0783 2.17157 13.8284C2.92172 14.5786 3.93913 15 5 15C6.06087 15 7.07828 14.5786 7.82843 13.8284C8.57857 13.0783 9 12.0609 9 11C9 10.5407 8.86809 9.91688 8.59063 9.1474C8.31742 8.38969 7.92425 7.54786 7.45268 6.67014C6.73641 5.33699 5.85949 3.95836 5 2.72034C4.14051 3.95836 3.26359 5.33699 2.54732 6.67014C2.07575 7.54786 1.68258 8.38969 1.40937 9.1474C1.13191 9.91688 1 10.5407 1 11ZM4.38545 1.8542C4.59319 1.55929 4.79887 1.27371 5 1C5.20113 1.27371 5.40681 1.55929 5.61455 1.8542C7.70272 4.81861 10 8.72621 10 11C10 12.3261 9.47321 13.5979 8.53553 14.5355C7.59785 15.4732 6.32608 16 5 16C3.67392 16 2.40215 15.4732 1.46447 14.5355C0.526786 13.5979 0 12.3261 0 11C0 8.72621 2.29728 4.81861 4.38545 1.8542Z" fill="black"/>
<path d="M10.8 5.33333C10.8 5.14903 10.8621 4.86063 11.0225 4.46509C11.1785 4.08057 11.4062 3.64598 11.6845 3.18548C12.0693 2.54882 12.5343 1.88994 13 1.2835C13.4657 1.88994 13.9307 2.54882 14.3155 3.18548C14.5938 3.64598 14.8215 4.08057 14.9775 4.46509C15.1379 4.86063 15.2 5.14903 15.2 5.33333C15.2 5.79596 14.9941 6.2617 14.5898 6.62103C14.1825 6.98308 13.6119 7.2 13 7.2C12.3881 7.2 11.8175 6.98308 11.4102 6.62103C11.0059 6.2617 10.8 5.79596 10.8 5.33333ZM12.4883 0.637443C11.2759 2.19332 10 4.16661 10 5.33333C10 6.04058 10.3161 6.71886 10.8787 7.21895C11.4413 7.71905 12.2044 8 13 8C13.7956 8 14.5587 7.71905 15.1213 7.21895C15.6839 6.71886 16 6.04058 16 5.33333C16 4.16661 14.7241 2.19332 13.5117 0.637443C13.3385 0.415262 13.1667 0.201593 13 0C12.8333 0.201593 12.6615 0.415262 12.4883 0.637443Z" fill="black"/>
</svg>
