<svg width="16" height="16" viewBox="0 0 16 16" fill="none" xmlns="http://www.w3.org/2000/svg">
<path d="M5.50099 12C5.30769 12 5.15099 12.1567 5.15099 12.35V12.8938L4.68006 12.6219C4.51266 12.5252 4.2986 12.5826 4.20195 12.75C4.1053 12.9174 4.16266 13.1315 4.33006 13.2281L4.80099 13.5L4.33006 13.7719C4.16266 13.8685 4.1053 14.0826 4.20195 14.25C4.2986 14.4174 4.51266 14.4748 4.68006 14.3781L5.15099 14.1062V14.65C5.15099 14.8433 5.30769 15 5.50099 15C5.69429 15 5.85099 14.8433 5.85099 14.65V14.1062L6.32192 14.3781C6.48932 14.4748 6.70338 14.4174 6.80003 14.25C6.89668 14.0826 6.83932 13.8685 6.67192 13.7719L6.20099 13.5L6.67192 13.2281C6.83932 13.1315 6.89668 12.9174 6.80002 12.75C6.70338 12.5826 6.48932 12.5252 6.32192 12.6219L5.85099 12.8938V12.35C5.85099 12.1567 5.69429 12 5.50099 12Z" fill="black"/>
<path d="M10.501 12C10.3077 12 10.151 12.1567 10.151 12.35V12.8938L9.68006 12.6219C9.51266 12.5252 9.2986 12.5826 9.20195 12.75C9.1053 12.9174 9.16266 13.1315 9.33006 13.2281L9.80099 13.5L9.33006 13.7719C9.16266 13.8685 9.1053 14.0826 9.20195 14.25C9.2986 14.4174 9.51266 14.4748 9.68006 14.3781L10.151 14.1062V14.65C10.151 14.8433 10.3077 15 10.501 15C10.6943 15 10.851 14.8433 10.851 14.65V14.1062L11.3219 14.3781C11.4893 14.4748 11.7034 14.4174 11.8 14.25C11.8967 14.0826 11.8393 13.8685 11.6719 13.7719L11.201 13.5L11.6719 13.2281C11.8393 13.1315 11.8967 12.9174 11.8 12.75C11.7034 12.5826 11.4893 12.5252 11.3219 12.6219L10.851 12.8938V12.35C10.851 12.1567 10.6943 12 10.501 12Z" fill="black"/>
<path d="M11.7274 8.21748C10.8102 9.3074 9.43597 10 7.89998 10C6.3941 10 5.04371 9.33429 4.12704 8.2811C3.77907 8.42226 3.39862 8.5 3 8.5C1.34315 8.5 0 7.15685 0 5.5C0 3.84315 1.34315 2.5 3 2.5C3.18474 2.5 3.36559 2.5167 3.5411 2.54867C4.39849 1.02737 6.02926 0 7.89998 0C9.78634 0 11.4287 1.04461 12.2802 2.58691C12.5108 2.53012 12.7519 2.5 13 2.5C14.6569 2.5 16 3.84315 16 5.5C16 7.15685 14.6569 8.5 13 8.5C12.545 8.5 12.1137 8.39872 11.7274 8.21748Z" fill="black"/>
</svg>
