<svg width="16" height="16" viewBox="0 0 16 16" fill="none" xmlns="http://www.w3.org/2000/svg">
<path d="M3.15099 11.35C3.15099 11.1567 3.30769 11 3.50099 11C3.69429 11 3.85099 11.1567 3.85099 11.35V11.8938L4.32192 11.6219C4.48932 11.5252 4.70337 11.5826 4.80002 11.75C4.89667 11.9174 4.83932 12.1315 4.67191 12.2281L4.20099 12.5L4.67192 12.7719C4.83932 12.8685 4.89667 13.0826 4.80003 13.25C4.70337 13.4174 4.48932 13.4748 4.32192 13.3781L3.85099 13.1062V13.65C3.85099 13.8433 3.69429 14 3.50099 14C3.30769 14 3.15099 13.8433 3.15099 13.65V13.1062L2.68006 13.3781C2.51266 13.4748 2.2986 13.4174 2.20195 13.25C2.1053 13.0826 2.16265 12.8685 2.33006 12.7719L2.80099 12.5L2.33006 12.2281C2.16265 12.1315 2.1053 11.9174 2.20195 11.75C2.2986 11.5826 2.51266 11.5252 2.68006 11.6219L3.15099 11.8938V11.35Z" fill="black"/>
<path d="M12.151 11.35C12.151 11.1567 12.3077 11 12.501 11C12.6943 11 12.851 11.1567 12.851 11.35V11.8938L13.3219 11.6219C13.4893 11.5252 13.7034 11.5826 13.8 11.75C13.8967 11.9174 13.8393 12.1315 13.6719 12.2281L13.201 12.5L13.6719 12.7719C13.8393 12.8685 13.8967 13.0826 13.8 13.25C13.7034 13.4174 13.4893 13.4748 13.3219 13.3781L12.851 13.1062V13.65C12.851 13.8433 12.6943 14 12.501 14C12.3077 14 12.151 13.8433 12.151 13.65V13.1062L11.6801 13.3781C11.5127 13.4748 11.2986 13.4174 11.2019 13.25C11.1053 13.0826 11.1627 12.8685 11.3301 12.7719L11.801 12.5L11.3301 12.2281C11.1627 12.1315 11.1053 11.9174 11.2019 11.75C11.2986 11.5826 11.5127 11.5252 11.6801 11.6219L12.151 11.8938V11.35Z" fill="black"/>
<path d="M8.00099 13C7.80769 13 7.65099 13.1567 7.65099 13.35V13.8938L7.18006 13.6219C7.01266 13.5252 6.7986 13.5826 6.70195 13.75C6.6053 13.9174 6.66265 14.1315 6.83006 14.2281L7.30099 14.5L6.83006 14.7719C6.66265 14.8685 6.6053 15.0826 6.70195 15.25C6.7986 15.4174 7.01266 15.4748 7.18006 15.3781L7.65099 15.1062V15.65C7.65099 15.8433 7.80769 16 8.00099 16C8.19429 16 8.35099 15.8433 8.35099 15.65V15.1062L8.82192 15.3781C8.98932 15.4748 9.20337 15.4174 9.30003 15.25C9.39668 15.0826 9.33932 14.8685 9.17192 14.7719L8.70099 14.5L9.17192 14.2281C9.33932 14.1315 9.39668 13.9174 9.30002 13.75C9.20337 13.5826 8.98932 13.5252 8.82192 13.6219L8.35099 13.8938V13.35C8.35099 13.1567 8.19429 13 8.00099 13Z" fill="black"/>
<path d="M11.7274 8.21748C10.8102 9.3074 9.43597 10 7.89998 10C6.3941 10 5.04371 9.33429 4.12704 8.2811C3.77907 8.42226 3.39862 8.5 3 8.5C1.34315 8.5 0 7.15685 0 5.5C0 3.84315 1.34315 2.5 3 2.5C3.18474 2.5 3.36559 2.5167 3.5411 2.54867C4.39849 1.02737 6.02926 0 7.89998 0C9.78634 0 11.4287 1.04461 12.2802 2.58691C12.5108 2.53012 12.7519 2.5 13 2.5C14.6569 2.5 16 3.84315 16 5.5C16 7.15685 14.6569 8.5 13 8.5C12.545 8.5 12.1137 8.39872 11.7274 8.21748Z" fill="black"/>
</svg>
