<svg width="16" height="16" viewBox="0 0 16 16" fill="none" xmlns="http://www.w3.org/2000/svg">
<path d="M1.50099 10C1.30769 10 1.15099 10.1567 1.15099 10.35V10.8938L0.680057 10.6219C0.512655 10.5252 0.298599 10.5826 0.201948 10.75C0.105299 10.9174 0.162655 11.1315 0.330057 11.2281L0.800985 11.5L0.330057 11.7719C0.162655 11.8685 0.105299 12.0826 0.201948 12.25C0.298599 12.4174 0.512655 12.4748 0.680057 12.3781L1.15099 12.1062V12.65C1.15099 12.8433 1.30769 13 1.50099 13C1.69429 13 1.85099 12.8433 1.85099 12.65V12.1062L2.32192 12.3781C2.48932 12.4748 2.70337 12.4174 2.80003 12.25C2.89667 12.0826 2.83932 11.8685 2.67192 11.7719L2.20099 11.5L2.67191 11.2281C2.83932 11.1315 2.89667 10.9174 2.80002 10.75C2.70337 10.5826 2.48932 10.5252 2.32192 10.6219L1.85099 10.8938V10.35C1.85099 10.1567 1.69429 10 1.50099 10Z" fill="black"/>
<path d="M14.151 10.35C14.151 10.1567 14.3077 10 14.501 10C14.6943 10 14.851 10.1567 14.851 10.35V10.8938L15.3219 10.6219C15.4893 10.5252 15.7034 10.5826 15.8 10.75C15.8967 10.9174 15.8393 11.1315 15.6719 11.2281L15.201 11.5L15.6719 11.7719C15.8393 11.8685 15.8967 12.0826 15.8 12.25C15.7034 12.4174 15.4893 12.4748 15.3219 12.3781L14.851 12.1062V12.65C14.851 12.8433 14.6943 13 14.501 13C14.3077 13 14.151 12.8433 14.151 12.65V12.1062L13.6801 12.3781C13.5127 12.4748 13.2986 12.4174 13.2019 12.25C13.1053 12.0826 13.1627 11.8685 13.3301 11.7719L13.801 11.5L13.3301 11.2281C13.1627 11.1315 13.1053 10.9174 13.2019 10.75C13.2986 10.5826 13.5127 10.5252 13.6801 10.6219L14.151 10.8938V10.35Z" fill="black"/>
<path d="M7.65099 13.35C7.65099 13.1567 7.80769 13 8.00099 13C8.19429 13 8.35099 13.1567 8.35099 13.35V13.8938L8.82192 13.6219C8.98932 13.5252 9.20337 13.5826 9.30002 13.75C9.39668 13.9174 9.33932 14.1315 9.17192 14.2281L8.70099 14.5L9.17192 14.7719C9.33932 14.8685 9.39668 15.0826 9.30003 15.25C9.20337 15.4174 8.98932 15.4748 8.82192 15.3781L8.35099 15.1062V15.65C8.35099 15.8433 8.19429 16 8.00099 16C7.80769 16 7.65099 15.8433 7.65099 15.65V15.1062L7.18006 15.3781C7.01265 15.4748 6.7986 15.4174 6.70195 15.25C6.6053 15.0826 6.66265 14.8685 6.83006 14.7719L7.30098 14.5L6.83006 14.2281C6.66265 14.1315 6.6053 13.9174 6.70195 13.75C6.7986 13.5826 7.01265 13.5252 7.18006 13.6219L7.65099 13.8938V13.35Z" fill="black"/>
<path d="M4.15099 12.35C4.15099 12.1567 4.30769 12 4.50099 12C4.69429 12 4.85099 12.1567 4.85099 12.35V12.8938L5.32192 12.6219C5.48932 12.5252 5.70337 12.5826 5.80002 12.75C5.89667 12.9174 5.83932 13.1315 5.67191 13.2281L5.20099 13.5L5.67192 13.7719C5.83932 13.8685 5.89667 14.0826 5.80003 14.25C5.70337 14.4174 5.48932 14.4748 5.32192 14.3781L4.85099 14.1062V14.65C4.85099 14.8433 4.69429 15 4.50099 15C4.30769 15 4.15099 14.8433 4.15099 14.65V14.1062L3.68006 14.3781C3.51266 14.4748 3.2986 14.4174 3.20195 14.25C3.1053 14.0826 3.16265 13.8685 3.33006 13.7719L3.80099 13.5L3.33006 13.2281C3.16265 13.1315 3.1053 12.9174 3.20195 12.75C3.2986 12.5826 3.51266 12.5252 3.68006 12.6219L4.15099 12.8938V12.35Z" fill="black"/>
<path d="M11.501 12C11.3077 12 11.151 12.1567 11.151 12.35V12.8938L10.6801 12.6219C10.5127 12.5252 10.2986 12.5826 10.2019 12.75C10.1053 12.9174 10.1627 13.1315 10.3301 13.2281L10.801 13.5L10.3301 13.7719C10.1627 13.8685 10.1053 14.0826 10.2019 14.25C10.2986 14.4174 10.5127 14.4748 10.6801 14.3781L11.151 14.1062V14.65C11.151 14.8433 11.3077 15 11.501 15C11.6943 15 11.851 14.8433 11.851 14.65V14.1062L12.3219 14.3781C12.4893 14.4748 12.7034 14.4174 12.8 14.25C12.8967 14.0826 12.8393 13.8685 12.6719 13.7719L12.201 13.5L12.6719 13.2281C12.8393 13.1315 12.8967 12.9174 12.8 12.75C12.7034 12.5826 12.4893 12.5252 12.3219 12.6219L11.851 12.8938V12.35C11.851 12.1567 11.6943 12 11.501 12Z" fill="black"/>
<path d="M7.89998 10C9.35312 10 10.6615 9.3801 11.575 8.39032C11.6672 8.29047 11.8124 8.25914 11.9395 8.30718C12.2692 8.4318 12.6267 8.5 13 8.5C14.6569 8.5 16 7.15685 16 5.5C16 3.84315 14.6569 2.5 13 2.5C12.8315 2.5 12.6663 2.51389 12.5053 2.54059C12.3715 2.56279 12.2354 2.50384 12.1645 2.38823C11.2852 0.955579 9.70416 0 7.89998 0C6.10565 0 4.53208 0.945171 3.64997 2.3648C3.58248 2.47342 3.45684 2.53181 3.32971 2.51791C3.22143 2.50607 3.11143 2.5 3 2.5C1.34315 2.5 0 3.84315 0 5.5C0 7.15685 1.34315 8.5 3 8.5C3.3231 8.5 3.63426 8.44892 3.92586 8.35441C4.04774 8.3149 4.18289 8.34663 4.27104 8.43961C5.18224 9.40064 6.47112 10 7.89998 10ZM11.805 7.10391C11.6329 6.97547 11.3674 7.00712 11.2498 7.18684C10.5356 8.27865 9.30203 9 7.89998 9C6.53223 9 5.32481 8.31351 4.60349 7.2663C4.49114 7.10319 4.25573 7.06925 4.08975 7.17731C3.77625 7.38141 3.40197 7.5 3 7.5C1.89543 7.5 1 6.60457 1 5.5C1 4.39543 1.89543 3.5 3 3.5C3.25671 3.5 3.50212 3.54836 3.72762 3.63648C3.9123 3.70864 4.13636 3.62762 4.2135 3.44496C4.82027 2.00827 6.24238 1 7.89998 1C9.58019 1 11.0184 2.03595 11.6108 3.50397C11.6913 3.70341 11.9462 3.78625 12.1403 3.69369C12.4007 3.56951 12.6922 3.5 13 3.5C14.1046 3.5 15 4.39543 15 5.5C15 6.60457 14.1046 7.5 13 7.5C12.552 7.5 12.1384 7.35271 11.805 7.10391Z" fill="black"/>
</svg>
