<svg width="16" height="16" viewBox="0 0 16 16" fill="none" xmlns="http://www.w3.org/2000/svg">
<path d="M1 13C1 13.2652 1.10536 13.5196 1.29289 13.7071C1.48043 13.8946 1.73478 14 2 14C2.26522 14 2.51957 13.8946 2.70711 13.7071C2.89464 13.5196 3 13.2652 3 13C3 12.5 2.44458 11.605 2 11C1.55542 11.605 1 12.5 1 13Z" fill="black"/>
<path d="M13 13C13 13.2652 13.1054 13.5196 13.2929 13.7071C13.4804 13.8946 13.7348 14 14 14C14.2652 14 14.5196 13.8946 14.7071 13.7071C14.8946 13.5196 15 13.2652 15 13C15 12.5 14.4446 11.605 14 11C13.5554 11.605 13 12.5 13 13Z" fill="black"/>
<path d="M5.15099 13.35C5.15099 13.1567 5.30769 13 5.50099 13C5.69429 13 5.85099 13.1567 5.85099 13.35V13.8938L6.32192 13.6219C6.48932 13.5252 6.70338 13.5826 6.80002 13.75C6.89668 13.9174 6.83932 14.1315 6.67192 14.2281L6.20099 14.5L6.67192 14.7719C6.83932 14.8685 6.89668 15.0826 6.80003 15.25C6.70338 15.4174 6.48932 15.4748 6.32192 15.3781L5.85099 15.1062V15.65C5.85099 15.8433 5.69429 16 5.50099 16C5.30769 16 5.15099 15.8433 5.15099 15.65V15.1062L4.68006 15.3781C4.51266 15.4748 4.2986 15.4174 4.20195 15.25C4.1053 15.0826 4.16266 14.8685 4.33006 14.7719L4.80099 14.5L4.33006 14.2281C4.16266 14.1315 4.1053 13.9174 4.20195 13.75C4.2986 13.5826 4.51266 13.5252 4.68006 13.6219L5.15099 13.8938V13.35Z" fill="black"/>
<path d="M10.501 13C10.3077 13 10.151 13.1567 10.151 13.35V13.8938L9.68006 13.6219C9.51266 13.5252 9.2986 13.5826 9.20195 13.75C9.1053 13.9174 9.16266 14.1315 9.33006 14.2281L9.80099 14.5L9.33006 14.7719C9.16266 14.8685 9.1053 15.0826 9.20195 15.25C9.2986 15.4174 9.51266 15.4748 9.68006 15.3781L10.151 15.1062V15.65C10.151 15.8433 10.3077 16 10.501 16C10.6943 16 10.851 15.8433 10.851 15.65V15.1062L11.3219 15.3781C11.4893 15.4748 11.7034 15.4174 11.8 15.25C11.8967 15.0826 11.8393 14.8685 11.6719 14.7719L11.201 14.5L11.6719 14.2281C11.8393 14.1315 11.8967 13.9174 11.8 13.75C11.7034 13.5826 11.4893 13.5252 11.3219 13.6219L10.851 13.8938V13.35C10.851 13.1567 10.6943 13 10.501 13Z" fill="black"/>
<path d="M7.89998 10C9.35312 10 10.6615 9.3801 11.575 8.39032C11.6672 8.29047 11.8124 8.25914 11.9395 8.30718C12.2692 8.4318 12.6267 8.5 13 8.5C14.6569 8.5 16 7.15685 16 5.5C16 3.84315 14.6569 2.5 13 2.5C12.8315 2.5 12.6663 2.51389 12.5053 2.54059C12.3715 2.56279 12.2354 2.50384 12.1645 2.38823C11.2852 0.955579 9.70416 0 7.89998 0C6.10565 0 4.53208 0.945171 3.64997 2.3648C3.58248 2.47342 3.45684 2.53181 3.32971 2.51791C3.22143 2.50607 3.11143 2.5 3 2.5C1.34315 2.5 0 3.84315 0 5.5C0 7.15685 1.34315 8.5 3 8.5C3.3231 8.5 3.63426 8.44892 3.92586 8.35441C4.04774 8.3149 4.18289 8.34663 4.27104 8.43961C5.18224 9.40064 6.47112 10 7.89998 10ZM11.805 7.10391C11.6329 6.97547 11.3674 7.00712 11.2498 7.18684C10.5356 8.27865 9.30203 9 7.89998 9C6.53223 9 5.32481 8.31351 4.60349 7.2663C4.49114 7.10319 4.25573 7.06925 4.08975 7.17731C3.77625 7.38141 3.40197 7.5 3 7.5C1.89543 7.5 1 6.60457 1 5.5C1 4.39543 1.89543 3.5 3 3.5C3.25671 3.5 3.50212 3.54836 3.72762 3.63648C3.9123 3.70864 4.13636 3.62762 4.2135 3.44496C4.82027 2.00827 6.24238 1 7.89998 1C9.58019 1 11.0184 2.03595 11.6108 3.50397C11.6913 3.70341 11.9462 3.78625 12.1403 3.69369C12.4007 3.56951 12.6922 3.5 13 3.5C14.1046 3.5 15 4.39543 15 5.5C15 6.60457 14.1046 7.5 13 7.5C12.552 7.5 12.1384 7.35271 11.805 7.10391Z" fill="black"/>
</svg>
