<svg width="16" height="16" viewBox="0 0 16 16" fill="none" xmlns="http://www.w3.org/2000/svg">
<path d="M0 14C0 14.2652 0.105357 14.5196 0.292893 14.7071C0.48043 14.8946 0.734784 15 1 15C1.26522 15 1.51957 14.8946 1.70711 14.7071C1.89464 14.5196 2 14.2652 2 14C2 13.5 1.44458 12.605 1 12C0.555422 12.605 0 13.5 0 14Z" fill="black"/>
<path d="M4 14C4 14.2652 4.10536 14.5196 4.29289 14.7071C4.48043 14.8946 4.73478 15 5 15C5.26522 15 5.51957 14.8946 5.70711 14.7071C5.89464 14.5196 6 14.2652 6 14C6 13.5 5.44458 12.605 5 12C4.55542 12.605 4 13.5 4 14Z" fill="black"/>
<path d="M9.15099 12.35C9.15099 12.1567 9.30769 12 9.50099 12C9.69429 12 9.85099 12.1567 9.85099 12.35V12.8938L10.3219 12.6219C10.4893 12.5252 10.7034 12.5826 10.8 12.75C10.8967 12.9174 10.8393 13.1315 10.6719 13.2281L10.201 13.5L10.6719 13.7719C10.8393 13.8685 10.8967 14.0826 10.8 14.25C10.7034 14.4174 10.4893 14.4748 10.3219 14.3781L9.85099 14.1062V14.65C9.85099 14.8433 9.69429 15 9.50099 15C9.30769 15 9.15099 14.8433 9.15099 14.65V14.1062L8.68006 14.3781C8.51266 14.4748 8.2986 14.4174 8.20195 14.25C8.1053 14.0826 8.16266 13.8685 8.33006 13.7719L8.80099 13.5L8.33006 13.2281C8.16266 13.1315 8.1053 12.9174 8.20195 12.75C8.2986 12.5826 8.51266 12.5252 8.68006 12.6219L9.15099 12.8938V12.35Z" fill="black"/>
<path d="M14.501 12C14.3077 12 14.151 12.1567 14.151 12.35V12.8938L13.6801 12.6219C13.5127 12.5252 13.2986 12.5826 13.2019 12.75C13.1053 12.9174 13.1627 13.1315 13.3301 13.2281L13.801 13.5L13.3301 13.7719C13.1627 13.8685 13.1053 14.0826 13.2019 14.25C13.2986 14.4174 13.5127 14.4748 13.6801 14.3781L14.151 14.1062V14.65C14.151 14.8433 14.3077 15 14.501 15C14.6943 15 14.851 14.8433 14.851 14.65V14.1062L15.3219 14.3781C15.4893 14.4748 15.7034 14.4174 15.8 14.25C15.8967 14.0826 15.8393 13.8685 15.6719 13.7719L15.201 13.5L15.6719 13.2281C15.8393 13.1315 15.8967 12.9174 15.8 12.75C15.7034 12.5826 15.4893 12.5252 15.3219 12.6219L14.851 12.8938V12.35C14.851 12.1567 14.6943 12 14.501 12Z" fill="black"/>
<path d="M11.7274 8.21748C10.8102 9.3074 9.43597 10 7.89998 10C6.3941 10 5.04371 9.33429 4.12704 8.2811C3.77907 8.42226 3.39862 8.5 3 8.5C1.34315 8.5 0 7.15685 0 5.5C0 3.84315 1.34315 2.5 3 2.5C3.18474 2.5 3.36559 2.5167 3.5411 2.54867C4.39849 1.02737 6.02926 0 7.89998 0C9.78634 0 11.4287 1.04461 12.2802 2.58691C12.5108 2.53012 12.7519 2.5 13 2.5C14.6569 2.5 16 3.84315 16 5.5C16 7.15685 14.6569 8.5 13 8.5C12.545 8.5 12.1137 8.39872 11.7274 8.21748Z" fill="black"/>
</svg>
