<svg width="16" height="16" viewBox="0 0 16 16" fill="none" xmlns="http://www.w3.org/2000/svg">
<path d="M5.99598 13C5.80268 13 5.64598 13.1567 5.64598 13.35V13.8938L5.17505 13.6219C5.00765 13.5252 4.79359 13.5826 4.69694 13.75C4.60029 13.9174 4.65765 14.1315 4.82505 14.2281L5.29598 14.5L4.82505 14.7719C4.65765 14.8685 4.60029 15.0826 4.69694 15.25C4.79359 15.4174 5.00765 15.4748 5.17505 15.3781L5.64598 15.1062V15.65C5.64598 15.8433 5.80268 16 5.99598 16C6.18928 16 6.34598 15.8433 6.34598 15.65V15.1062L6.81691 15.3781C6.98431 15.4748 7.19837 15.4174 7.29502 15.25C7.39167 15.0826 7.33431 14.8685 7.16691 14.7719L6.69599 14.5L7.16691 14.2281C7.33431 14.1315 7.39167 13.9174 7.29502 13.75C7.19837 13.5826 6.98431 13.5252 6.81691 13.6219L6.34598 13.8938V13.35C6.34598 13.1567 6.18928 13 5.99598 13Z" fill="black"/>
<path d="M10.996 13C10.8027 13 10.646 13.1567 10.646 13.35V13.8938L10.1751 13.6219C10.0077 13.5252 9.79359 13.5826 9.69694 13.75C9.60029 13.9174 9.65765 14.1315 9.82505 14.2281L10.296 14.5L9.82505 14.7719C9.65765 14.8685 9.60029 15.0826 9.69694 15.25C9.79359 15.4174 10.0077 15.4748 10.1751 15.3781L10.646 15.1062V15.65C10.646 15.8433 10.8027 16 10.996 16C11.1893 16 11.346 15.8433 11.346 15.65V15.1062L11.8169 15.3781C11.9843 15.4748 12.1984 15.4174 12.295 15.25C12.3917 15.0826 12.3343 14.8685 12.1669 14.7719L11.696 14.5L12.1669 14.2281C12.3343 14.1315 12.3917 13.9174 12.295 13.75C12.1984 13.5826 11.9843 13.5252 11.8169 13.6219L11.346 13.8938V13.35C11.346 13.1567 11.1893 13 10.996 13Z" fill="black"/>
<path d="M8.40623 12.5C9.76855 12.5 10.9951 11.9421 11.8516 11.0513C11.938 10.9614 12.0742 10.9332 12.1933 10.9765C12.5024 11.0886 12.8375 11.15 13.1875 11.15C14.7408 11.15 16 9.94117 16 8.45C16 6.95883 14.7408 5.75 13.1875 5.75C13.0295 5.75 12.8746 5.7625 12.7238 5.78653C12.5983 5.80651 12.4707 5.75345 12.4042 5.6494C11.5798 4.36002 10.0977 3.5 8.40623 3.5C6.72405 3.5 5.24882 4.35065 4.42185 5.62832C4.35858 5.72608 4.24078 5.77863 4.1216 5.76612C4.02009 5.75547 3.91696 5.75 3.8125 5.75C2.2592 5.75 1 6.95883 1 8.45C1 9.94117 2.2592 11.15 3.8125 11.15C4.1154 11.15 4.40712 11.104 4.68049 11.019C4.79476 10.9834 4.92146 11.012 5.0041 11.0957C5.85835 11.9606 7.06667 12.5 8.40623 12.5ZM12.0672 9.89352C11.9059 9.77792 11.6569 9.80641 11.5467 9.96816C10.8771 10.9508 9.72066 11.6 8.40623 11.6C7.12396 11.6 5.99201 10.9822 5.31577 10.0397C5.21044 9.89287 4.98975 9.86233 4.83414 9.95958C4.54023 10.1433 4.18935 10.25 3.8125 10.25C2.77697 10.25 1.9375 9.44411 1.9375 8.45C1.9375 7.45589 2.77697 6.65 3.8125 6.65C4.05316 6.65 4.28324 6.69353 4.49464 6.77283C4.66778 6.83778 4.87784 6.76486 4.95016 6.60046C5.51901 5.30744 6.85223 4.4 8.40623 4.4C9.98142 4.4 11.3298 5.33236 11.8851 6.65357C11.9606 6.83307 12.1995 6.90762 12.3815 6.82432C12.6257 6.71256 12.899 6.65 13.1875 6.65C14.223 6.65 15.0625 7.45589 15.0625 8.45C15.0625 9.44411 14.223 10.25 13.1875 10.25C12.7675 10.25 12.3798 10.1174 12.0672 9.89352Z" fill="black"/>
<path d="M5.195 1.904H5.202C5.33443 1.90216 5.46073 1.84784 5.55316 1.75297C5.64559 1.6581 5.6966 1.53044 5.695 1.398L5.683 0.494C5.68142 0.362434 5.62804 0.236793 5.53445 0.144319C5.44085 0.0518445 5.31457 -9.47245e-06 5.183 1.29792e-09H5.176C5.04356 0.00184461 4.91727 0.0561616 4.82484 0.151028C4.73241 0.245895 4.6814 0.37356 4.683 0.506L4.695 1.411C4.69684 1.54239 4.75033 1.66778 4.8439 1.76004C4.93747 1.8523 5.06359 1.90401 5.195 1.904ZM2.303 2.85C2.34982 2.89674 2.40545 2.93372 2.46667 2.9588C2.52789 2.98389 2.59348 2.99657 2.65964 2.99612C2.7258 2.99567 2.79121 2.98209 2.85208 2.95618C2.91295 2.93026 2.96808 2.89253 3.01426 2.84515C3.06044 2.79778 3.09676 2.74171 3.12112 2.6802C3.14547 2.61869 3.15738 2.55295 3.15615 2.48681C3.15491 2.42066 3.14056 2.35542 3.11393 2.29485C3.0873 2.23429 3.04891 2.17962 3.001 2.134L2.353 1.504C2.30699 1.45399 2.25128 1.41387 2.18925 1.38611C2.12723 1.35835 2.06019 1.34353 1.99225 1.34254C1.9243 1.34156 1.85686 1.35444 1.79406 1.38039C1.73126 1.40634 1.6744 1.44481 1.62697 1.49347C1.57953 1.54213 1.54251 1.59995 1.51817 1.6634C1.49383 1.72684 1.48268 1.79458 1.4854 1.86248C1.48811 1.93038 1.50464 1.99702 1.53398 2.05831C1.56331 2.11961 1.60483 2.17429 1.656 2.219L2.303 2.85ZM2.124 5.053C2.12216 4.92161 2.06867 4.79622 1.9751 4.70396C1.88153 4.6117 1.7554 4.55999 1.624 4.56H1.617L0.712997 4.571C0.580389 4.5718 0.453528 4.62524 0.360322 4.71957C0.267117 4.8139 0.215202 4.94139 0.215997 5.074C0.216793 5.20661 0.270234 5.33347 0.364565 5.42667C0.458896 5.51988 0.586389 5.5718 0.718997 5.571H0.725997L1.631 5.56C1.69666 5.55909 1.7615 5.54525 1.82181 5.51927C1.88213 5.4933 1.93673 5.4557 1.98251 5.40862C2.0283 5.36154 2.06435 5.3059 2.08863 5.24488C2.1129 5.18386 2.12492 5.11866 2.124 5.053ZM7.762 2.933C7.8289 2.93313 7.89514 2.91983 7.9568 2.89389C8.01847 2.86795 8.0743 2.82991 8.121 2.782L8.751 2.134C8.84173 2.0387 8.89123 1.91147 8.88878 1.77991C8.88633 1.64835 8.83211 1.52306 8.73789 1.43121C8.64367 1.33936 8.51704 1.28835 8.38546 1.28925C8.25388 1.29014 8.12796 1.34287 8.035 1.436L7.404 2.083C7.33502 2.15337 7.28837 2.24256 7.26991 2.33936C7.25146 2.43616 7.26202 2.53626 7.30027 2.62708C7.33852 2.7179 7.40275 2.79539 7.4849 2.84981C7.56705 2.90424 7.66345 2.93318 7.762 2.933ZM2.47 5.315C2.79294 5.16841 3.13612 5.07132 3.488 5.027C3.54342 4.58533 3.75785 4.17897 4.09117 3.88394C4.42448 3.5889 4.85386 3.4254 5.299 3.424C5.48715 3.42671 5.67373 3.45876 5.852 3.519C6.25881 3.32604 6.69016 3.18978 7.134 3.114C6.72463 2.75816 6.22134 2.52793 5.68443 2.4509C5.14753 2.37387 4.5998 2.45331 4.1069 2.6797C3.61401 2.9061 3.19686 3.26984 2.90546 3.72732C2.61407 4.1848 2.46079 4.71661 2.464 5.259C2.464 5.279 2.47 5.296 2.47 5.315Z" fill="black"/>
</svg>
