<svg width="16" height="16" viewBox="0 0 16 16" fill="none" xmlns="http://www.w3.org/2000/svg">
<path d="M12.151 8.35C12.151 8.1567 12.3077 8 12.501 8C12.6943 8 12.851 8.1567 12.851 8.35V8.89378L13.3219 8.62189C13.4893 8.52525 13.7034 8.5826 13.8 8.75C13.8967 8.9174 13.8393 9.13146 13.6719 9.22811L13.201 9.5L13.6719 9.77189C13.8393 9.86854 13.8967 10.0826 13.8 10.25C13.7034 10.4174 13.4893 10.4748 13.3219 10.3781L12.851 10.1062V10.65C12.851 10.8433 12.6943 11 12.501 11C12.3077 11 12.151 10.8433 12.151 10.65V10.1062L11.6801 10.3781C11.5127 10.4748 11.2986 10.4174 11.2019 10.25C11.1053 10.0826 11.1627 9.86854 11.3301 9.77189L11.801 9.5L11.3301 9.22811C11.1627 9.13146 11.1053 8.9174 11.2019 8.75C11.2986 8.5826 11.5127 8.52524 11.6801 8.62189L12.151 8.89378V8.35Z" fill="black"/>
<path d="M3.15099 10.35C3.15099 10.1567 3.30769 10 3.50099 10C3.69429 10 3.85099 10.1567 3.85099 10.35V10.8938L4.32192 10.6219C4.48932 10.5252 4.70337 10.5826 4.80002 10.75C4.89667 10.9174 4.83932 11.1315 4.67191 11.2281L4.20099 11.5L4.67192 11.7719C4.83932 11.8685 4.89667 12.0826 4.80003 12.25C4.70337 12.4174 4.48932 12.4748 4.32192 12.3781L3.85099 12.1062V12.65C3.85099 12.8433 3.69429 13 3.50099 13C3.30769 13 3.15099 12.8433 3.15099 12.65V12.1062L2.68006 12.3781C2.51266 12.4748 2.2986 12.4174 2.20195 12.25C2.1053 12.0826 2.16265 11.8685 2.33006 11.7719L2.80099 11.5L2.33006 11.2281C2.16265 11.1315 2.1053 10.9174 2.20195 10.75C2.2986 10.5826 2.51266 10.5252 2.68006 10.6219L3.15099 10.8938V10.35Z" fill="black"/>
<path d="M12.501 12C12.3077 12 12.151 12.1567 12.151 12.35V12.8938L11.6801 12.6219C11.5127 12.5252 11.2986 12.5826 11.2019 12.75C11.1053 12.9174 11.1627 13.1315 11.3301 13.2281L11.801 13.5L11.3301 13.7719C11.1627 13.8685 11.1053 14.0826 11.2019 14.25C11.2986 14.4174 11.5127 14.4748 11.6801 14.3781L12.151 14.1062V14.65C12.151 14.8433 12.3077 15 12.501 15C12.6943 15 12.851 14.8433 12.851 14.65V14.1062L13.3219 14.3781C13.4893 14.4748 13.7034 14.4174 13.8 14.25C13.8967 14.0826 13.8393 13.8685 13.6719 13.7719L13.201 13.5L13.6719 13.2281C13.8393 13.1315 13.8967 12.9174 13.8 12.75C13.7034 12.5826 13.4893 12.5252 13.3219 12.6219L12.851 12.8938V12.35C12.851 12.1567 12.6943 12 12.501 12Z" fill="black"/>
<path d="M7.85705 0C7.64184 0 7.45077 0.137715 7.38271 0.341886L7.21604 0.841886C7.1946 0.906218 7.18693 0.970968 7.19109 1.03343C3.46247 1.34329 0.481342 3.77229 0.00186237 6.85651C-0.0317389 7.07265 0.397967 7.25041 0.593853 7.14003C1.00612 6.90772 1.64923 6.69549 2.62294 6.69549C3.98171 6.69549 4.69668 7.10877 5.039 7.41316C5.16922 7.52895 5.45372 7.52895 5.58394 7.41316C5.87836 7.15137 6.44843 6.80902 7.46667 6.71833V15.4667C7.46667 15.7612 7.70546 16 8.00001 16C8.29456 16 8.53334 15.7612 8.53334 15.4667V6.71834C9.55157 6.80902 10.1216 7.15137 10.4161 7.41316C10.5463 7.52895 10.8308 7.52895 10.961 7.41316C11.3033 7.10877 12.0183 6.69549 13.3771 6.69549C14.3508 6.69549 14.9939 6.90772 15.4061 7.14003C15.602 7.25041 16.0317 7.07265 15.9981 6.85651C15.5184 3.77047 12.534 1.34042 8.80229 1.03288C8.80637 0.97059 8.79868 0.90603 8.7773 0.841886L8.61063 0.341886C8.54258 0.137715 8.35151 0 8.13629 0H7.85705Z" fill="black"/>
</svg>
