<svg width="16" height="16" viewBox="0 0 16 16" fill="none" xmlns="http://www.w3.org/2000/svg">
<path d="M1.15099 9.35C1.15099 9.1567 1.30769 9 1.50099 9C1.69429 9 1.85099 9.1567 1.85099 9.35V9.89378L2.32192 9.62189C2.48932 9.52525 2.70337 9.5826 2.80002 9.75C2.89667 9.9174 2.83932 10.1315 2.67191 10.2281L2.20099 10.5L2.67192 10.7719C2.83932 10.8685 2.89667 11.0826 2.80003 11.25C2.70337 11.4174 2.48932 11.4748 2.32192 11.3781L1.85099 11.1062V11.65C1.85099 11.8433 1.69429 12 1.50099 12C1.30769 12 1.15099 11.8433 1.15099 11.65V11.1062L0.680057 11.3781C0.512655 11.4748 0.298599 11.4174 0.201948 11.25C0.105299 11.0826 0.162655 10.8685 0.330057 10.7719L0.800985 10.5L0.330057 10.2281C0.162655 10.1315 0.105299 9.9174 0.201948 9.75C0.298599 9.5826 0.512655 9.52524 0.680057 9.62189L1.15099 9.89378V9.35Z" fill="black"/>
<path d="M5.15099 9.35C5.15099 9.1567 5.30769 9 5.50099 9C5.69429 9 5.85099 9.1567 5.85099 9.35V9.89378L6.32192 9.62189C6.48932 9.52525 6.70337 9.5826 6.80002 9.75C6.89667 9.9174 6.83932 10.1315 6.67191 10.2281L6.20099 10.5L6.67192 10.7719C6.83932 10.8685 6.89667 11.0826 6.80003 11.25C6.70337 11.4174 6.48932 11.4748 6.32192 11.3781L5.85099 11.1062V11.65C5.85099 11.8433 5.69429 12 5.50099 12C5.30769 12 5.15099 11.8433 5.15099 11.65V11.1062L4.68006 11.3781C4.51265 11.4748 4.2986 11.4174 4.20195 11.25C4.1053 11.0826 4.16265 10.8685 4.33006 10.7719L4.80098 10.5L4.33006 10.2281C4.16265 10.1315 4.1053 9.9174 4.20195 9.75C4.2986 9.5826 4.51265 9.52524 4.68006 9.62189L5.15099 9.89378V9.35Z" fill="black"/>
<path d="M10.501 9C10.3077 9 10.151 9.1567 10.151 9.35V9.89378L9.68006 9.62189C9.51266 9.52524 9.2986 9.5826 9.20195 9.75C9.1053 9.9174 9.16265 10.1315 9.33006 10.2281L9.80099 10.5L9.33006 10.7719C9.16265 10.8685 9.1053 11.0826 9.20195 11.25C9.2986 11.4174 9.51266 11.4748 9.68006 11.3781L10.151 11.1062V11.65C10.151 11.8433 10.3077 12 10.501 12C10.6943 12 10.851 11.8433 10.851 11.65V11.1062L11.3219 11.3781C11.4893 11.4748 11.7034 11.4174 11.8 11.25C11.8967 11.0826 11.8393 10.8685 11.6719 10.7719L11.201 10.5L11.6719 10.2281C11.8393 10.1315 11.8967 9.9174 11.8 9.75C11.7034 9.5826 11.4893 9.52525 11.3219 9.62189L10.851 9.89378V9.35C10.851 9.1567 10.6943 9 10.501 9Z" fill="black"/>
<path d="M14.151 9.35C14.151 9.1567 14.3077 9 14.501 9C14.6943 9 14.851 9.1567 14.851 9.35V9.89378L15.3219 9.62189C15.4893 9.52525 15.7034 9.5826 15.8 9.75C15.8967 9.9174 15.8393 10.1315 15.6719 10.2281L15.201 10.5L15.6719 10.7719C15.8393 10.8685 15.8967 11.0826 15.8 11.25C15.7034 11.4174 15.4893 11.4748 15.3219 11.3781L14.851 11.1062V11.65C14.851 11.8433 14.6943 12 14.501 12C14.3077 12 14.151 11.8433 14.151 11.65V11.1062L13.6801 11.3781C13.5127 11.4748 13.2986 11.4174 13.2019 11.25C13.1053 11.0826 13.1627 10.8685 13.3301 10.7719L13.801 10.5L13.3301 10.2281C13.1627 10.1315 13.1053 9.9174 13.2019 9.75C13.2986 9.5826 13.5127 9.52524 13.6801 9.62189L14.151 9.89378V9.35Z" fill="black"/>
<path d="M12.501 12C12.3077 12 12.151 12.1567 12.151 12.35V12.8938L11.6801 12.6219C11.5127 12.5252 11.2986 12.5826 11.2019 12.75C11.1053 12.9174 11.1627 13.1315 11.3301 13.2281L11.801 13.5L11.3301 13.7719C11.1627 13.8685 11.1053 14.0826 11.2019 14.25C11.2986 14.4174 11.5127 14.4748 11.6801 14.3781L12.151 14.1062V14.65C12.151 14.8433 12.3077 15 12.501 15C12.6943 15 12.851 14.8433 12.851 14.65V14.1062L13.3219 14.3781C13.4893 14.4748 13.7034 14.4174 13.8 14.25C13.8967 14.0826 13.8393 13.8685 13.6719 13.7719L13.201 13.5L13.6719 13.2281C13.8393 13.1315 13.8967 12.9174 13.8 12.75C13.7034 12.5826 13.4893 12.5252 13.3219 12.6219L12.851 12.8938V12.35C12.851 12.1567 12.6943 12 12.501 12Z" fill="black"/>
<path d="M7.85705 0C7.64184 0 7.45077 0.137715 7.38271 0.341886L7.21604 0.841886C7.1946 0.906218 7.18693 0.970968 7.19109 1.03343C3.46247 1.34329 0.481342 3.77229 0.00186237 6.85651C-0.0317389 7.07265 0.397967 7.25041 0.593853 7.14003C1.00612 6.90772 1.64923 6.69549 2.62294 6.69549C3.98171 6.69549 4.69668 7.10877 5.039 7.41316C5.16922 7.52895 5.45372 7.52895 5.58394 7.41316C5.87836 7.15137 6.44843 6.80902 7.46667 6.71833V15.4667C7.46667 15.7612 7.70546 16 8.00001 16C8.29456 16 8.53334 15.7612 8.53334 15.4667V6.71834C9.55157 6.80902 10.1216 7.15137 10.4161 7.41316C10.5463 7.52895 10.8308 7.52895 10.961 7.41316C11.3033 7.10877 12.0183 6.69549 13.3771 6.69549C14.3508 6.69549 14.9939 6.90772 15.4061 7.14003C15.602 7.25041 16.0317 7.07265 15.9981 6.85651C15.5184 3.77047 12.534 1.34042 8.80229 1.03288C8.80637 0.97059 8.79868 0.90603 8.7773 0.841886L8.61063 0.341886C8.54258 0.137715 8.35151 0 8.13629 0H7.85705Z" fill="black"/>
</svg>
