<svg width="16" height="16" viewBox="0 0 16 16" fill="none" xmlns="http://www.w3.org/2000/svg">
<path d="M1.15099 9.35C1.15099 9.1567 1.30769 9 1.50099 9C1.69429 9 1.85099 9.1567 1.85099 9.35V9.89378L2.32192 9.62189C2.48932 9.52525 2.70337 9.5826 2.80002 9.75C2.89667 9.9174 2.83932 10.1315 2.67191 10.2281L2.20099 10.5L2.67192 10.7719C2.83932 10.8685 2.89667 11.0826 2.80003 11.25C2.70337 11.4174 2.48932 11.4748 2.32192 11.3781L1.85099 11.1062V11.65C1.85099 11.8433 1.69429 12 1.50099 12C1.30769 12 1.15099 11.8433 1.15099 11.65V11.1062L0.680057 11.3781C0.512655 11.4748 0.298599 11.4174 0.201948 11.25C0.105299 11.0826 0.162655 10.8685 0.330057 10.7719L0.800985 10.5L0.330057 10.2281C0.162655 10.1315 0.105299 9.9174 0.201948 9.75C0.298599 9.5826 0.512655 9.52524 0.680057 9.62189L1.15099 9.89378V9.35Z" fill="black"/>
<path d="M5.15099 9.35C5.15099 9.1567 5.30769 9 5.50099 9C5.69429 9 5.85099 9.1567 5.85099 9.35V9.89378L6.32192 9.62189C6.48932 9.52525 6.70337 9.5826 6.80002 9.75C6.89667 9.9174 6.83932 10.1315 6.67191 10.2281L6.20099 10.5L6.67192 10.7719C6.83932 10.8685 6.89667 11.0826 6.80003 11.25C6.70337 11.4174 6.48932 11.4748 6.32192 11.3781L5.85099 11.1062V11.65C5.85099 11.8433 5.69429 12 5.50099 12C5.30769 12 5.15099 11.8433 5.15099 11.65V11.1062L4.68006 11.3781C4.51265 11.4748 4.2986 11.4174 4.20195 11.25C4.1053 11.0826 4.16265 10.8685 4.33006 10.7719L4.80098 10.5L4.33006 10.2281C4.16265 10.1315 4.1053 9.9174 4.20195 9.75C4.2986 9.5826 4.51265 9.52524 4.68006 9.62189L5.15099 9.89378V9.35Z" fill="black"/>
<path d="M10.501 9C10.3077 9 10.151 9.1567 10.151 9.35V9.89378L9.68006 9.62189C9.51266 9.52524 9.2986 9.5826 9.20195 9.75C9.1053 9.9174 9.16265 10.1315 9.33006 10.2281L9.80099 10.5L9.33006 10.7719C9.16265 10.8685 9.1053 11.0826 9.20195 11.25C9.2986 11.4174 9.51266 11.4748 9.68006 11.3781L10.151 11.1062V11.65C10.151 11.8433 10.3077 12 10.501 12C10.6943 12 10.851 11.8433 10.851 11.65V11.1062L11.3219 11.3781C11.4893 11.4748 11.7034 11.4174 11.8 11.25C11.8967 11.0826 11.8393 10.8685 11.6719 10.7719L11.201 10.5L11.6719 10.2281C11.8393 10.1315 11.8967 9.9174 11.8 9.75C11.7034 9.5826 11.4893 9.52525 11.3219 9.62189L10.851 9.89378V9.35C10.851 9.1567 10.6943 9 10.501 9Z" fill="black"/>
<path d="M14.151 9.35C14.151 9.1567 14.3077 9 14.501 9C14.6943 9 14.851 9.1567 14.851 9.35V9.89378L15.3219 9.62189C15.4893 9.52525 15.7034 9.5826 15.8 9.75C15.8967 9.9174 15.8393 10.1315 15.6719 10.2281L15.201 10.5L15.6719 10.7719C15.8393 10.8685 15.8967 11.0826 15.8 11.25C15.7034 11.4174 15.4893 11.4748 15.3219 11.3781L14.851 11.1062V11.65C14.851 11.8433 14.6943 12 14.501 12C14.3077 12 14.151 11.8433 14.151 11.65V11.1062L13.6801 11.3781C13.5127 11.4748 13.2986 11.4174 13.2019 11.25C13.1053 11.0826 13.1627 10.8685 13.3301 10.7719L13.801 10.5L13.3301 10.2281C13.1627 10.1315 13.1053 9.9174 13.2019 9.75C13.2986 9.5826 13.5127 9.52524 13.6801 9.62189L14.151 9.89378V9.35Z" fill="black"/>
<path d="M12.501 12C12.3077 12 12.151 12.1567 12.151 12.35V12.8938L11.6801 12.6219C11.5127 12.5252 11.2986 12.5826 11.2019 12.75C11.1053 12.9174 11.1627 13.1315 11.3301 13.2281L11.801 13.5L11.3301 13.7719C11.1627 13.8685 11.1053 14.0826 11.2019 14.25C11.2986 14.4174 11.5127 14.4748 11.6801 14.3781L12.151 14.1062V14.65C12.151 14.8433 12.3077 15 12.501 15C12.6943 15 12.851 14.8433 12.851 14.65V14.1062L13.3219 14.3781C13.4893 14.4748 13.7034 14.4174 13.8 14.25C13.8967 14.0826 13.8393 13.8685 13.6719 13.7719L13.201 13.5L13.6719 13.2281C13.8393 13.1315 13.8967 12.9174 13.8 12.75C13.7034 12.5826 13.4893 12.5252 13.3219 12.6219L12.851 12.8938V12.35C12.851 12.1567 12.6943 12 12.501 12Z" fill="black"/>
<path d="M7.38604 0.341886C7.45409 0.137715 7.64516 0 7.86038 0H8.13962C8.35483 0 8.5459 0.137715 8.61396 0.341886L8.78063 0.841886C8.78669 0.860081 8.79166 0.878309 8.79556 0.896509C10.6513 1.03644 12.3313 1.66125 13.6036 2.61685C15.0556 3.70745 16 5.25206 16 7C16 7.19576 15.8858 7.37351 15.7077 7.45483C15.5302 7.53586 15.3219 7.50626 15.1741 7.37919L10.8259 7.37919L10.827 7.37828L15.1728 7.37807L15.1701 7.37588C15.1656 7.37218 15.1575 7.36557 15.1459 7.35648C15.1226 7.33827 15.0855 7.3102 15.0354 7.27548C14.935 7.20589 14.7842 7.11061 14.5906 7.01473C14.202 6.82229 13.6534 6.63334 13 6.63334C12.3466 6.63334 11.798 6.82229 11.4094 7.01473C11.2158 7.11061 11.065 7.20589 10.9646 7.27548C10.9145 7.3102 10.8774 7.33827 10.8541 7.35648C10.8425 7.36557 10.8344 7.37218 10.8299 7.37588L10.827 7.37828L10.1729 7.37819L10.1701 7.37588C10.1656 7.37218 10.1575 7.36557 10.1459 7.35648C10.1226 7.33827 10.0855 7.3102 10.0354 7.27548C9.93505 7.20589 9.7842 7.11061 9.5906 7.01473C9.30579 6.87368 8.935 6.73451 8.5 6.67023V7.37822L10.1729 7.37819L10.1741 7.37919L8.5 7.37822V15.5C8.5 15.7761 8.27614 16 8 16C7.72386 16 7.5 15.7761 7.5 15.5V7.37919L0.825913 7.37919C0.678071 7.50626 0.469764 7.53586 0.292314 7.45483C0.114241 7.37351 0 7.19576 0 7C0 5.25206 0.944434 3.70745 2.39641 2.61685C3.66866 1.66125 5.3487 1.03644 7.20444 0.896509C7.20834 0.878309 7.21331 0.860081 7.21937 0.841886L7.38604 0.341886ZM7.5 7.37919V6.67023C7.065 6.73451 6.69421 6.87368 6.4094 7.01473C6.2158 7.11061 6.06495 7.20589 5.96458 7.27548C5.91451 7.3102 5.87735 7.33827 5.8541 7.35648C5.84248 7.36557 5.83437 7.37218 5.82988 7.37588L5.82699 7.37828L7.5 7.37919ZM3 5.63334C3.80656 5.63334 4.48129 5.85514 4.96393 6.08442C4.98389 5.47987 5.08228 4.77364 5.31163 4.06239C5.5405 3.3526 5.90423 2.62582 6.4598 1.99199C5.11355 2.2149 3.92036 2.72286 2.99698 3.41642C2.03521 4.13882 1.37985 5.04914 1.12222 6.04453C1.59764 5.83009 2.24035 5.63334 3 5.63334ZM6.26337 4.36928C6.06402 4.9875 5.98022 5.60241 5.96329 6.11975L5.9656 6.1186C6.45202 5.87771 7.15339 5.63334 8 5.63334C8.84661 5.63334 9.54798 5.87771 10.0344 6.1186L10.0367 6.11975C10.0198 5.60241 9.93598 4.9875 9.73663 4.36928C9.44364 3.46067 8.91097 2.5718 8 1.95608C7.08903 2.5718 6.55636 3.46067 6.26337 4.36928ZM13 5.63334C13.7596 5.63334 14.4024 5.83009 14.8778 6.04453C14.6201 5.04914 13.9648 4.13882 13.003 3.41642C12.0796 2.72286 10.8864 2.2149 9.5402 1.99199C10.0958 2.62582 10.4595 3.3526 10.6884 4.06239C10.9177 4.77364 11.0161 5.47987 11.0361 6.08442C11.5187 5.85514 12.1934 5.63334 13 5.63334ZM0.829879 7.37588L0.825913 7.37919L5.17406 7.37917L5.17012 7.37588C5.16563 7.37218 5.15752 7.36557 5.1459 7.35648C5.12265 7.33827 5.08549 7.3102 5.03542 7.27548C4.93505 7.20589 4.7842 7.11061 4.5906 7.01473C4.20202 6.82229 3.65339 6.63334 3 6.63334C2.34661 6.63334 1.79798 6.82229 1.4094 7.01473C1.2158 7.11061 1.06495 7.20589 0.964577 7.27548C0.914506 7.3102 0.877354 7.33827 0.854098 7.35648C0.842481 7.36557 0.834367 7.37218 0.829879 7.37588ZM5.17406 7.37917C5.36146 7.54027 5.63858 7.54023 5.82598 7.37913L5.17406 7.37917Z" fill="black"/>
<path d="M10.1741 7.37919H10.8259C10.6385 7.54027 10.3615 7.54027 10.1741 7.37919Z" fill="black"/>
</svg>
