<svg width="16" height="16" viewBox="0 0 16 16" fill="none" xmlns="http://www.w3.org/2000/svg">
<path d="M10.151 8.85C10.151 8.6567 10.3077 8.5 10.501 8.5C10.6943 8.5 10.851 8.6567 10.851 8.85V9.39378L11.3219 9.12189C11.4893 9.02525 11.7034 9.0826 11.8 9.25C11.8967 9.4174 11.8393 9.63146 11.6719 9.72811L11.201 10L11.6719 10.2719C11.8393 10.3685 11.8967 10.5826 11.8 10.75C11.7034 10.9174 11.4893 10.9748 11.3219 10.8781L10.851 10.6062V11.15C10.851 11.3433 10.6943 11.5 10.501 11.5C10.3077 11.5 10.151 11.3433 10.151 11.15V10.6062L9.68006 10.8781C9.51266 10.9748 9.2986 10.9174 9.20195 10.75C9.1053 10.5826 9.16266 10.3685 9.33006 10.2719L9.80099 10L9.33006 9.72811C9.16266 9.63146 9.1053 9.4174 9.20195 9.25C9.2986 9.0826 9.51266 9.02524 9.68006 9.12189L10.151 9.39378V8.85Z" fill="black"/>
<path d="M1.15099 9.35C1.15099 9.1567 1.30769 9 1.50099 9C1.69429 9 1.85099 9.1567 1.85099 9.35V9.89378L2.32192 9.62189C2.48932 9.52525 2.70338 9.5826 2.80002 9.75C2.89668 9.9174 2.83932 10.1315 2.67192 10.2281L2.20099 10.5L2.67192 10.7719C2.83932 10.8685 2.89668 11.0826 2.80003 11.25C2.70338 11.4174 2.48932 11.4748 2.32192 11.3781L1.85099 11.1062V11.65C1.85099 11.8433 1.69429 12 1.50099 12C1.30769 12 1.15099 11.8433 1.15099 11.65V11.1062L0.680059 11.3781C0.512656 11.4748 0.2986 11.4174 0.201949 11.25C0.1053 11.0826 0.162656 10.8685 0.330058 10.7719L0.800986 10.5L0.330058 10.2281C0.162656 10.1315 0.1053 9.9174 0.201949 9.75C0.2986 9.5826 0.512656 9.52524 0.680059 9.62189L1.15099 9.89378V9.35Z" fill="black"/>
<path d="M5.15099 9.35C5.15099 9.1567 5.30769 9 5.50099 9C5.69429 9 5.85099 9.1567 5.85099 9.35V9.89378L6.32192 9.62189C6.48932 9.52525 6.70338 9.5826 6.80002 9.75C6.89668 9.9174 6.83932 10.1315 6.67192 10.2281L6.20099 10.5L6.67192 10.7719C6.83932 10.8685 6.89668 11.0826 6.80003 11.25C6.70338 11.4174 6.48932 11.4748 6.32192 11.3781L5.85099 11.1062V11.65C5.85099 11.8433 5.69429 12 5.50099 12C5.30769 12 5.15099 11.8433 5.15099 11.65V11.1062L4.68006 11.3781C4.51266 11.4748 4.2986 11.4174 4.20195 11.25C4.1053 11.0826 4.16266 10.8685 4.33006 10.7719L4.80099 10.5L4.33006 10.2281C4.16266 10.1315 4.1053 9.9174 4.20195 9.75C4.2986 9.5826 4.51266 9.52524 4.68006 9.62189L5.15099 9.89378V9.35Z" fill="black"/>
<path d="M3.50099 12C3.30769 12 3.15099 12.1567 3.15099 12.35V12.8938L2.68006 12.6219C2.51266 12.5252 2.2986 12.5826 2.20195 12.75C2.1053 12.9174 2.16266 13.1315 2.33006 13.2281L2.80099 13.5L2.33006 13.7719C2.16266 13.8685 2.1053 14.0826 2.20195 14.25C2.2986 14.4174 2.51266 14.4748 2.68006 14.3781L3.15099 14.1062V14.65C3.15099 14.8433 3.30769 15 3.50099 15C3.69429 15 3.85099 14.8433 3.85099 14.65V14.1062L4.32192 14.3781C4.48932 14.4748 4.70338 14.4174 4.80003 14.25C4.89668 14.0826 4.83932 13.8685 4.67192 13.7719L4.20099 13.5L4.67192 13.2281C4.83932 13.1315 4.89668 12.9174 4.80002 12.75C4.70338 12.5826 4.48932 12.5252 4.32192 12.6219L3.85099 12.8938V12.35C3.85099 12.1567 3.69429 12 3.50099 12Z" fill="black"/>
<path d="M14.501 8.5C14.3077 8.5 14.151 8.6567 14.151 8.85V9.39378L13.6801 9.12189C13.5127 9.02524 13.2986 9.0826 13.2019 9.25C13.1053 9.4174 13.1627 9.63146 13.3301 9.72811L13.801 10L13.3301 10.2719C13.1627 10.3685 13.1053 10.5826 13.2019 10.75C13.2986 10.9174 13.5127 10.9748 13.6801 10.8781L14.151 10.6062V11.15C14.151 11.3433 14.3077 11.5 14.501 11.5C14.6943 11.5 14.851 11.3433 14.851 11.15V10.6062L15.3219 10.8781C15.4893 10.9748 15.7034 10.9174 15.8 10.75C15.8967 10.5826 15.8393 10.3685 15.6719 10.2719L15.201 10L15.6719 9.72811C15.8393 9.63146 15.8967 9.4174 15.8 9.25C15.7034 9.0826 15.4893 9.02525 15.3219 9.12189L14.851 9.39378V8.85C14.851 8.6567 14.6943 8.5 14.501 8.5Z" fill="black"/>
<path d="M10.151 12.85C10.151 12.6567 10.3077 12.5 10.501 12.5C10.6943 12.5 10.851 12.6567 10.851 12.85V13.3938L11.3219 13.1219C11.4893 13.0252 11.7034 13.0826 11.8 13.25C11.8967 13.4174 11.8393 13.6315 11.6719 13.7281L11.201 14L11.6719 14.2719C11.8393 14.3685 11.8967 14.5826 11.8 14.75C11.7034 14.9174 11.4893 14.9748 11.3219 14.8781L10.851 14.6062V15.15C10.851 15.3433 10.6943 15.5 10.501 15.5C10.3077 15.5 10.151 15.3433 10.151 15.15V14.6062L9.68006 14.8781C9.51266 14.9748 9.2986 14.9174 9.20195 14.75C9.1053 14.5826 9.16266 14.3685 9.33006 14.2719L9.80099 14L9.33006 13.7281C9.16266 13.6315 9.1053 13.4174 9.20195 13.25C9.2986 13.0826 9.51266 13.0252 9.68006 13.1219L10.151 13.3938V12.85Z" fill="black"/>
<path d="M14.501 12.5C14.3077 12.5 14.151 12.6567 14.151 12.85V13.3938L13.6801 13.1219C13.5127 13.0252 13.2986 13.0826 13.2019 13.25C13.1053 13.4174 13.1627 13.6315 13.3301 13.7281L13.801 14L13.3301 14.2719C13.1627 14.3685 13.1053 14.5826 13.2019 14.75C13.2986 14.9174 13.5127 14.9748 13.6801 14.8781L14.151 14.6062V15.15C14.151 15.3433 14.3077 15.5 14.501 15.5C14.6943 15.5 14.851 15.3433 14.851 15.15V14.6062L15.3219 14.8781C15.4893 14.9748 15.7034 14.9174 15.8 14.75C15.8967 14.5826 15.8393 14.3685 15.6719 14.2719L15.201 14L15.6719 13.7281C15.8393 13.6315 15.8967 13.4174 15.8 13.25C15.7034 13.0826 15.4893 13.0252 15.3219 13.1219L14.851 13.3938V12.85C14.851 12.6567 14.6943 12.5 14.501 12.5Z" fill="black"/>
<path d="M7.85705 0C7.64184 0 7.45077 0.137715 7.38271 0.341886L7.21604 0.841886C7.1946 0.906218 7.18693 0.970968 7.19109 1.03343C3.46247 1.34329 0.481342 3.77229 0.00186237 6.85651C-0.0317389 7.07265 0.397967 7.25041 0.593853 7.14003C1.00612 6.90772 1.64923 6.69549 2.62294 6.69549C3.98171 6.69549 4.69668 7.10877 5.039 7.41316C5.16922 7.52895 5.45372 7.52895 5.58394 7.41316C5.87836 7.15137 6.44843 6.80902 7.46667 6.71833V15.4667C7.46667 15.7612 7.70546 16 8.00001 16C8.29456 16 8.53334 15.7612 8.53334 15.4667V6.71834C9.55157 6.80902 10.1216 7.15137 10.4161 7.41316C10.5463 7.52895 10.8308 7.52895 10.961 7.41316C11.3033 7.10877 12.0183 6.69549 13.3771 6.69549C14.3508 6.69549 14.9939 6.90772 15.4061 7.14003C15.602 7.25041 16.0317 7.07265 15.9981 6.85651C15.5184 3.77047 12.534 1.34042 8.80229 1.03288C8.80637 0.97059 8.79868 0.90603 8.7773 0.841886L8.61063 0.341886C8.54258 0.137715 8.35151 0 8.13629 0H7.85705Z" fill="black"/>
</svg>
