<svg width="16" height="16" viewBox="0 0 16 16" fill="none" xmlns="http://www.w3.org/2000/svg">
<path d="M10.151 8.85C10.151 8.6567 10.3077 8.5 10.501 8.5C10.6943 8.5 10.851 8.6567 10.851 8.85V9.39378L11.3219 9.12189C11.4893 9.02525 11.7034 9.0826 11.8 9.25C11.8967 9.4174 11.8393 9.63146 11.6719 9.72811L11.201 10L11.6719 10.2719C11.8393 10.3685 11.8967 10.5826 11.8 10.75C11.7034 10.9174 11.4893 10.9748 11.3219 10.8781L10.851 10.6062V11.15C10.851 11.3433 10.6943 11.5 10.501 11.5C10.3077 11.5 10.151 11.3433 10.151 11.15V10.6062L9.68006 10.8781C9.51266 10.9748 9.2986 10.9174 9.20195 10.75C9.1053 10.5826 9.16266 10.3685 9.33006 10.2719L9.80099 10L9.33006 9.72811C9.16266 9.63146 9.1053 9.4174 9.20195 9.25C9.2986 9.0826 9.51266 9.02524 9.68006 9.12189L10.151 9.39378V8.85Z" fill="black"/>
<path d="M1.15099 9.35C1.15099 9.1567 1.30769 9 1.50099 9C1.69429 9 1.85099 9.1567 1.85099 9.35V9.89378L2.32192 9.62189C2.48932 9.52525 2.70338 9.5826 2.80003 9.75C2.89668 9.9174 2.83932 10.1315 2.67192 10.2281L2.20099 10.5L2.67192 10.7719C2.83932 10.8685 2.89668 11.0826 2.80003 11.25C2.70338 11.4174 2.48932 11.4748 2.32192 11.3781L1.85099 11.1062V11.65C1.85099 11.8433 1.69429 12 1.50099 12C1.30769 12 1.15099 11.8433 1.15099 11.65V11.1062L0.680059 11.3781C0.512657 11.4748 0.298601 11.4174 0.20195 11.25C0.105301 11.0826 0.162657 10.8685 0.330059 10.7719L0.800987 10.5L0.330059 10.2281C0.162657 10.1315 0.105301 9.9174 0.20195 9.75C0.298601 9.5826 0.512657 9.52524 0.680059 9.62189L1.15099 9.89378V9.35Z" fill="black"/>
<path d="M5.15099 9.35C5.15099 9.1567 5.30769 9 5.50099 9C5.69429 9 5.85099 9.1567 5.85099 9.35V9.89378L6.32192 9.62189C6.48932 9.52525 6.70338 9.5826 6.80003 9.75C6.89668 9.9174 6.83932 10.1315 6.67192 10.2281L6.20099 10.5L6.67192 10.7719C6.83932 10.8685 6.89668 11.0826 6.80003 11.25C6.70338 11.4174 6.48932 11.4748 6.32192 11.3781L5.85099 11.1062V11.65C5.85099 11.8433 5.69429 12 5.50099 12C5.30769 12 5.15099 11.8433 5.15099 11.65V11.1062L4.68006 11.3781C4.51266 11.4748 4.2986 11.4174 4.20195 11.25C4.1053 11.0826 4.16266 10.8685 4.33006 10.7719L4.80099 10.5L4.33006 10.2281C4.16266 10.1315 4.1053 9.9174 4.20195 9.75C4.2986 9.5826 4.51266 9.52524 4.68006 9.62189L5.15099 9.89378V9.35Z" fill="black"/>
<path d="M3.50099 12C3.30769 12 3.15099 12.1567 3.15099 12.35V12.8938L2.68006 12.6219C2.51266 12.5252 2.2986 12.5826 2.20195 12.75C2.1053 12.9174 2.16266 13.1315 2.33006 13.2281L2.80099 13.5L2.33006 13.7719C2.16266 13.8685 2.1053 14.0826 2.20195 14.25C2.2986 14.4174 2.51266 14.4748 2.68006 14.3781L3.15099 14.1062V14.65C3.15099 14.8433 3.30769 15 3.50099 15C3.69429 15 3.85099 14.8433 3.85099 14.65V14.1062L4.32192 14.3781C4.48932 14.4748 4.70338 14.4174 4.80003 14.25C4.89668 14.0826 4.83932 13.8685 4.67192 13.7719L4.20099 13.5L4.67192 13.2281C4.83932 13.1315 4.89668 12.9174 4.80003 12.75C4.70338 12.5826 4.48932 12.5252 4.32192 12.6219L3.85099 12.8938V12.35C3.85099 12.1567 3.69429 12 3.50099 12Z" fill="black"/>
<path d="M14.501 8.5C14.3077 8.5 14.151 8.6567 14.151 8.85V9.39378L13.6801 9.12189C13.5127 9.02524 13.2986 9.0826 13.202 9.25C13.1053 9.4174 13.1627 9.63146 13.3301 9.72811L13.801 10L13.3301 10.2719C13.1627 10.3685 13.1053 10.5826 13.202 10.75C13.2986 10.9174 13.5127 10.9748 13.6801 10.8781L14.151 10.6062V11.15C14.151 11.3433 14.3077 11.5 14.501 11.5C14.6943 11.5 14.851 11.3433 14.851 11.15V10.6062L15.3219 10.8781C15.4893 10.9748 15.7034 10.9174 15.8 10.75C15.8967 10.5826 15.8393 10.3685 15.6719 10.2719L15.201 10L15.6719 9.72811C15.8393 9.63146 15.8967 9.4174 15.8 9.25C15.7034 9.0826 15.4893 9.02525 15.3219 9.12189L14.851 9.39378V8.85C14.851 8.6567 14.6943 8.5 14.501 8.5Z" fill="black"/>
<path d="M10.151 12.85C10.151 12.6567 10.3077 12.5 10.501 12.5C10.6943 12.5 10.851 12.6567 10.851 12.85V13.3938L11.3219 13.1219C11.4893 13.0252 11.7034 13.0826 11.8 13.25C11.8967 13.4174 11.8393 13.6315 11.6719 13.7281L11.201 14L11.6719 14.2719C11.8393 14.3685 11.8967 14.5826 11.8 14.75C11.7034 14.9174 11.4893 14.9748 11.3219 14.8781L10.851 14.6062V15.15C10.851 15.3433 10.6943 15.5 10.501 15.5C10.3077 15.5 10.151 15.3433 10.151 15.15V14.6062L9.68006 14.8781C9.51266 14.9748 9.2986 14.9174 9.20195 14.75C9.1053 14.5826 9.16266 14.3685 9.33006 14.2719L9.80099 14L9.33006 13.7281C9.16266 13.6315 9.1053 13.4174 9.20195 13.25C9.2986 13.0826 9.51266 13.0252 9.68006 13.1219L10.151 13.3938V12.85Z" fill="black"/>
<path d="M14.501 12.5C14.3077 12.5 14.151 12.6567 14.151 12.85V13.3938L13.6801 13.1219C13.5127 13.0252 13.2986 13.0826 13.202 13.25C13.1053 13.4174 13.1627 13.6315 13.3301 13.7281L13.801 14L13.3301 14.2719C13.1627 14.3685 13.1053 14.5826 13.202 14.75C13.2986 14.9174 13.5127 14.9748 13.6801 14.8781L14.151 14.6062V15.15C14.151 15.3433 14.3077 15.5 14.501 15.5C14.6943 15.5 14.851 15.3433 14.851 15.15V14.6062L15.3219 14.8781C15.4893 14.9748 15.7034 14.9174 15.8 14.75C15.8967 14.5826 15.8393 14.3685 15.6719 14.2719L15.201 14L15.6719 13.7281C15.8393 13.6315 15.8967 13.4174 15.8 13.25C15.7034 13.0826 15.4893 13.0252 15.3219 13.1219L14.851 13.3938V12.85C14.851 12.6567 14.6943 12.5 14.501 12.5Z" fill="black"/>
<path d="M7.38604 0.341886C7.45409 0.137715 7.64516 0 7.86038 0H8.13962C8.35483 0 8.5459 0.137715 8.61396 0.341886L8.78063 0.841886C8.78669 0.860081 8.79166 0.878309 8.79556 0.896509C10.6513 1.03644 12.3313 1.66125 13.6036 2.61685C15.0556 3.70745 16 5.25206 16 7C16 7.19576 15.8858 7.37351 15.7077 7.45483C15.5302 7.53586 15.3219 7.50626 15.1741 7.37919L10.8259 7.37919L10.827 7.37828L15.1728 7.37807L15.1701 7.37588C15.1656 7.37218 15.1575 7.36557 15.1459 7.35648C15.1226 7.33827 15.0855 7.3102 15.0354 7.27548C14.935 7.20589 14.7842 7.11061 14.5906 7.01473C14.202 6.82229 13.6534 6.63334 13 6.63334C12.3466 6.63334 11.798 6.82229 11.4094 7.01473C11.2158 7.11061 11.065 7.20589 10.9646 7.27548C10.9145 7.3102 10.8774 7.33827 10.8541 7.35648C10.8425 7.36557 10.8344 7.37218 10.8299 7.37588L10.827 7.37828L10.1729 7.37819L10.1701 7.37588C10.1656 7.37218 10.1575 7.36557 10.1459 7.35648C10.1226 7.33827 10.0855 7.3102 10.0354 7.27548C9.93505 7.20589 9.7842 7.11061 9.5906 7.01473C9.30579 6.87368 8.935 6.73451 8.5 6.67023V7.37822L10.1729 7.37819L10.1741 7.37919L8.5 7.37822V15.5C8.5 15.7761 8.27614 16 8 16C7.72386 16 7.5 15.7761 7.5 15.5V7.37919L0.825913 7.37919C0.678071 7.50626 0.469764 7.53586 0.292314 7.45483C0.114241 7.37351 0 7.19576 0 7C0 5.25206 0.944434 3.70745 2.39641 2.61685C3.66866 1.66125 5.3487 1.03644 7.20444 0.896509C7.20834 0.878309 7.21331 0.860081 7.21937 0.841886L7.38604 0.341886ZM7.5 7.37919V6.67023C7.065 6.73451 6.69421 6.87368 6.4094 7.01473C6.2158 7.11061 6.06495 7.20589 5.96458 7.27548C5.91451 7.3102 5.87735 7.33827 5.8541 7.35648C5.84248 7.36557 5.83437 7.37218 5.82988 7.37588L5.82699 7.37828L7.5 7.37919ZM3 5.63334C3.80656 5.63334 4.48129 5.85514 4.96393 6.08442C4.98389 5.47987 5.08228 4.77364 5.31163 4.06239C5.5405 3.3526 5.90423 2.62582 6.4598 1.99199C5.11355 2.2149 3.92036 2.72286 2.99698 3.41642C2.03521 4.13882 1.37985 5.04914 1.12222 6.04453C1.59764 5.83009 2.24035 5.63334 3 5.63334ZM6.26337 4.36928C6.06402 4.9875 5.98022 5.60241 5.96329 6.11975L5.9656 6.1186C6.45202 5.87771 7.15339 5.63334 8 5.63334C8.84661 5.63334 9.54798 5.87771 10.0344 6.1186L10.0367 6.11975C10.0198 5.60241 9.93598 4.9875 9.73663 4.36928C9.44364 3.46067 8.91097 2.5718 8 1.95608C7.08903 2.5718 6.55636 3.46067 6.26337 4.36928ZM13 5.63334C13.7596 5.63334 14.4024 5.83009 14.8778 6.04453C14.6201 5.04914 13.9648 4.13882 13.003 3.41642C12.0796 2.72286 10.8864 2.2149 9.5402 1.99199C10.0958 2.62582 10.4595 3.3526 10.6884 4.06239C10.9177 4.77364 11.0161 5.47987 11.0361 6.08442C11.5187 5.85514 12.1934 5.63334 13 5.63334ZM0.829879 7.37588L0.825913 7.37919L5.17406 7.37917L5.17012 7.37588C5.16563 7.37218 5.15752 7.36557 5.1459 7.35648C5.12265 7.33827 5.08549 7.3102 5.03542 7.27548C4.93505 7.20589 4.7842 7.11061 4.5906 7.01473C4.20202 6.82229 3.65339 6.63334 3 6.63334C2.34661 6.63334 1.79798 6.82229 1.4094 7.01473C1.2158 7.11061 1.06495 7.20589 0.964577 7.27548C0.914506 7.3102 0.877354 7.33827 0.854098 7.35648C0.842481 7.36557 0.834367 7.37218 0.829879 7.37588ZM5.17406 7.37917C5.36146 7.54027 5.63858 7.54023 5.82598 7.37913L5.17406 7.37917Z" fill="black"/>
<path d="M10.1741 7.37919H10.8259C10.6385 7.54027 10.3615 7.54027 10.1741 7.37919Z" fill="black"/>
</svg>
