<svg width="16" height="16" viewBox="0 0 16 16" fill="none" xmlns="http://www.w3.org/2000/svg">
<path d="M3.57 15C3.57 15.2652 3.67536 15.5196 3.86289 15.7071C4.05043 15.8946 4.30478 16 4.57 16C4.83522 16 5.08957 15.8946 5.27711 15.7071C5.46464 15.5196 5.57 15.2652 5.57 15C5.57 14.5 5.01458 13.605 4.57 13C4.12542 13.605 3.57 14.5 3.57 15Z" fill="black"/>
<path d="M10.071 13C9.87769 13 9.72099 13.1567 9.72099 13.35V13.8938L9.25006 13.6219C9.08266 13.5252 8.8686 13.5826 8.77195 13.75C8.6753 13.9174 8.73266 14.1315 8.90006 14.2281L9.37099 14.5L8.90006 14.7719C8.73266 14.8685 8.6753 15.0826 8.77195 15.25C8.8686 15.4174 9.08266 15.4748 9.25006 15.3781L9.72099 15.1062V15.65C9.72099 15.8433 9.87769 16 10.071 16C10.2643 16 10.421 15.8433 10.421 15.65V15.1062L10.8919 15.3781C11.0593 15.4748 11.2734 15.4174 11.37 15.25C11.4667 15.0826 11.4093 14.8685 11.2419 14.7719L10.771 14.5L11.2419 14.2281C11.4093 14.1315 11.4667 13.9174 11.37 13.75C11.2734 13.5826 11.0593 13.5252 10.8919 13.6219L10.421 13.8938V13.35C10.421 13.1567 10.2643 13 10.071 13Z" fill="black"/>
<path d="M7.40623 12.5C8.76855 12.5 9.99514 11.9421 10.8516 11.0513C10.938 10.9614 11.0742 10.9332 11.1933 10.9765C11.5024 11.0886 11.8375 11.15 12.1875 11.15C13.7408 11.15 15 9.94117 15 8.45C15 6.95883 13.7408 5.75 12.1875 5.75C12.0295 5.75 11.8746 5.7625 11.7238 5.78653C11.5983 5.80651 11.4707 5.75345 11.4042 5.6494C10.5798 4.36002 9.09765 3.5 7.40623 3.5C5.72405 3.5 4.24882 4.35065 3.42185 5.62832C3.35858 5.72608 3.24078 5.77863 3.1216 5.76612C3.02009 5.75547 2.91696 5.75 2.8125 5.75C1.2592 5.75 0 6.95883 0 8.45C0 9.94117 1.2592 11.15 2.8125 11.15C3.1154 11.15 3.40712 11.104 3.68049 11.019C3.79476 10.9834 3.92146 11.012 4.0041 11.0957C4.85835 11.9606 6.06667 12.5 7.40623 12.5ZM11.0672 9.89352C10.9059 9.77792 10.6569 9.80641 10.5467 9.96816C9.87713 10.9508 8.72066 11.6 7.40623 11.6C6.12396 11.6 4.99201 10.9822 4.31577 10.0397C4.21044 9.89287 3.98975 9.86233 3.83414 9.95958C3.54023 10.1433 3.18935 10.25 2.8125 10.25C1.77697 10.25 0.9375 9.44411 0.9375 8.45C0.9375 7.45589 1.77697 6.65 2.8125 6.65C3.05316 6.65 3.28324 6.69353 3.49464 6.77283C3.66778 6.83778 3.87784 6.76486 3.95016 6.60046C4.51901 5.30744 5.85223 4.4 7.40623 4.4C8.98142 4.4 10.3298 5.33236 10.8851 6.65357C10.9606 6.83307 11.1995 6.90762 11.3815 6.82432C11.6257 6.71256 11.899 6.65 12.1875 6.65C13.223 6.65 14.0625 7.45589 14.0625 8.45C14.0625 9.44411 13.223 10.25 12.1875 10.25C11.7675 10.25 11.3798 10.1174 11.0672 9.89352Z" fill="black"/>
<path d="M15.466 4.215C15.439 4.21484 15.4121 4.2182 15.386 4.225C15.1234 4.29697 14.8523 4.33362 14.58 4.334C14.2188 4.33259 13.8604 4.27004 13.52 4.149C12.7705 3.88507 12.1469 3.35037 11.7716 2.64999C11.3964 1.9496 11.2966 1.13418 11.492 0.364C11.5034 0.321746 11.505 0.277462 11.4968 0.234488C11.4885 0.191514 11.4706 0.150972 11.4444 0.115921C11.4182 0.0808692 11.3844 0.0522228 11.3456 0.0321423C11.3067 0.0120617 11.2637 0.00107138 11.22 1.29937e-07C11.1844 -3.42515e-05 11.1491 0.0067547 11.116 0.0200001C10.4916 0.272832 9.95213 0.698296 9.56074 1.24659C9.16936 1.79488 8.94225 2.44332 8.90601 3.116C9.24535 3.17873 9.57718 3.27694 9.89601 3.409C9.87336 2.80575 10.0646 2.21391 10.436 1.738C10.4715 1.97779 10.5267 2.21426 10.601 2.445C10.7991 3.05641 11.136 3.61369 11.5853 4.07325C12.0347 4.5328 12.5842 4.88216 13.191 5.094C13.4655 5.18991 13.7489 5.25792 14.037 5.297C13.9604 5.35572 13.8806 5.41013 13.798 5.46C14.1024 5.63285 14.3797 5.8495 14.621 6.103C15.1223 5.71101 15.5091 5.19158 15.741 4.599C15.757 4.55528 15.762 4.50834 15.7557 4.46223C15.7494 4.41612 15.732 4.37224 15.7049 4.33441C15.6778 4.29657 15.6419 4.26592 15.6002 4.24511C15.5586 4.22431 15.5125 4.21397 15.466 4.215Z" fill="black"/>
</svg>
