<svg width="16" height="16" viewBox="0 0 16 16" fill="none" xmlns="http://www.w3.org/2000/svg">
<path d="M4.99598 13C4.80268 13 4.64598 13.1567 4.64598 13.35V13.8938L4.17505 13.6219C4.00765 13.5252 3.79359 13.5826 3.69694 13.75C3.60029 13.9174 3.65765 14.1315 3.82505 14.2281L4.29598 14.5L3.82505 14.7719C3.65765 14.8685 3.60029 15.0826 3.69694 15.25C3.79359 15.4174 4.00765 15.4748 4.17505 15.3781L4.64598 15.1062V15.65C4.64598 15.8433 4.80268 16 4.99598 16C5.18928 16 5.34598 15.8433 5.34598 15.65V15.1062L5.81691 15.3781C5.98431 15.4748 6.19837 15.4174 6.29502 15.25C6.39167 15.0826 6.33431 14.8685 6.16691 14.7719L5.69599 14.5L6.16691 14.2281C6.33431 14.1315 6.39167 13.9174 6.29502 13.75C6.19837 13.5826 5.98431 13.5252 5.81691 13.6219L5.34598 13.8938V13.35C5.34598 13.1567 5.18928 13 4.99598 13Z" fill="black"/>
<path d="M9.99598 13C9.80268 13 9.64598 13.1567 9.64598 13.35V13.8938L9.17505 13.6219C9.00765 13.5252 8.79359 13.5826 8.69694 13.75C8.60029 13.9174 8.65765 14.1315 8.82505 14.2281L9.29598 14.5L8.82505 14.7719C8.65765 14.8685 8.60029 15.0826 8.69694 15.25C8.79359 15.4174 9.00765 15.4748 9.17505 15.3781L9.64598 15.1062V15.65C9.64598 15.8433 9.80268 16 9.99598 16C10.1893 16 10.346 15.8433 10.346 15.65V15.1062L10.8169 15.3781C10.9843 15.4748 11.1984 15.4174 11.295 15.25C11.3917 15.0826 11.3343 14.8685 11.1669 14.7719L10.696 14.5L11.1669 14.2281C11.3343 14.1315 11.3917 13.9174 11.295 13.75C11.1984 13.5826 10.9843 13.5252 10.8169 13.6219L10.346 13.8938V13.35C10.346 13.1567 10.1893 13 9.99598 13Z" fill="black"/>
<path d="M10.9944 10.8957C10.1346 11.8767 8.84622 12.5 7.40623 12.5C5.99447 12.5 4.72847 11.9009 3.8691 10.953C3.54288 11.08 3.1862 11.15 2.8125 11.15C1.2592 11.15 0 9.94117 0 8.45C0 6.95883 1.2592 5.75 2.8125 5.75C2.9857 5.75 3.15524 5.76503 3.31978 5.7938C4.12358 4.42463 5.65243 3.5 7.40623 3.5C9.17469 3.5 10.7144 4.44015 11.5127 5.82822C11.7289 5.77711 11.9549 5.75 12.1875 5.75C13.7408 5.75 15 6.95883 15 8.45C15 9.94117 13.7408 11.15 12.1875 11.15C11.761 11.15 11.3566 11.0588 10.9944 10.8957Z" fill="black"/>
<path d="M15.466 4.215C15.439 4.21484 15.4121 4.2182 15.386 4.225C15.1234 4.29697 14.8523 4.33362 14.58 4.334C14.2188 4.33259 13.8604 4.27004 13.52 4.149C12.7705 3.88507 12.1469 3.35037 11.7716 2.64999C11.3964 1.9496 11.2966 1.13418 11.492 0.364C11.5034 0.321746 11.505 0.277462 11.4968 0.234488C11.4885 0.191514 11.4706 0.150972 11.4444 0.115921C11.4182 0.0808692 11.3844 0.0522228 11.3456 0.0321423C11.3067 0.0120617 11.2637 0.00107138 11.22 1.29937e-07C11.1844 -3.42515e-05 11.1491 0.0067547 11.116 0.0200001C10.4916 0.272832 9.95213 0.698296 9.56074 1.24659C9.16936 1.79488 8.94225 2.44332 8.90601 3.116C9.24535 3.17873 9.57718 3.27694 9.89601 3.409C9.87336 2.80575 10.0646 2.21391 10.436 1.738C10.4715 1.97779 10.5267 2.21426 10.601 2.445C10.7991 3.05641 11.136 3.61369 11.5853 4.07325C12.0347 4.5328 12.5842 4.88216 13.191 5.094C13.4655 5.18991 13.7489 5.25792 14.037 5.297C13.9604 5.35572 13.8806 5.41013 13.798 5.46C14.1024 5.63285 14.3797 5.8495 14.621 6.103C15.1223 5.71101 15.5091 5.19158 15.741 4.599C15.757 4.55528 15.762 4.50834 15.7557 4.46223C15.7494 4.41612 15.732 4.37224 15.7049 4.33441C15.6778 4.29657 15.6419 4.26592 15.6002 4.24511C15.5586 4.22431 15.5125 4.21397 15.466 4.215Z" fill="black"/>
</svg>
