<svg width="16" height="16" viewBox="0 0 16 16" fill="none" xmlns="http://www.w3.org/2000/svg">
<path d="M8.5001 0.5C8.5001 0.223858 8.27624 0 8.0001 0C7.72396 0 7.5001 0.223858 7.5001 0.5V1.79289L6.85365 1.14645C6.65839 0.951184 6.34181 0.951184 6.14655 1.14645C5.95128 1.34171 5.95128 1.65829 6.14655 1.85355L7.5001 3.20711V5C7.5001 5.01387 7.50066 5.0276 7.50177 5.04118C6.77518 5.16264 6.13704 5.54524 5.68712 6.08922C5.67583 6.0814 5.66412 6.07398 5.652 6.06698L4.09931 5.17054L3.60388 3.32155C3.53241 3.05482 3.25824 2.89652 2.99151 2.968C2.72477 3.03947 2.56648 3.31363 2.63795 3.58037L2.87457 4.46343L1.75489 3.81698C1.51574 3.67891 1.20995 3.76085 1.07188 4C0.933806 4.23914 1.01574 4.54494 1.25489 4.68301L2.37457 5.32946L1.49151 5.56607C1.22477 5.63754 1.06648 5.91171 1.13795 6.17844C1.20942 6.44518 1.48359 6.60347 1.75033 6.532L3.59931 6.03656L5.152 6.93301C5.1639 6.93988 5.17596 6.9462 5.18815 6.95198C5.0665 7.27823 5.00001 7.63135 5.00001 8C5.00001 8.36865 5.0665 8.72177 5.18815 9.04802C5.17597 9.05381 5.16392 9.06012 5.15204 9.06698L3.59934 9.96343L1.75036 9.46799C1.48362 9.39652 1.20945 9.55482 1.13798 9.82155C1.06651 10.0883 1.2248 10.3624 1.49154 10.4339L2.3746 10.6705L1.25492 11.317C1.01577 11.4551 0.933837 11.7608 1.07191 12C1.20998 12.2391 1.51577 12.3211 1.75492 12.183L2.8746 11.5366L2.63798 12.4196C2.56651 12.6864 2.7248 12.9605 2.99154 13.032C3.25827 13.1035 3.53244 12.9452 3.60391 12.6784L4.09934 10.8295L5.65203 9.93301C5.66414 9.92602 5.67584 9.9186 5.68713 9.91078C6.13705 10.4548 6.77519 10.8374 7.50177 10.9588C7.50066 10.9724 7.5001 10.9861 7.5001 11V12.7929L6.14655 14.1464C5.95128 14.3417 5.95128 14.6583 6.14655 14.8536C6.34181 15.0488 6.65839 15.0488 6.85365 14.8536L7.5001 14.2071V15.5C7.5001 15.7761 7.72396 16 8.0001 16C8.27624 16 8.5001 15.7761 8.5001 15.5V14.2071L9.14655 14.8536C9.34181 15.0488 9.65839 15.0488 9.85365 14.8536C10.0489 14.6583 10.0489 14.3417 9.85365 14.1464L8.5001 12.7929V11C8.5001 10.9861 8.49953 10.9724 8.49842 10.9588C9.22497 10.8373 9.86306 10.4547 10.3129 9.91071C10.3243 9.91855 10.336 9.926 10.3482 9.93301L11.9008 10.8295L12.3963 12.6784C12.4678 12.9452 12.7419 13.1035 13.0087 13.032C13.2754 12.9605 13.4337 12.6864 13.3622 12.4196L13.1256 11.5366L14.2453 12.183C14.4844 12.3211 14.7902 12.2391 14.9283 12C15.0664 11.7608 14.9844 11.4551 14.7453 11.317L13.6256 10.6705L14.5087 10.4339C14.7754 10.3624 14.9337 10.0883 14.8622 9.82155C14.7907 9.55482 14.5166 9.39652 14.2498 9.46799L12.4008 9.96343L10.8482 9.06698C10.8362 9.06009 10.8241 9.05375 10.8119 9.04795C10.9335 8.72172 11 8.36862 11 8C11 7.63138 10.9335 7.27828 10.8119 6.95206C10.8241 6.94625 10.8362 6.9399 10.8482 6.93301L12.4009 6.03656L14.2499 6.532C14.5166 6.60347 14.7908 6.44518 14.8622 6.17844C14.9337 5.91171 14.7754 5.63754 14.5087 5.56607L13.6256 5.32946L14.7453 4.68301C14.9844 4.54494 15.0664 4.23914 14.9283 4C14.7902 3.76085 14.4844 3.67891 14.2453 3.81698L13.1256 4.46343L13.3622 3.58037C13.4337 3.31363 13.2754 3.03947 13.0087 2.968C12.742 2.89652 12.4678 3.05482 12.3963 3.32155L11.9009 5.17054L10.3482 6.06698C10.336 6.074 10.3243 6.08145 10.313 6.0893C9.86307 5.54532 9.22497 5.1627 8.49842 5.04121C8.49953 5.02762 8.5001 5.01388 8.5001 5V3.20711L9.85365 1.85355C10.0489 1.65829 10.0489 1.34171 9.85365 1.14645C9.65839 0.951184 9.34181 0.951184 9.14655 1.14645L8.5001 1.79289V0.5Z" fill="black"/>
</svg>
