<svg width="16" height="16" viewBox="0 0 16 16" fill="none" xmlns="http://www.w3.org/2000/svg">
<path d="M15.6301 9.37923C15.5887 9.22918 15.4899 9.1014 15.3551 9.02347C15.2204 8.94553 15.0603 8.92368 14.9096 8.96264L12.2807 9.66755L11.1081 8.9897C11.355 8.27493 11.3311 7.49448 11.041 6.79612L12.2642 6.09003L14.7459 6.75493C14.7959 6.76776 14.8473 6.77448 14.899 6.77493C15.0419 6.77514 15.18 6.72338 15.2875 6.62931C15.395 6.53524 15.4647 6.40528 15.4834 6.26367C15.5021 6.12206 15.4687 5.97848 15.3893 5.8597C15.3099 5.74092 15.1901 5.65505 15.052 5.61812L13.7064 5.25802L14.6588 4.70844C14.7292 4.67166 14.7913 4.62103 14.8416 4.5596C14.8919 4.49818 14.9292 4.42722 14.9513 4.35101C14.9734 4.27479 14.9799 4.19489 14.9703 4.11611C14.9607 4.03733 14.9353 3.9613 14.8956 3.8926C14.8559 3.82389 14.8026 3.76393 14.7391 3.71632C14.6756 3.66871 14.6031 3.63443 14.526 3.61555C14.4489 3.59667 14.3688 3.59358 14.2904 3.60646C14.2121 3.61934 14.1372 3.64792 14.0702 3.6905L13.0271 4.29303L13.425 2.80435C13.4653 2.65361 13.4442 2.49304 13.3663 2.35782C13.2884 2.2226 13.1601 2.12376 13.0094 2.08297C12.8589 2.04522 12.6996 2.06745 12.5651 2.14497C12.4307 2.22249 12.3316 2.34922 12.2889 2.49838L11.5849 5.12504L10.4124 5.80053C9.90555 5.24413 9.22167 4.88029 8.4769 4.77081V3.3504L10.2923 1.53575C10.3995 1.42477 10.4588 1.27614 10.4575 1.12186C10.4561 0.96758 10.3942 0.82 10.2851 0.710904C10.176 0.601808 10.0283 0.539926 9.87398 0.538585C9.71964 0.537245 9.57095 0.596553 9.45993 0.703736L8.4769 1.68638V0.588408C8.4769 0.432353 8.41488 0.282689 8.30449 0.172341C8.1941 0.0619928 8.04438 0 7.88826 0C7.73214 0 7.58242 0.0619928 7.47203 0.172341C7.36164 0.282689 7.29962 0.432353 7.29962 0.588408V1.79229L6.20828 0.703736C6.15398 0.647537 6.08903 0.602711 6.01721 0.571873C5.94539 0.541035 5.86815 0.524803 5.78999 0.524124C5.71183 0.523445 5.63432 0.538333 5.56198 0.567919C5.48964 0.597505 5.42392 0.641196 5.36865 0.696443C5.31338 0.75169 5.26967 0.817387 5.24007 0.8897C5.21047 0.962014 5.19558 1.03949 5.19626 1.11762C5.19694 1.19575 5.21318 1.27296 5.24403 1.34475C5.27488 1.41654 5.31972 1.48147 5.37594 1.53575L7.29844 3.45631V4.80141C6.56264 4.96591 5.90634 5.37958 5.44069 5.97234L4.20808 5.26037L3.54292 2.77964C3.52282 2.705 3.48821 2.63504 3.44106 2.57377C3.39392 2.51249 3.33516 2.4611 3.26815 2.42253C3.20114 2.38395 3.12718 2.35895 3.0505 2.34895C2.97382 2.33894 2.89592 2.34413 2.82124 2.36422C2.74657 2.38432 2.67659 2.41891 2.61529 2.46604C2.55399 2.51316 2.50258 2.5719 2.46399 2.63888C2.38605 2.77417 2.36507 2.93486 2.40566 3.08561L2.76591 4.42836L1.81702 3.88114C1.75002 3.83857 1.6751 3.80998 1.59677 3.7971C1.51843 3.78422 1.4383 3.78732 1.36119 3.8062C1.28408 3.82508 1.21158 3.85935 1.14807 3.90696C1.08456 3.95458 1.03133 4.01454 0.991604 4.08324C0.951874 4.15195 0.926458 4.22798 0.916885 4.30676C0.907312 4.38554 0.91378 4.46544 0.9359 4.54165C0.958019 4.61787 0.995333 4.68882 1.0456 4.75025C1.09586 4.81168 1.15804 4.8623 1.22838 4.89909L2.27145 5.50162L0.782192 5.90056C0.645253 5.9383 0.526586 6.02427 0.448079 6.1426C0.369572 6.26094 0.336521 6.40366 0.355022 6.54444C0.373523 6.68522 0.442328 6.81457 0.548747 6.90862C0.655165 7.00267 0.792017 7.05509 0.934061 7.05619C0.985651 7.05614 1.03704 7.04981 1.08711 7.03736L3.7148 6.33245L4.88737 7.0103C4.6405 7.72507 4.66438 8.50552 4.95448 9.20388L3.73128 9.90997L1.24957 9.24507C1.09885 9.20667 0.939079 9.2286 0.804286 9.30619C0.669494 9.38378 0.570326 9.5109 0.527899 9.66049C0.487614 9.81139 0.508872 9.9721 0.587008 10.1074C0.665143 10.2426 0.793771 10.3413 0.944657 10.3819L2.28911 10.742L1.33669 11.2916C1.22506 11.3566 1.13793 11.4565 1.08875 11.5759C1.03956 11.6954 1.03105 11.8276 1.06452 11.9524C1.09799 12.0771 1.17159 12.1874 1.27397 12.2662C1.37635 12.345 1.50181 12.3879 1.63101 12.3883C1.73439 12.3887 1.836 12.3615 1.92533 12.3095L2.9684 11.707L2.57048 13.1956C2.53016 13.3464 2.55125 13.507 2.62915 13.6422C2.70705 13.7774 2.83539 13.8762 2.98606 13.917C3.03608 13.9299 3.08747 13.9366 3.13911 13.937C3.2684 13.9368 3.39403 13.8941 3.49659 13.8154C3.59915 13.7367 3.67294 13.6264 3.70656 13.5016L4.41057 10.875L5.58314 10.1995C6.08995 10.7559 6.77383 11.1197 7.51859 11.2292V12.6496L5.70323 14.4643C5.596 14.5752 5.53667 14.7239 5.53801 14.8781C5.53935 15.0324 5.60126 15.18 5.7104 15.2891C5.81954 15.3982 5.96718 15.4601 6.12151 15.4614C6.27585 15.4628 6.42455 15.4034 6.53556 15.2963L7.51859 14.3136V15.4116C7.51859 15.5676 7.58061 15.7173 7.691 15.8277C7.8014 15.938 7.95112 16 8.10724 16C8.26335 16 8.41308 15.938 8.52347 15.8277C8.63386 15.7173 8.69588 15.5676 8.69588 15.4116V14.2077L9.78604 15.2963C9.89706 15.4034 10.0457 15.4628 10.2001 15.4614C10.3544 15.4601 10.5021 15.3982 10.6112 15.2891C10.7203 15.18 10.7823 15.0324 10.7836 14.8781C10.7849 14.7239 10.7256 14.5752 10.6184 14.4643L8.69588 12.5437V11.1986C9.43167 11.0341 10.088 10.6204 10.5536 10.0277L11.7862 10.7396L12.4514 13.2192C12.485 13.344 12.5588 13.4542 12.6614 13.5329C12.7639 13.6116 12.8896 13.6544 13.0189 13.6546C13.0704 13.6545 13.1218 13.6482 13.1719 13.6358C13.3228 13.5952 13.4514 13.4965 13.5295 13.3612C13.6077 13.226 13.6289 13.0653 13.5887 12.9144L13.2284 11.5716L14.1785 12.12C14.2678 12.1721 14.3694 12.1993 14.4728 12.1989C14.602 12.1984 14.7275 12.1555 14.8298 12.0767C14.9322 11.9979 15.0058 11.8877 15.0393 11.7629C15.0728 11.6382 15.0642 11.5059 15.0151 11.3865C14.9659 11.267 14.8787 11.1671 14.7671 11.1021L13.724 10.4996L15.2133 10.1006C15.3642 10.0601 15.4928 9.96134 15.571 9.82609C15.6491 9.69084 15.6703 9.53013 15.6301 9.37923ZM7.99775 10.1006C7.58217 10.1004 7.17599 9.97699 6.83057 9.74603C6.48514 9.51507 6.21598 9.18691 6.0571 8.80306C5.89823 8.4192 5.85678 7.99687 5.938 7.58947C6.01922 7.18207 6.21945 6.80788 6.51339 6.51422C6.80733 6.22056 7.18178 6.02062 7.58939 5.93966C7.99699 5.8587 8.41947 5.90037 8.80339 6.05939C9.18731 6.21842 9.51544 6.48766 9.7463 6.83308C9.97715 7.1785 10.1004 7.58459 10.1004 8C10.0994 8.55704 9.87757 9.09097 9.48342 9.48475C9.08927 9.87852 8.555 10.1 7.99775 10.1006Z" fill="black"/>
</svg>
