<svg width="16" height="16" viewBox="0 0 16 16" fill="none" xmlns="http://www.w3.org/2000/svg">
<path d="M12.543 4.487C10.962 4.487 8.667 6.199 7.973 7.375C7.282 6.2 4.987 4.487 3.406 4.487C2.49618 4.5088 1.63095 4.88553 0.995176 5.53672C0.359401 6.18791 0.00349426 7.06191 0.00349426 7.972C0.00349426 8.88209 0.359401 9.75609 0.995176 10.4073C1.63095 11.0585 2.49618 11.4352 3.406 11.457C4.986 11.457 7.282 9.707 7.975 8.551C8.668 9.707 10.963 11.457 12.544 11.457C13.4538 11.4352 14.3191 11.0585 14.9548 10.4073C15.5906 9.75609 15.9465 8.88209 15.9465 7.972C15.9465 7.06191 15.5906 6.18791 14.9548 5.53672C14.3191 4.88553 13.4538 4.5088 12.544 4.487H12.543ZM3.405 10.457C2.75814 10.4386 2.14393 10.1688 1.69289 9.70476C1.24184 9.24073 0.989507 8.61912 0.989507 7.972C0.989507 7.32488 1.24184 6.70326 1.69289 6.23924C2.14393 5.77521 2.75814 5.50535 3.405 5.487C4.714 5.487 6.867 7.232 7.167 7.963C6.861 8.638 4.749 10.457 3.405 10.457ZM12.543 10.457C11.198 10.457 9.086 8.637 8.781 7.963C9.081 7.233 11.233 5.487 12.543 5.487C13.1899 5.50535 13.8041 5.77521 14.2551 6.23924C14.7062 6.70326 14.9585 7.32488 14.9585 7.972C14.9585 8.61912 14.7062 9.24073 14.2551 9.70476C13.8041 10.1688 13.1899 10.4386 12.543 10.457Z" fill="black"/>
</svg>
