<svg width="16" height="16" viewBox="0 0 16 16" fill="none" xmlns="http://www.w3.org/2000/svg">
<path d="M4.5 1.75C4.5 2.16421 4.16421 2.5 3.75 2.5C3.33579 2.5 3 2.16421 3 1.75C3 1.33579 3.33579 1 3.75 1C4.16421 1 4.5 1.33579 4.5 1.75Z" fill="black"/>
<path d="M8.5 1.75C8.5 2.16421 8.16421 2.5 7.75 2.5C7.33579 2.5 7 2.16421 7 1.75C7 1.33579 7.33579 1 7.75 1C8.16421 1 8.5 1.33579 8.5 1.75Z" fill="black"/>
<path d="M5.75 4.5C6.16421 4.5 6.5 4.16421 6.5 3.75C6.5 3.33579 6.16421 3 5.75 3C5.33579 3 5 3.33579 5 3.75C5 4.16421 5.33579 4.5 5.75 4.5Z" fill="black"/>
<path d="M3.5 5.75C3.5 6.16421 3.16421 6.5 2.75 6.5C2.33579 6.5 2 6.16421 2 5.75C2 5.33579 2.33579 5 2.75 5C3.16421 5 3.5 5.33579 3.5 5.75Z" fill="black"/>
<path d="M5.75 7.5C6.16421 7.5 6.5 7.16421 6.5 6.75C6.5 6.33579 6.16421 6 5.75 6C5.33579 6 5 6.33579 5 6.75C5 7.16421 5.33579 7.5 5.75 7.5Z" fill="black"/>
<path d="M2.5 10.75C2.5 11.1642 2.16421 11.5 1.75 11.5C1.33579 11.5 1 11.1642 1 10.75C1 10.3358 1.33579 10 1.75 10C2.16421 10 2.5 10.3358 2.5 10.75Z" fill="black"/>
<path d="M2.75 15.5C3.16421 15.5 3.5 15.1642 3.5 14.75C3.5 14.3358 3.16421 14 2.75 14C2.33579 14 2 14.3358 2 14.75C2 15.1642 2.33579 15.5 2.75 15.5Z" fill="black"/>
<path d="M6 10.5C6 10.7761 5.77614 11 5.5 11C5.22386 11 5 10.7761 5 10.5C5 10.2239 5.22386 10 5.5 10C5.77614 10 6 10.2239 6 10.5Z" fill="black"/>
<path d="M9.75 5.5C10.1642 5.5 10.5 5.16421 10.5 4.75C10.5 4.33579 10.1642 4 9.75 4C9.33579 4 9 4.33579 9 4.75C9 5.16421 9.33579 5.5 9.75 5.5Z" fill="black"/>
<path d="M15.9989 5.10641C15.9989 3.24287 13.501 1.64838 9.9684 1C11.8733 1.80827 13.0679 2.9683 13.0679 4.25734C13.0679 6.69649 8.79301 8.67472 3.5187 8.67472C2.33924 8.67688 1.16186 8.57247 0 8.36266C2.06052 9.16693 4.24964 9.56091 6.45184 9.52379C8.52655 9.55252 10.5903 9.20775 12.5506 8.5049C12.5575 8.56345 12.5611 8.62236 12.5613 8.68133C12.5613 10.5107 9.35511 11.9938 5.40017 11.9938C4.51567 11.9959 3.63269 11.9176 2.76142 11.76C4.30612 12.3634 5.94736 12.659 7.59843 12.6312C9.04489 12.6465 10.4847 12.4262 11.8648 11.9784C11.8659 11.9982 11.8712 12.017 11.8712 12.0357C11.8712 13.4086 9.46603 14.5201 6.49983 14.5201C5.83631 14.5219 5.17391 14.4636 4.52023 14.3458C5.6791 14.7981 6.91027 15.0196 8.14879 14.9986C11.1139 14.9986 13.5202 13.886 13.5202 12.5132C13.5103 12.3148 13.4615 12.1205 13.3766 11.9423C13.2917 11.7641 13.1725 11.6056 13.0263 11.4767C14.1057 10.8977 14.7606 10.1424 14.7606 9.31758C14.743 9.02485 14.6642 8.73954 14.5298 8.48125C14.3954 8.22295 14.2085 7.99779 13.982 7.82123C14.519 7.59126 14.9881 7.2194 15.3423 6.74292C15.6965 6.26644 15.9233 5.70208 16 5.10641H15.9989Z" fill="black"/>
</svg>
