<svg width="16" height="16" viewBox="0 0 16 16" fill="none" xmlns="http://www.w3.org/2000/svg">
<path d="M15.6869 5.95869C15.8641 5.64343 15.9685 5.30592 15.9952 4.96195C16.1629 2.22902 11.8729 1.07223 11.6911 1.02361C11.545 0.985194 11.3855 0.99392 11.2476 1.04787C11.1097 1.10182 11.0048 1.19657 10.9559 1.31129C10.9069 1.426 10.9181 1.55128 10.9867 1.65956C11.0554 1.76784 11.1761 1.85025 11.3222 1.88867C11.3583 1.89778 14.9608 2.87528 14.8357 4.91738C14.8052 5.23543 14.6904 5.54498 14.4988 5.82617C14.3071 6.10736 14.0427 6.35399 13.7225 6.55025C11.5518 8.02713 6.41438 8.69973 0.637245 8.2672C0.484546 8.25747 0.333009 8.29472 0.21461 8.37107C0.0962113 8.44742 0.0202126 8.55691 0.00265094 8.67643C-0.00463614 8.7361 0.00313617 8.79632 0.0255229 8.85363C0.0479097 8.91094 0.0844711 8.96422 0.133114 9.01042C0.181757 9.05662 0.241525 9.09483 0.308997 9.12286C0.376469 9.15089 0.45032 9.1682 0.52632 9.17379C1.74263 9.26495 2.9254 9.30952 4.06044 9.30952C8.69092 9.30952 12.5256 8.57007 14.4822 7.23906C14.4951 7.23095 14.5029 7.22082 14.5158 7.21272C14.4968 7.60898 14.4242 8.00254 14.2991 8.38673C13.5626 10.2475 9.50609 11.9736 3.45165 11.5238C3.29896 11.5144 3.14758 11.5519 3.02943 11.6284C2.91128 11.705 2.83559 11.8146 2.81834 11.9341C2.80397 12.0543 2.8509 12.174 2.94884 12.2671C3.04677 12.3601 3.18771 12.4189 3.34072 12.4304C4.05013 12.4851 4.73116 12.5104 5.38768 12.5104C9.40807 12.5104 12.394 11.5552 14.0643 10.2708C14.0479 10.6193 13.9715 10.9645 13.8373 11.2969C13.5149 12.0141 12.104 14.0955 7.77862 14.0955C7.58816 14.0955 5.46854 14.0778 5.39466 14.0955C5.32077 14.1132 5.25237 14.1427 5.19379 14.1822C5.13521 14.2218 5.08773 14.2704 5.05437 14.3251C5.02101 14.3798 5.00249 14.4394 5 14.5C4.98826 14.6205 5.03791 14.7397 5.13804 14.8314C5.23817 14.9232 5.38059 14.9799 5.53399 14.9893C5.81001 15.0055 8.24117 15 8.5 15C9.5 15 11.0843 14.7715 12.2905 14.1616C13.4968 13.5518 14.4223 12.6542 14.9311 11.6008C15.2199 10.7667 15.3095 9.8978 15.1955 9.03805L15.1916 9.03096C15.2734 8.90991 15.3458 8.78509 15.4083 8.65718C15.6431 7.80226 15.7444 6.92807 15.7102 6.05391C15.7062 6.02168 15.6984 5.9898 15.6869 5.95869Z" fill="black"/>
<path d="M4.5 1.75C4.5 2.16421 4.16421 2.5 3.75 2.5C3.33579 2.5 3 2.16421 3 1.75C3 1.33579 3.33579 1 3.75 1C4.16421 1 4.5 1.33579 4.5 1.75Z" fill="black"/>
<path d="M8.5 1.75C8.5 2.16421 8.16421 2.5 7.75 2.5C7.33579 2.5 7 2.16421 7 1.75C7 1.33579 7.33579 1 7.75 1C8.16421 1 8.5 1.33579 8.5 1.75Z" fill="black"/>
<path d="M5.75 4.5C6.16421 4.5 6.5 4.16421 6.5 3.75C6.5 3.33579 6.16421 3 5.75 3C5.33579 3 5 3.33579 5 3.75C5 4.16421 5.33579 4.5 5.75 4.5Z" fill="black"/>
<path d="M3.5 5.75C3.5 6.16421 3.16421 6.5 2.75 6.5C2.33579 6.5 2 6.16421 2 5.75C2 5.33579 2.33579 5 2.75 5C3.16421 5 3.5 5.33579 3.5 5.75Z" fill="black"/>
<path d="M5.75 7.5C6.16421 7.5 6.5 7.16421 6.5 6.75C6.5 6.33579 6.16421 6 5.75 6C5.33579 6 5 6.33579 5 6.75C5 7.16421 5.33579 7.5 5.75 7.5Z" fill="black"/>
<path d="M2.5 10.75C2.5 11.1642 2.16421 11.5 1.75 11.5C1.33579 11.5 1 11.1642 1 10.75C1 10.3358 1.33579 10 1.75 10C2.16421 10 2.5 10.3358 2.5 10.75Z" fill="black"/>
<path d="M2.75 15.5C3.16421 15.5 3.5 15.1642 3.5 14.75C3.5 14.3358 3.16421 14 2.75 14C2.33579 14 2 14.3358 2 14.75C2 15.1642 2.33579 15.5 2.75 15.5Z" fill="black"/>
<path d="M6 10.5C6 10.7761 5.77614 11 5.5 11C5.22386 11 5 10.7761 5 10.5C5 10.2239 5.22386 10 5.5 10C5.77614 10 6 10.2239 6 10.5Z" fill="black"/>
<path d="M9.75 5.5C10.1642 5.5 10.5 5.16421 10.5 4.75C10.5 4.33579 10.1642 4 9.75 4C9.33579 4 9 4.33579 9 4.75C9 5.16421 9.33579 5.5 9.75 5.5Z" fill="black"/>
</svg>
