<svg width="16" height="16" viewBox="0 0 16 16" fill="none" xmlns="http://www.w3.org/2000/svg">
<path d="M7 1.5C7 1.77614 6.77614 2 6.5 2C6.22386 2 6 1.77614 6 1.5C6 1.22386 6.22386 1 6.5 1C6.77614 1 7 1.22386 7 1.5Z" fill="black"/>
<path d="M3 8.5C3 8.77614 2.77614 9 2.5 9C2.22386 9 2 8.77614 2 8.5C2 8.22386 2.22386 8 2.5 8C2.77614 8 3 8.22386 3 8.5Z" fill="black"/>
<path d="M7.5 8C7.77614 8 8 7.77614 8 7.5C8 7.22386 7.77614 7 7.5 7C7.22386 7 7 7.22386 7 7.5C7 7.77614 7.22386 8 7.5 8Z" fill="black"/>
<path d="M7.5 14.75C7.5 15.1642 7.16421 15.5 6.75 15.5C6.33579 15.5 6 15.1642 6 14.75C6 14.3358 6.33579 14 6.75 14C7.16421 14 7.5 14.3358 7.5 14.75Z" fill="black"/>
<path d="M13.75 13.5C14.1642 13.5 14.5 13.1642 14.5 12.75C14.5 12.3358 14.1642 12 13.75 12C13.3358 12 13 12.3358 13 12.75C13 13.1642 13.3358 13.5 13.75 13.5Z" fill="black"/>
<path d="M10 4C10 4.55228 9.55229 5 9 5C8.44771 5 8 4.55228 8 4C8 3.44772 8.44771 3 9 3C9.55229 3 10 3.44772 10 4Z" fill="black"/>
<path d="M5 7C5.55228 7 6 6.55228 6 6C6 5.44772 5.55228 5 5 5C4.44772 5 4 5.44772 4 6C4 6.55228 4.44772 7 5 7Z" fill="black"/>
<path d="M11.5 14.25C11.5 14.9404 10.9404 15.5 10.25 15.5C9.55964 15.5 9 14.9404 9 14.25C9 13.5596 9.55964 13 10.25 13C10.9404 13 11.5 13.5596 11.5 14.25Z" fill="black"/>
<path d="M2 4C2.55228 4 3 3.55228 3 3C3 2.44772 2.55228 2 2 2C1.44772 2 1 2.44772 1 3C1 3.55228 1.44772 4 2 4Z" fill="black"/>
<path d="M9.96907 1C11.8741 2.04278 13.0688 3.53796 13.0688 5.201C13.0688 8.34927 8.7936 10.9015 3.51893 10.9015C2.33943 10.9047 1.16197 10.7705 0 10.5003C2.0604 11.5372 4.24928 12.045 6.4512 11.9969C8.5264 12.034 10.5906 11.5892 12.5515 10.6824C13.0566 10.4781 13.538 10.1813 13.9819 9.80034C15.2235 8.78174 16 7.61804 16 6.29784C16 3.89361 13.5019 1.8365 9.96907 1Z" fill="black"/>
</svg>
