<svg width="16" height="16" viewBox="0 0 16 16" fill="none" xmlns="http://www.w3.org/2000/svg">
<path d="M7 1.5C7 1.77614 6.77614 2 6.5 2C6.22386 2 6 1.77614 6 1.5C6 1.22386 6.22386 1 6.5 1C6.77614 1 7 1.22386 7 1.5Z" fill="black"/>
<path d="M3 8.5C3 8.77614 2.77614 9 2.5 9C2.22386 9 2 8.77614 2 8.5C2 8.22386 2.22386 8 2.5 8C2.77614 8 3 8.22386 3 8.5Z" fill="black"/>
<path d="M7.5 8C7.77614 8 8 7.77614 8 7.5C8 7.22386 7.77614 7 7.5 7C7.22386 7 7 7.22386 7 7.5C7 7.77614 7.22386 8 7.5 8Z" fill="black"/>
<path d="M7.5 14.75C7.5 15.1642 7.16421 15.5 6.75 15.5C6.33579 15.5 6 15.1642 6 14.75C6 14.3358 6.33579 14 6.75 14C7.16421 14 7.5 14.3358 7.5 14.75Z" fill="black"/>
<path d="M13.75 13.5C14.1642 13.5 14.5 13.1642 14.5 12.75C14.5 12.3358 14.1642 12 13.75 12C13.3358 12 13 12.3358 13 12.75C13 13.1642 13.3358 13.5 13.75 13.5Z" fill="black"/>
<path d="M10 4C10 4.55228 9.55229 5 9 5C8.44771 5 8 4.55228 8 4C8 3.44772 8.44771 3 9 3C9.55229 3 10 3.44772 10 4Z" fill="black"/>
<path d="M5 7C5.55228 7 6 6.55228 6 6C6 5.44772 5.55228 5 5 5C4.44772 5 4 5.44772 4 6C4 6.55228 4.44772 7 5 7Z" fill="black"/>
<path d="M11.5 14.25C11.5 14.9404 10.9404 15.5 10.25 15.5C9.55964 15.5 9 14.9404 9 14.25C9 13.5596 9.55964 13 10.25 13C10.9404 13 11.5 13.5596 11.5 14.25Z" fill="black"/>
<path d="M2 4C2.55228 4 3 3.55228 3 3C3 2.44772 2.55228 2 2 2C1.44772 2 1 2.44772 1 3C1 3.55228 1.44772 4 2 4Z" fill="black"/>
<path d="M4.32303 11.8701C4.05493 11.8322 3.78759 11.786 3.52123 11.7316C3.52047 11.7314 3.5197 11.7312 3.51893 11.7311C2.31965 11.4859 1.14016 11.0741 0 10.5003C1.16197 10.7705 2.33943 10.9047 3.51893 10.9015C3.80465 10.9015 4.08268 10.8885 4.35311 10.8639C9.07506 10.4331 11.4784 6.41875 12 5C12.2963 4.19411 12.2379 3.40057 11.8249 2.67701C11.4693 2.05382 10.8506 1.48254 9.96907 1C10.8986 1.2201 11.7565 1.52471 12.5162 1.89791C14.6435 2.94308 16 4.52622 16 6.29784C16 7.61804 15.2235 8.78174 13.9819 9.80034C13.538 10.1813 13.0566 10.4781 12.5515 10.6824C10.5906 11.5892 8.5264 12.034 6.4512 11.9969C5.73914 12.0124 5.02845 11.9699 4.32303 11.8701ZM13.1378 3.41705C13.243 4.05272 13.1736 4.70578 12.9386 5.34506C12.6121 6.23305 11.7256 7.84481 10.2098 9.24726C9.51886 9.88649 8.69005 10.4881 7.71918 10.9564C9.216 10.8322 10.7 10.4369 12.1317 9.77474L12.1539 9.76447L12.1766 9.7553C12.5739 9.59462 12.9631 9.35689 13.3306 9.04146L13.339 9.03425L13.3476 9.02722C14.4805 8.09782 15 7.1895 15 6.29784C15 5.4679 14.5722 4.60818 13.6563 3.81833C13.4964 3.68044 13.3233 3.54642 13.1378 3.41705Z" fill="black"/>
</svg>
