<svg width="16" height="16" viewBox="0 0 16 16" fill="none" xmlns="http://www.w3.org/2000/svg">
<path d="M15.8586 8.14142L14.3414 9.65858C14.2154 9.78457 14 9.69534 14 9.51716V9H1C0.447716 9 0 8.55229 0 8C0 7.44772 0.447715 7 1 7H14V6.48284C14 6.30466 14.2154 6.21543 14.3414 6.34142L15.8586 7.85858C15.9367 7.93668 15.9367 8.06332 15.8586 8.14142Z" fill="black"/>
<path d="M10.4618 2.99018C10.8498 3.38001 11.5143 3.46556 11.9777 3.14604C12.4175 2.84275 12.5142 2.28432 12.1547 1.90777C11.6562 1.38576 11.1498 0.97206 10.6354 0.666667C9.91031 0.222222 9.05907 0 8.08172 0C6.82062 0 5.78809 0.354167 4.98414 1.0625C4.19596 1.75694 3.80186 2.61111 3.80186 3.625C3.80186 4.09722 3.90433 4.56944 4.10926 5.04167C4.31418 5.51389 4.63734 5.95833 5.07873 6.375C5.26997 6.54931 5.52603 6.75764 5.84693 7H9.21306C9.15969 6.96535 9.10573 6.93063 9.05119 6.89583C7.6955 6.00694 6.8285 5.36806 6.45017 4.97917C6.07184 4.59028 5.88268 4.13889 5.88268 3.625C5.88268 3.09722 6.07972 2.66667 6.47382 2.33333C6.88367 2 7.38023 1.83333 7.96349 1.83333C8.56251 1.83333 9.08271 1.96528 9.5241 2.22917C9.79978 2.38531 10.1124 2.63898 10.4618 2.99018Z" fill="black"/>
<path d="M11.725 9C11.8441 9.12623 11.9538 9.25123 12.0542 9.375C12.6847 10.1528 13 10.9722 13 11.8333C13 12.9583 12.5034 13.9375 11.5103 14.7708C10.533 15.5903 9.39011 16 8.08172 16C6.04399 16 4.39552 15.1127 3.13631 13.338C2.8524 12.9378 3.03109 12.4195 3.49532 12.1842C3.98681 11.9351 4.6085 12.0977 4.9254 12.512C5.81174 13.6707 6.78502 14.25 7.84526 14.25C8.66497 14.25 9.36646 14.0208 9.94972 13.5625C10.533 13.1042 10.8246 12.5694 10.8246 11.9583C10.8246 11.3472 10.5803 10.7708 10.0916 10.2292C9.77483 9.86905 9.30903 9.45933 8.6942 9H11.725Z" fill="black"/>
</svg>
