<svg width="16" height="16" viewBox="0 0 16 16" fill="none" xmlns="http://www.w3.org/2000/svg">
<path d="M15.9143 6.18456L14.3429 7.45344C14.2016 7.56751 14 7.45899 14 7.26888V7H1C0.447715 7 0 6.55229 0 6C0 5.44772 0.447715 5 1 5H14V4.73112C14 4.54101 14.2016 4.43249 14.3429 4.54656L15.9143 5.81544C16.0286 5.90772 16.0286 6.09228 15.9143 6.18456Z" fill="black"/>
<path d="M15.9143 10.1846L14.3429 11.4534C14.2016 11.5675 14 11.459 14 11.2689V11H1C0.447715 11 0 10.5523 0 10C0 9.44771 0.447715 9 1 9H14V8.73112C14 8.54101 14.2016 8.43249 14.3429 8.54656L15.9143 9.81544C16.0286 9.90772 16.0286 10.0923 15.9143 10.1846Z" fill="black"/>
<path d="M11.9777 3.14604C11.5143 3.46556 10.8498 3.38001 10.4618 2.99018C10.1124 2.63898 9.79978 2.38531 9.5241 2.22917C9.08271 1.96528 8.56251 1.83333 7.96349 1.83333C7.38023 1.83333 6.88367 2 6.47382 2.33333C6.07972 2.66667 5.88268 3.09722 5.88268 3.625C5.88268 4.13889 6.07184 4.59028 6.45017 4.97917L6.47067 5H4.09144C3.89839 4.54167 3.80186 4.08333 3.80186 3.625C3.80186 2.61111 4.19596 1.75694 4.98414 1.0625C5.78809 0.354167 6.82062 0 8.08172 0C9.05907 0 9.91031 0.222222 10.6354 0.666667C11.1498 0.97206 11.6562 1.38576 12.1547 1.90777C12.5142 2.28432 12.4175 2.84275 11.9777 3.14604Z" fill="black"/>
<path d="M5.84693 7H9.21306C10.2881 7.69786 11.1254 8.36453 11.725 9H8.6942C8.36053 8.75072 7.98297 8.48683 7.56151 8.20833C6.86465 7.73977 6.29312 7.33699 5.84693 7Z" fill="black"/>
<path d="M10.6115 11C10.7536 11.3093 10.8246 11.6288 10.8246 11.9583C10.8246 12.5694 10.533 13.1042 9.94972 13.5625C9.36646 14.0208 8.66497 14.25 7.84526 14.25C6.78502 14.25 5.81174 13.6707 4.9254 12.512C4.6085 12.0977 3.98681 11.9351 3.49532 12.1842C3.03109 12.4195 2.8524 12.9378 3.13631 13.338C4.39552 15.1127 6.04399 16 8.08172 16C9.39011 16 10.533 15.5903 11.5103 14.7708C12.5034 13.9375 13 12.9583 13 11.8333C13 11.5511 12.9661 11.2733 12.8984 11H10.6115Z" fill="black"/>
</svg>
