<svg width="16" height="16" viewBox="0 0 16 16" fill="none" xmlns="http://www.w3.org/2000/svg">
<path d="M15.9143 5.25392L14.3429 3.56208C14.2016 3.40999 14 3.55468 14 3.80817V4.16667H1C0.447715 4.16667 0 4.76362 0 5.5C0 6.23638 0.447715 6.83333 1 6.83333H14V7.19183C14 7.44532 14.2016 7.59001 14.3429 7.43792L15.9143 5.74608C16.0286 5.62304 16.0286 5.37696 15.9143 5.25392ZM14.5556 4.96667L15.051 5.5L14.5556 6.03333H1.00708C0.996243 6.02858 0.969924 6.01218 0.932893 5.96281C0.8654 5.87282 0.8 5.71183 0.8 5.5C0.8 5.28817 0.8654 5.12718 0.932893 5.03719C0.969924 4.98782 0.996243 4.97142 1.00708 4.96667H14.5556Z" fill="black"/>
<path d="M15.9143 10.2539L14.3429 8.56208C14.2016 8.40999 14 8.55468 14 8.80817V9.16667H1C0.447715 9.16667 0 9.76362 0 10.5C0 11.2364 0.447715 11.8333 1 11.8333H14V12.1918C14 12.4453 14.2016 12.59 14.3429 12.4379L15.9143 10.7461C16.0286 10.623 16.0286 10.377 15.9143 10.2539ZM14.5556 9.96667L15.051 10.5L14.5556 11.0333H1.00708C0.996243 11.0286 0.969924 11.0122 0.932893 10.9628C0.8654 10.8728 0.8 10.7118 0.8 10.5C0.8 10.2882 0.8654 10.1272 0.932893 10.0372C0.969924 9.98782 0.996243 9.97142 1.00708 9.96667H14.5556Z" fill="black"/>
<path d="M11.9777 3.14604C11.5143 3.46556 10.8498 3.38001 10.4618 2.99018C10.1124 2.63898 9.79978 2.38531 9.5241 2.22917C9.08271 1.96528 8.56251 1.83333 7.96349 1.83333C7.38023 1.83333 6.88367 2 6.47382 2.33333C6.07972 2.66667 5.88268 3.09722 5.88268 3.625C5.88268 3.81401 5.90827 3.99457 5.95945 4.16667H3.8468C3.81684 3.98611 3.80186 3.80556 3.80186 3.625C3.80186 2.61111 4.19596 1.75694 4.98414 1.0625C5.78809 0.354167 6.82062 0 8.08172 0C9.05907 0 9.91031 0.222222 10.6354 0.666667C11.1498 0.97206 11.6562 1.38576 12.1547 1.90777C12.5142 2.28432 12.4175 2.84275 11.9777 3.14604Z" fill="black"/>
<path d="M5.62959 6.83333C6.10184 7.20153 6.74581 7.65986 7.56151 8.20833C8.07816 8.54973 8.52884 8.86918 8.91357 9.16667H11.8774C11.2429 8.45008 10.3009 7.69314 9.05119 6.89583C9.0192 6.87486 8.98749 6.85403 8.95604 6.83333H5.62959Z" fill="black"/>
<path d="M10.8212 11.8333L13 11.8333C13 12.9583 12.5034 13.9375 11.5103 14.7708C10.533 15.5903 9.39011 16 8.08172 16C6.04399 16 4.39552 15.1127 3.13631 13.338C2.8524 12.9378 3.03109 12.4195 3.49532 12.1842C3.98681 11.9351 4.6085 12.0977 4.9254 12.512C5.81174 13.6707 6.78502 14.25 7.84526 14.25C8.66497 14.25 9.36646 14.0208 9.94972 13.5625C10.533 13.1042 10.8246 12.5694 10.8246 11.9583C10.8246 11.9165 10.8235 11.8748 10.8212 11.8333Z" fill="black"/>
</svg>
