<svg width="16" height="16" viewBox="0 0 16 16" fill="none" xmlns="http://www.w3.org/2000/svg">
<path d="M0.25 11C0.111929 11 0 11.1119 0 11.25C0 11.3881 0.111929 11.5 0.25 11.5H9.75C9.88807 11.5 10 11.3881 10 11.25C10 11.1119 9.88807 11 9.75 11H0.25Z" fill="black"/>
<path d="M3.25 12.5C3.11193 12.5 3 12.6119 3 12.75C3 12.8881 3.11193 13 3.25 13H6.75C6.88807 13 7 12.8881 7 12.75C7 12.6119 6.88807 12.5 6.75 12.5H3.25Z" fill="black"/>
<path d="M10 14.25C10 14.1119 10.1119 14 10.25 14H13.75C13.8881 14 14 14.1119 14 14.25C14 14.3881 13.8881 14.5 13.75 14.5H10.25C10.1119 14.5 10 14.3881 10 14.25Z" fill="black"/>
<path d="M8.25 12.5C8.11193 12.5 8 12.6119 8 12.75C8 12.8881 8.11193 13 8.25 13H15.75C15.8881 13 16 12.8881 16 12.75C16 12.6119 15.8881 12.5 15.75 12.5H8.25Z" fill="black"/>
<path d="M1 14.25C1 14.1119 1.11193 14 1.25 14H8.75C8.88807 14 9 14.1119 9 14.25C9 14.3881 8.88807 14.5 8.75 14.5H1.25C1.11193 14.5 1 14.3881 1 14.25Z" fill="black"/>
<path d="M3.25 15.5C3.11193 15.5 3 15.6119 3 15.75C3 15.8881 3.11193 16 3.25 16H12.75C12.8881 16 13 15.8881 13 15.75C13 15.6119 12.8881 15.5 12.75 15.5H3.25Z" fill="black"/>
<path d="M11.7274 8.21748C10.8102 9.3074 9.43597 10 7.89998 10C6.3941 10 5.04371 9.33429 4.12704 8.2811C3.77907 8.42226 3.39862 8.5 3 8.5C1.34315 8.5 0 7.15685 0 5.5C0 3.84315 1.34315 2.5 3 2.5C3.18474 2.5 3.36559 2.5167 3.5411 2.54867C4.39849 1.02737 6.02926 0 7.89998 0C9.78634 0 11.4287 1.04461 12.2802 2.58691C12.5108 2.53012 12.7519 2.5 13 2.5C14.6569 2.5 16 3.84315 16 5.5C16 7.15685 14.6569 8.5 13 8.5C12.545 8.5 12.1137 8.39872 11.7274 8.21748Z" fill="black"/>
</svg>
