<svg width="16" height="16" viewBox="0 0 16 16" fill="none" xmlns="http://www.w3.org/2000/svg">
<path d="M12.543 4.487C10.962 4.487 8.66699 6.199 7.97299 7.375C7.28199 6.2 4.98699 4.487 3.40599 4.487C2.49616 4.5088 1.63093 4.88553 0.99516 5.53672C0.359386 6.18791 0.003479 7.06191 0.003479 7.972C0.003479 8.88209 0.359386 9.75609 0.99516 10.4073C1.63093 11.0585 2.49616 11.4352 3.40599 11.457C4.98599 11.457 7.28199 9.707 7.97499 8.551C8.66799 9.707 10.963 11.457 12.544 11.457C13.4538 11.4352 14.319 11.0585 14.9548 10.4073C15.5906 9.75609 15.9465 8.88209 15.9465 7.972C15.9465 7.06191 15.5906 6.18791 14.9548 5.53672C14.319 4.88553 13.4538 4.5088 12.544 4.487H12.543ZM3.40499 10.457C2.75813 10.4386 2.14392 10.1688 1.69287 9.70476C1.24182 9.24073 0.989492 8.61912 0.989492 7.972C0.989492 7.32488 1.24182 6.70326 1.69287 6.23924C2.14392 5.77521 2.75813 5.50535 3.40499 5.487C4.71399 5.487 6.86699 7.232 7.16699 7.963C6.86099 8.638 4.74899 10.457 3.40499 10.457ZM12.543 10.457C11.198 10.457 9.08599 8.637 8.78099 7.963C9.08099 7.233 11.233 5.487 12.543 5.487C13.1898 5.50535 13.8041 5.77521 14.2551 6.23924C14.7061 6.70326 14.9585 7.32488 14.9585 7.972C14.9585 8.61912 14.7061 9.24073 14.2551 9.70476C13.8041 10.1688 13.1898 10.4386 12.543 10.457Z" fill="black"/>
<path d="M3.98901 2.48099C3.98901 3.03327 3.5413 3.48099 2.98901 3.48099C2.43673 3.48099 1.98901 3.03327 1.98901 2.48099C1.98901 1.9287 2.43673 1.48099 2.98901 1.48099C3.5413 1.48099 3.98901 1.9287 3.98901 2.48099Z" fill="black"/>
<path d="M14 2.48099C14 3.03327 13.5523 3.48099 13 3.48099C12.4477 3.48099 12 3.03327 12 2.48099C12 1.9287 12.4477 1.48099 13 1.48099C13.5523 1.48099 14 1.9287 14 2.48099Z" fill="black"/>
<path d="M2.98901 14.457C3.5413 14.457 3.98901 14.0093 3.98901 13.457C3.98901 12.9047 3.5413 12.457 2.98901 12.457C2.43673 12.457 1.98901 12.9047 1.98901 13.457C1.98901 14.0093 2.43673 14.457 2.98901 14.457Z" fill="black"/>
<path d="M14 13.457C14 14.0093 13.5523 14.457 13 14.457C12.4477 14.457 12 14.0093 12 13.457C12 12.9047 12.4477 12.457 13 12.457C13.5523 12.457 14 12.9047 14 13.457Z" fill="black"/>
</svg>
