<svg width="16" height="16" viewBox="0 0 16 16" fill="none" xmlns="http://www.w3.org/2000/svg">
<path d="M3.989 2.48099C3.989 3.03327 3.54129 3.48099 2.989 3.48099C2.43672 3.48099 1.989 3.03327 1.989 2.48099C1.989 1.9287 2.43672 1.48099 2.989 1.48099C3.54129 1.48099 3.989 1.9287 3.989 2.48099Z" fill="black"/>
<path d="M9.031 2.95801C9.031 3.51029 8.58328 3.95801 8.031 3.95801C7.47872 3.95801 7.031 3.51029 7.031 2.95801C7.031 2.40572 7.47872 1.95801 8.031 1.95801C8.58328 1.95801 9.031 2.40572 9.031 2.95801Z" fill="black"/>
<path d="M8.031 13.98C8.58328 13.98 9.031 13.5323 9.031 12.98C9.031 12.4277 8.58328 11.98 8.031 11.98C7.47872 11.98 7.031 12.4277 7.031 12.98C7.031 13.5323 7.47872 13.98 8.031 13.98Z" fill="black"/>
<path d="M14 2.48099C14 3.03327 13.5523 3.48099 13 3.48099C12.4477 3.48099 12 3.03327 12 2.48099C12 1.9287 12.4477 1.48099 13 1.48099C13.5523 1.48099 14 1.9287 14 2.48099Z" fill="black"/>
<path d="M2.989 14.457C3.54129 14.457 3.989 14.0093 3.989 13.457C3.989 12.9047 3.54129 12.457 2.989 12.457C2.43672 12.457 1.989 12.9047 1.989 13.457C1.989 14.0093 2.43672 14.457 2.989 14.457Z" fill="black"/>
<path d="M14 13.457C14 14.0093 13.5523 14.457 13 14.457C12.4477 14.457 12 14.0093 12 13.457C12 12.9047 12.4477 12.457 13 12.457C13.5523 12.457 14 12.9047 14 13.457Z" fill="black"/>
<path d="M12.543 4.487C10.962 4.487 8.667 6.199 7.973 7.375C7.282 6.2 4.987 4.487 3.406 4.487C2.49617 4.5088 1.63095 4.88553 0.995174 5.53672C0.359399 6.18791 0.00349251 7.06191 0.00349251 7.972C0.00349251 8.88209 0.359399 9.75609 0.995174 10.4073C1.63095 11.0585 2.49617 11.4352 3.406 11.457C4.986 11.457 7.282 9.707 7.975 8.551C8.668 9.707 10.963 11.457 12.544 11.457C13.4538 11.4352 14.3191 11.0585 14.9548 10.4073C15.5906 9.75609 15.9465 8.88209 15.9465 7.972C15.9465 7.06191 15.5906 6.18791 14.9548 5.53672C14.3191 4.88553 13.4538 4.5088 12.544 4.487H12.543Z" fill="black"/>
</svg>
