<svg width="16" height="16" viewBox="0 0 16 16" fill="none" xmlns="http://www.w3.org/2000/svg">
<path d="M12.543 4.487C10.962 4.487 8.667 6.199 7.973 7.375C7.282 6.2 4.987 4.487 3.406 4.487C2.49618 4.5088 1.63095 4.88553 0.995176 5.53672C0.359401 6.18791 0.00349426 7.06191 0.00349426 7.972C0.00349426 8.88209 0.359401 9.75609 0.995176 10.4073C1.63095 11.0585 2.49618 11.4352 3.406 11.457C4.986 11.457 7.282 9.707 7.975 8.551C8.668 9.707 10.963 11.457 12.544 11.457C13.4538 11.4352 14.3191 11.0585 14.9548 10.4073C15.5906 9.75609 15.9465 8.88209 15.9465 7.972C15.9465 7.06191 15.5906 6.18791 14.9548 5.53672C14.3191 4.88553 13.4538 4.5088 12.544 4.487H12.543ZM3.405 10.457C2.75814 10.4386 2.14393 10.1688 1.69289 9.70476C1.24184 9.24073 0.989507 8.61912 0.989507 7.972C0.989507 7.32488 1.24184 6.70326 1.69289 6.23924C2.14393 5.77521 2.75814 5.50535 3.405 5.487C4.714 5.487 6.867 7.232 7.167 7.963C6.861 8.638 4.749 10.457 3.405 10.457ZM12.543 10.457C11.198 10.457 9.086 8.637 8.781 7.963C9.081 7.233 11.233 5.487 12.543 5.487C13.1899 5.50535 13.8041 5.77521 14.2551 6.23924C14.7062 6.70326 14.9585 7.32488 14.9585 7.972C14.9585 8.61912 14.7062 9.24073 14.2551 9.70476C13.8041 10.1688 13.1899 10.4386 12.543 10.457Z" fill="black"/>
<path d="M3.989 2.48099C3.989 3.03327 3.54128 3.48099 2.989 3.48099C2.43671 3.48099 1.989 3.03327 1.989 2.48099C1.989 1.9287 2.43671 1.48099 2.989 1.48099C3.54128 1.48099 3.989 1.9287 3.989 2.48099Z" fill="black"/>
<path d="M9.031 2.95801C9.031 3.51029 8.58328 3.95801 8.031 3.95801C7.47871 3.95801 7.031 3.51029 7.031 2.95801C7.031 2.40572 7.47871 1.95801 8.031 1.95801C8.58328 1.95801 9.031 2.40572 9.031 2.95801Z" fill="black"/>
<path d="M8.031 13.98C8.58328 13.98 9.031 13.5323 9.031 12.98C9.031 12.4277 8.58328 11.98 8.031 11.98C7.47871 11.98 7.031 12.4277 7.031 12.98C7.031 13.5323 7.47871 13.98 8.031 13.98Z" fill="black"/>
<path d="M14 2.48099C14 3.03327 13.5523 3.48099 13 3.48099C12.4477 3.48099 12 3.03327 12 2.48099C12 1.9287 12.4477 1.48099 13 1.48099C13.5523 1.48099 14 1.9287 14 2.48099Z" fill="black"/>
<path d="M2.989 14.457C3.54128 14.457 3.989 14.0093 3.989 13.457C3.989 12.9047 3.54128 12.457 2.989 12.457C2.43671 12.457 1.989 12.9047 1.989 13.457C1.989 14.0093 2.43671 14.457 2.989 14.457Z" fill="black"/>
<path d="M14 13.457C14 14.0093 13.5523 14.457 13 14.457C12.4477 14.457 12 14.0093 12 13.457C12 12.9047 12.4477 12.457 13 12.457C13.5523 12.457 14 12.9047 14 13.457Z" fill="black"/>
</svg>
