<svg width="16" height="16" viewBox="0 0 16 16" fill="none" xmlns="http://www.w3.org/2000/svg">
<path d="M2.989 2.48099C2.989 3.03327 2.54128 3.48099 1.989 3.48099C1.43671 3.48099 0.988998 3.03327 0.988998 2.48099C0.988998 1.9287 1.43671 1.48099 1.989 1.48099C2.54128 1.48099 2.989 1.9287 2.989 2.48099Z" fill="black"/>
<path d="M7.031 2.95801C7.031 3.51029 6.58328 3.95801 6.031 3.95801C5.47871 3.95801 5.031 3.51029 5.031 2.95801C5.031 2.40572 5.47871 1.95801 6.031 1.95801C6.58328 1.95801 7.031 2.40572 7.031 2.95801Z" fill="black"/>
<path d="M10.076 3.95801C10.6283 3.95801 11.076 3.51029 11.076 2.95801C11.076 2.40572 10.6283 1.95801 10.076 1.95801C9.52372 1.95801 9.076 2.40572 9.076 2.95801C9.076 3.51029 9.52372 3.95801 10.076 3.95801Z" fill="black"/>
<path d="M7.031 12.987C7.031 13.5393 6.58328 13.987 6.031 13.987C5.47871 13.987 5.031 13.5393 5.031 12.987C5.031 12.4347 5.47871 11.987 6.031 11.987C6.58328 11.987 7.031 12.4347 7.031 12.987Z" fill="black"/>
<path d="M10.076 13.987C10.6283 13.987 11.076 13.5393 11.076 12.987C11.076 12.4347 10.6283 11.987 10.076 11.987C9.52372 11.987 9.076 12.4347 9.076 12.987C9.076 13.5393 9.52372 13.987 10.076 13.987Z" fill="black"/>
<path d="M15 2.48099C15 3.03327 14.5523 3.48099 14 3.48099C13.4477 3.48099 13 3.03327 13 2.48099C13 1.9287 13.4477 1.48099 14 1.48099C14.5523 1.48099 15 1.9287 15 2.48099Z" fill="black"/>
<path d="M1.989 14.457C2.54128 14.457 2.989 14.0093 2.989 13.457C2.989 12.9047 2.54128 12.457 1.989 12.457C1.43671 12.457 0.988998 12.9047 0.988998 13.457C0.988998 14.0093 1.43671 14.457 1.989 14.457Z" fill="black"/>
<path d="M15 13.457C15 14.0093 14.5523 14.457 14 14.457C13.4477 14.457 13 14.0093 13 13.457C13 12.9047 13.4477 12.457 14 12.457C14.5523 12.457 15 12.9047 15 13.457Z" fill="black"/>
<path d="M15.947 7.972C15.9577 7.05848 15.6051 6.17813 14.9667 5.52458C14.3283 4.87103 13.4565 4.49781 12.543 4.487C10.962 4.487 8.667 6.199 7.973 7.375C7.282 6.2 4.987 4.487 3.406 4.487C2.49618 4.5088 1.63095 4.88553 0.995176 5.53672C0.359401 6.18791 0.00349426 7.06191 0.00349426 7.972C0.00349426 8.88209 0.359401 9.75609 0.995176 10.4073C1.63095 11.0585 2.49618 11.4352 3.406 11.457C4.986 11.457 7.282 9.707 7.975 8.551C8.668 9.707 10.963 11.457 12.544 11.457C13.4575 11.4462 14.3293 11.073 14.9677 10.4194C15.6061 9.76587 15.9587 8.88552 15.948 7.972H15.947Z" fill="black"/>
</svg>
