<svg width="16" height="16" viewBox="0 0 16 16" fill="none" xmlns="http://www.w3.org/2000/svg">
<path d="M7.5 2C7.22386 2 7 2.22386 7 2.5C7 2.77614 7.22386 3 7.5 3H12.5C12.7761 3 13 2.77614 13 2.5C13 2.22386 12.7761 2 12.5 2H7.5Z" fill="black"/>
<path d="M10.5 4C10.2239 4 10 4.22386 10 4.5C10 4.77614 10.2239 5 10.5 5H15.5C15.7761 5 16 4.77614 16 4.5C16 4.22386 15.7761 4 15.5 4H10.5Z" fill="black"/>
<path d="M0.5 11C0.223858 11 0 11.2239 0 11.5C0 11.7761 0.223858 12 0.5 12H9.5C9.77614 12 10 11.7761 10 11.5C10 11.2239 9.77614 11 9.5 11H0.5Z" fill="black"/>
<path d="M3.5 13C3.22386 13 3 13.2239 3 13.5C3 13.7761 3.22386 14 3.5 14H6.5C6.77614 14 7 13.7761 7 13.5C7 13.2239 6.77614 13 6.5 13H3.5Z" fill="black"/>
<path d="M8 13.5C8 13.2239 8.22386 13 8.5 13H15.5C15.7761 13 16 13.2239 16 13.5C16 13.7761 15.7761 14 15.5 14H8.5C8.22386 14 8 13.7761 8 13.5Z" fill="black"/>
<path d="M4.5 15C4.22386 15 4 15.2239 4 15.5C4 15.7761 4.22386 16 4.5 16H13.5C13.7761 16 14 15.7761 14 15.5C14 15.2239 13.7761 15 13.5 15H4.5Z" fill="black"/>
<path d="M9 0.121394C8.64605 0.0419308 8.27791 0 7.89998 0C6.10565 0 4.53208 0.945171 3.64997 2.3648C3.58248 2.47342 3.45684 2.53181 3.32971 2.51791C3.22143 2.50607 3.11143 2.5 3 2.5C1.34315 2.5 0 3.84315 0 5.5C0 7.15685 1.34315 8.5 3 8.5C3.3231 8.5 3.63426 8.44892 3.92586 8.35441C4.04774 8.3149 4.18289 8.34663 4.27104 8.43961C5.18224 9.40064 6.47112 10 7.89998 10C9.35312 10 10.6615 9.3801 11.575 8.39032C11.6672 8.29047 11.8124 8.25914 11.9395 8.30718C12.2692 8.4318 12.6267 8.5 13 8.5C14.4865 8.5 15.7205 7.41886 15.9585 6H14.937C14.715 6.86261 13.9319 7.5 13 7.5C12.552 7.5 12.1384 7.35271 11.805 7.10391C11.6329 6.97547 11.3674 7.00712 11.2498 7.18684C10.5356 8.27865 9.30203 9 7.89998 9C6.53223 9 5.32481 8.31351 4.60349 7.2663C4.49114 7.10319 4.25573 7.06925 4.08975 7.17731C3.77625 7.38141 3.40197 7.5 3 7.5C1.89543 7.5 1 6.60457 1 5.5C1 4.39543 1.89543 3.5 3 3.5C3.25671 3.5 3.50212 3.54836 3.72762 3.63648C3.9123 3.70864 4.13636 3.62762 4.2135 3.44496C4.82027 2.00827 6.24238 1 7.89998 1C8.28149 1 8.65051 1.05341 9 1.15316V0.121394Z" fill="black"/>
</svg>
