<svg width="16" height="16" viewBox="0 0 16 16" fill="none" xmlns="http://www.w3.org/2000/svg">
<path d="M0.25 11C0.111929 11 0 11.1119 0 11.25C0 11.3881 0.111929 11.5 0.25 11.5H5.75C5.88807 11.5 6 11.3881 6 11.25C6 11.1119 5.88807 11 5.75 11H0.25Z" fill="black"/>
<path d="M10.25 15.5C10.1119 15.5 10 15.6119 10 15.75C10 15.8881 10.1119 16 10.25 16H15.75C15.8881 16 16 15.8881 16 15.75C16 15.6119 15.8881 15.5 15.75 15.5H10.25Z" fill="black"/>
<path d="M3 12.75C3 12.6119 3.11193 12.5 3.25 12.5H6.75C6.88807 12.5 7 12.6119 7 12.75C7 12.8881 6.88807 13 6.75 13H3.25C3.11193 13 3 12.8881 3 12.75Z" fill="black"/>
<path d="M7.25 11C7.11193 11 7 11.1119 7 11.25C7 11.3881 7.11193 11.5 7.25 11.5H10.75C10.8881 11.5 11 11.3881 11 11.25C11 11.1119 10.8881 11 10.75 11H7.25Z" fill="black"/>
<path d="M0 15.75C0 15.6119 0.111929 15.5 0.25 15.5H3.75C3.88807 15.5 4 15.6119 4 15.75C4 15.8881 3.88807 16 3.75 16H0.25C0.111929 16 0 15.8881 0 15.75Z" fill="black"/>
<path d="M5.25 15.5C5.11193 15.5 5 15.6119 5 15.75C5 15.8881 5.11193 16 5.25 16H8.75C8.88807 16 9 15.8881 9 15.75C9 15.6119 8.88807 15.5 8.75 15.5H5.25Z" fill="black"/>
<path d="M12 11.25C12 11.1119 12.1119 11 12.25 11H15.75C15.8881 11 16 11.1119 16 11.25C16 11.3881 15.8881 11.5 15.75 11.5H12.25C12.1119 11.5 12 11.3881 12 11.25Z" fill="black"/>
<path d="M10.25 14C10.1119 14 10 14.1119 10 14.25C10 14.3881 10.1119 14.5 10.25 14.5H13.75C13.8881 14.5 14 14.3881 14 14.25C14 14.1119 13.8881 14 13.75 14H10.25Z" fill="black"/>
<path d="M8 12.75C8 12.6119 8.11193 12.5 8.25 12.5H15.75C15.8881 12.5 16 12.6119 16 12.75C16 12.8881 15.8881 13 15.75 13H8.25C8.11193 13 8 12.8881 8 12.75Z" fill="black"/>
<path d="M1.25 14C1.11193 14 1 14.1119 1 14.25C1 14.3881 1.11193 14.5 1.25 14.5H8.75C8.88807 14.5 9 14.3881 9 14.25C9 14.1119 8.88807 14 8.75 14H1.25Z" fill="black"/>
<path d="M7.89998 10C9.43597 10 10.8102 9.3074 11.7274 8.21748C12.1137 8.39872 12.545 8.5 13 8.5C14.6569 8.5 16 7.15685 16 5.5C16 5.29808 15.9801 5.10083 15.942 4.91009C15.8962 4.96504 15.8272 5 15.75 5H10.25C10.1119 5 10 4.88807 10 4.75C10 4.61193 10.1119 4.5 10.25 4.5H15.75C15.7796 4.5 15.808 4.50515 15.8344 4.51461C15.6174 3.89023 15.1998 3.35967 14.6589 3H10.25C10.1119 3 10 2.88807 10 2.75C10 2.61193 10.1119 2.5 10.25 2.5H12.2311C11.3665 1.0055 9.75069 0 7.89998 0C6.02926 0 4.39849 1.02737 3.5411 2.54867C3.36559 2.5167 3.18474 2.5 3 2.5C1.34315 2.5 0 3.84315 0 5.5C0 7.15685 1.34315 8.5 3 8.5C3.39862 8.5 3.77907 8.42226 4.12704 8.2811C5.04371 9.33429 6.3941 10 7.89998 10ZM8 3.75C8 3.61193 8.11193 3.5 8.25 3.5H13.75C13.8881 3.5 14 3.61193 14 3.75C14 3.88807 13.8881 4 13.75 4H8.25C8.11193 4 8 3.88807 8 3.75Z" fill="black"/>
</svg>
