<svg width="16" height="16" viewBox="0 0 16 16" fill="none" xmlns="http://www.w3.org/2000/svg">
<path d="M11.5 0C10.1193 0 9 1.11929 9 2.5V7.49079C9 7.65763 8.91556 7.81193 8.78264 7.91277C7.69952 8.73453 7 10.0356 7 11.5C7 13.9853 9.01472 16 11.5 16C13.9853 16 16 13.9853 16 11.5C16 10.0356 15.3005 8.73452 14.2174 7.91277C14.0844 7.81193 14 7.65763 14 7.49079V2.5C14 1.11929 12.8807 0 11.5 0ZM13.5 11.5C13.5 12.6046 12.6046 13.5 11.5 13.5C10.3954 13.5 9.5 12.6046 9.5 11.5C9.5 10.5681 10.1374 9.78503 11 9.56301V3.5C11 3.22386 11.2239 3 11.5 3C11.7761 3 12 3.22386 12 3.5V9.56301C12.8626 9.78503 13.5 10.5681 13.5 11.5Z" fill="black"/>
<path d="M4.9 2.5C4 2.8 3.7 3.6 3.8 4.1C3.1 3.3 3.1 2.4 3.2 1C1.1 1.8 1.6 4.2 1.5 5C1 4.5 0.9 3.5 0.9 3.5C0.3 3.8 0 4.6 0 5.3C0 6.9 1.3 8 2.8 8C4.3 8 5.5 6.8 5.5 5.3C5.5 4.2 4.9 3.9 4.9 2.5Z" fill="black"/>
</svg>
