<svg width="16" height="16" viewBox="0 0 16 16" fill="none" xmlns="http://www.w3.org/2000/svg">
<path d="M2.30197 1.7C2.30197 1.3134 2.61538 1 3.00198 1C3.38858 1 3.70198 1.3134 3.70198 1.7V2.78757L4.64383 2.24379C4.97864 2.05049 5.40675 2.16519 5.60005 2.5C5.79335 2.83481 5.67864 3.26292 5.34383 3.45622L4.40198 4L5.34383 4.54378C5.67864 4.73708 5.79335 5.16519 5.60005 5.5C5.40675 5.83481 4.97864 5.94951 4.64383 5.75621L3.70198 5.21243V6.3C3.70198 6.6866 3.38858 7 3.00198 7C2.61538 7 2.30197 6.6866 2.30197 6.3V5.21245L1.36011 5.75623C1.02531 5.94952 0.597198 5.83481 0.403896 5.5C0.210598 5.16519 0.325309 4.73708 0.660114 4.54378L1.60197 4L0.660114 3.45622C0.325309 3.26292 0.210598 2.83481 0.403896 2.5C0.597198 2.16519 1.02531 2.05048 1.36011 2.24377L2.30197 2.78755V1.7Z" fill="black"/>
<path d="M11.5 7C11.2239 7 11 7.22386 11 7.5V9.56301C10.1374 9.78503 9.5 10.5681 9.5 11.5C9.5 12.6046 10.3954 13.5 11.5 13.5C12.6046 13.5 13.5 12.6046 13.5 11.5C13.5 10.5681 12.8626 9.78503 12 9.56301V7.5C12 7.22386 11.7761 7 11.5 7Z" fill="black"/>
<path d="M10.2 8.39855L9.66751 8.75498C8.7801 9.349 8.2 10.357 8.2 11.5C8.2 13.3225 9.67746 14.8 11.5 14.8C13.3225 14.8 14.8 13.3225 14.8 11.5C14.8 10.357 14.2199 9.349 13.3325 8.75498L12.8 8.39855V2.5C12.8 1.78203 12.218 1.2 11.5 1.2C10.782 1.2 10.2 1.78203 10.2 2.5V8.39855ZM9 2.5C9 1.11929 10.1193 0 11.5 0C12.8807 0 14 1.11929 14 2.5V7.75777C15.206 8.56504 16 9.93979 16 11.5C16 13.9853 13.9853 16 11.5 16C9.01472 16 7 13.9853 7 11.5C7 9.93979 7.79401 8.56504 9 7.75777V2.5Z" fill="black"/>
</svg>
