<svg width="16" height="16" viewBox="0 0 16 16" fill="none" xmlns="http://www.w3.org/2000/svg">
<path d="M7.89998 13C9.43597 13 10.8102 12.3074 11.7274 11.2175C12.1137 11.3987 12.545 11.5 13 11.5C14.6569 11.5 16 10.1569 16 8.5C16 6.84315 14.6569 5.5 13 5.5C12.7519 5.5 12.5108 5.53012 12.2802 5.58691C11.4287 4.04461 9.78634 3 7.89998 3C6.02926 3 4.39849 4.02737 3.5411 5.54867C3.36559 5.5167 3.18474 5.5 3 5.5C1.34315 5.5 0 6.84315 0 8.5C0 10.1569 1.34315 11.5 3 11.5C3.39862 11.5 3.77907 11.4223 4.12704 11.2811C5.04371 12.3343 6.3941 13 7.89998 13ZM8.03789 9.49731H7.9743C7.59556 9.49731 7.28375 9.20149 7.33304 8.84938C7.36017 8.65558 7.39637 8.50644 7.44165 8.40195C7.52855 8.19823 7.7525 7.96474 8.11348 7.70148L8.47948 7.43351C8.59981 7.34889 8.69674 7.25644 8.77028 7.15615C8.90397 6.98377 8.97082 6.79416 8.97082 6.58731C8.97082 6.34912 8.89562 6.13286 8.74521 5.93855C8.59814 5.7411 8.3274 5.64238 7.93299 5.64238C7.54526 5.64238 7.26951 5.76304 7.10573 6.00437C7.08071 6.04199 7.05765 6.07985 7.03653 6.11794C6.85586 6.44381 6.54754 6.75655 6.15584 6.75655C5.75243 6.75655 5.41824 6.43728 5.5177 6.0707C5.66419 5.53083 5.9629 5.12636 6.41384 4.85729C6.80825 4.6191 7.29291 4.5 7.86781 4.5C8.62321 4.5 9.24992 4.66924 9.74795 5.00772C10.2493 5.34621 10.5 5.84766 10.5 6.51209C10.5 6.91952 10.3914 7.2627 10.1741 7.54164C10.0471 7.71088 9.8031 7.92713 9.44211 8.1904L9.08614 8.44896C8.89227 8.58999 8.76359 8.75453 8.70008 8.94258C8.60043 9.23847 8.36881 9.49731 8.03789 9.49731ZM8.01571 11.5H7.97059C7.57047 11.5 7.24611 11.1959 7.24611 10.8207C7.24611 10.4455 7.57047 10.1414 7.97059 10.1414H8.01571C8.41583 10.1414 8.74019 10.4455 8.74019 10.8207C8.74019 11.1959 8.41583 11.5 8.01571 11.5Z" fill="black"/>
</svg>
