<svg width="16" height="16" viewBox="0 0 16 16" fill="none" xmlns="http://www.w3.org/2000/svg">
<path d="M8.03031 9.28341C8.29505 9.28341 8.48035 9.06154 8.56007 8.80792C8.61087 8.64674 8.71382 8.50571 8.86891 8.38482L9.15369 8.1632C9.44248 7.93754 9.63768 7.75218 9.73929 7.60712C9.9131 7.36803 10 7.07388 10 6.72465C10 6.15514 9.79945 5.72532 9.39836 5.43519C8.99994 5.14506 8.49857 5 7.89425 5C7.43433 5 7.0466 5.10208 6.73107 5.30625C6.37032 5.53688 6.13135 5.88357 6.01416 6.34631C5.93459 6.66052 6.20195 6.93418 6.52467 6.93418C6.83803 6.93418 7.08469 6.66613 7.22922 6.3868C7.24612 6.35416 7.26457 6.32171 7.28458 6.28946C7.41561 6.08261 7.63621 5.97918 7.94639 5.97918C8.26192 5.97918 8.47851 6.0638 8.59617 6.23304C8.71649 6.3996 8.77666 6.58496 8.77666 6.78912C8.77666 6.96642 8.72318 7.12895 8.61622 7.2767C8.55739 7.36266 8.47985 7.44191 8.38358 7.51444L8.09079 7.74412C7.802 7.96978 7.62284 8.16991 7.55332 8.34453C7.5171 8.43409 7.48814 8.56193 7.46643 8.72804C7.427 9.02985 7.67645 9.28341 7.97944 9.28341H8.03031Z" fill="black"/>
<path d="M8.01257 11C8.33267 11 8.59215 10.7393 8.59215 10.4177C8.59215 10.0962 8.33267 9.83546 8.01257 9.83546H7.97647C7.65638 9.83546 7.39689 10.0962 7.39689 10.4177C7.39689 10.7393 7.65638 11 7.97647 11H8.01257Z" fill="black"/>
<path d="M11.575 11.3903C10.6615 12.3801 9.35312 13 7.89998 13C6.47112 13 5.18224 12.4006 4.27104 11.4396C4.18289 11.3466 4.04774 11.3149 3.92586 11.3544C3.63426 11.4489 3.3231 11.5 3 11.5C1.34315 11.5 0 10.1569 0 8.5C0 6.84315 1.34315 5.5 3 5.5C3.11143 5.5 3.22143 5.50607 3.32971 5.51791C3.45684 5.53181 3.58248 5.47342 3.64997 5.3648C4.53208 3.94517 6.10565 3 7.89998 3C9.70416 3 11.2852 3.95558 12.1645 5.38823C12.2354 5.50384 12.3715 5.56279 12.5053 5.54059C12.6663 5.51389 12.8315 5.5 13 5.5C14.6569 5.5 16 6.84315 16 8.5C16 10.1569 14.6569 11.5 13 11.5C12.6267 11.5 12.2692 11.4318 11.9395 11.3072C11.8124 11.2591 11.6672 11.2905 11.575 11.3903ZM11.2498 10.1868C11.3674 10.0071 11.6329 9.97547 11.805 10.1039C12.1384 10.3527 12.552 10.5 13 10.5C14.1046 10.5 15 9.60457 15 8.5C15 7.39543 14.1046 6.5 13 6.5C12.6922 6.5 12.4007 6.56951 12.1403 6.69369C11.9462 6.78625 11.6913 6.70341 11.6108 6.50397C11.0184 5.03595 9.58019 4 7.89998 4C6.24238 4 4.82027 5.00827 4.2135 6.44496C4.13636 6.62762 3.9123 6.70864 3.72762 6.63648C3.50212 6.54836 3.25671 6.5 3 6.5C1.89543 6.5 1 7.39543 1 8.5C1 9.60457 1.89543 10.5 3 10.5C3.40197 10.5 3.77625 10.3814 4.08975 10.1773C4.25573 10.0693 4.49114 10.1032 4.60349 10.2663C5.32481 11.3135 6.53223 12 7.89998 12C9.30203 12 10.5356 11.2787 11.2498 10.1868Z" fill="black"/>
</svg>
