<svg class="icon" width="200px" height="200.00px" viewBox="0 0 1024 1024" version="1.1" xmlns="http://www.w3.org/2000/svg"><path d="M827.733 955.733H199.111V435.2c0-17.067 11.378-28.444 28.445-28.444S256 418.133 256 435.2v463.644h514.844V435.2c0-17.067 11.378-28.444 28.445-28.444s28.444 11.377 28.444 28.444v520.533z" fill="#333333" /><path d="M204.8 543.289l-173.511-153.6c-11.378-11.378-17.067-25.6-19.911-39.822 0-14.223 5.689-31.29 14.222-42.667L244.622 68.267H364.09c17.067 0 34.133 8.533 42.667 19.91C420.978 108.09 460.8 150.757 512 147.912c34.133 0 59.733-11.378 91.022-54.044 11.378-14.223 28.445-25.6 48.356-25.6h122.31L989.868 307.2c19.91 22.756 19.91 59.733-2.845 79.644L822.044 543.29l-39.822-42.667L947.2 344.178 748.089 125.156h-96.711c-39.822 54.044-76.8 76.8-136.534 79.644-76.8 2.844-133.688-54.044-153.6-79.644h-93.866L65.422 344.178l173.511 153.6-34.133 45.51z" fill="#333333" /></svg>