<svg class="icon" width="200px" height="200.00px" viewBox="0 0 1024 1024" version="1.1" xmlns="http://www.w3.org/2000/svg"><path d="M512 832.4c-56.1 0-101.7-45.6-101.7-101.7 0-56 45.6-101.6 101.7-101.6 27.1 0 52.7 10.6 71.9 29.8 19.2 19.2 29.8 44.7 29.8 71.9 0 56-45.6 101.6-101.7 101.6zM512 1024c-161.7 0-293.2-131.5-293.2-293.2 0-89.3 40.1-172.6 110-228.6l9.4-7.5V173.9C338.1 78 416.1 0 512 0s173.9 78 173.9 173.9v320.7l9.4 7.5c69.9 56.1 110 139.4 110 228.7C805.2 892.5 673.7 1024 512 1024zM382.5 519.7c-74.6 45.9-119 124.3-119 211.1 0 137 111.5 248.5 248.5 248.5 66.4 0 128.8-25.9 175.8-72.8s72.8-109.4 72.8-175.8c0-86.8-44.4-165.3-119.1-211V402.4h-89.6c-16.4 0-29.7-13.3-29.7-29.6 0-16.4 13.3-29.7 29.7-29.7h89.6v-99.8h-89.6c-16.4 0-29.7-13.3-29.7-29.6 0-16.4 13.3-29.7 29.7-29.7h89.6v-10.1c0-71.4-58-129.4-129.4-129.4s-129.5 58.1-129.5 129.4v345.8z" fill="#333333"/></svg>