<svg class="icon" width="200px" height="200.00px" viewBox="0 0 1024 1024" version="1.1" xmlns="http://www.w3.org/2000/svg"><path d="M804.408889 426.666667a326.257778 326.257778 0 0 0-174.08-103.537778 499.768889 499.768889 0 0 0-159.288889-11.946667 39.537778 39.537778 0 0 1-18.204444-2.844444 330.808889 330.808889 0 0 0-101.546667-23.893334H307.2l-15.075556 2.56a58.595556 58.595556 0 0 0-9.955555 3.413334 15.075556 15.075556 0 0 0-8.248889 21.333333 93.582222 93.582222 0 0 0 11.662222 16.782222c6.257778 8.248889 13.084444 16.497778 20.195556 25.315556l-23.04 13.084444a496.071111 496.071111 0 0 0-136.817778 110.933334 253.155556 253.155556 0 0 0-56.888889 118.897777 199.111111 199.111111 0 0 0 42.666667 160.426667 312.888889 312.888889 0 0 0 90.168889 77.368889c11.093333 6.826667 19.342222 2.56 19.342222-10.524444a72.533333 72.533333 0 0 1 32.142222-61.724445 367.786667 367.786667 0 0 0 28.444445-23.04 124.871111 124.871111 0 0 0 31.857777-44.657778c2.56-6.257778 5.12-13.084444 0-18.773333s-11.946667-3.128889-18.204444 0a212.48 212.48 0 0 1-101.831111 18.488889 129.706667 129.706667 0 0 1-64.568889-19.342222 50.062222 50.062222 0 0 1-16.497778-73.386667 137.671111 137.671111 0 0 1 63.431111-50.915556 8.248889 8.248889 0 0 1 11.946667 4.266667 9.386667 9.386667 0 0 1-4.551111 12.8c-9.955556 5.688889-19.911111 10.808889-28.444445 17.066667a83.626667 83.626667 0 0 0-28.444444 30.435555 34.986667 34.986667 0 0 0-3.697778 22.186667 172.373333 172.373333 0 0 1 113.777778-32.426667 330.524444 330.524444 0 0 1 97.28 13.084445c15.644444 3.697778 31.288889 5.688889 47.502222 8.817778 0 1.706667 0 3.697778-2.275555 5.688888s-5.688889 11.662222-8.248889 17.92c-7.111111 17.351111 0 28.444444 19.626666 28.444445a85.333333 85.333333 0 0 0 25.315556-5.688889 430.648889 430.648889 0 0 0 85.333333-44.657778 65.137778 65.137778 0 0 1 26.168889-9.955555 423.822222 423.822222 0 0 0 170.666667-66.844445 280.746667 280.746667 0 0 0 96.711111-108.657778v-2.844444l-10.24-13.653333z m-277.902222 150.471111a8.533333 8.533333 0 0 1-12.8 4.835555 77.653333 77.653333 0 0 1-46.933334-50.915555 309.191111 309.191111 0 0 1-15.36-85.333334v-70.826666c0-7.68 3.697778-11.946667 9.386667-11.662222s8.817778 4.835556 8.533333 13.084444 0 24.177778 0 36.124444a351.857778 351.857778 0 0 0 14.222223 112.355556 61.724444 61.724444 0 0 0 36.977777 41.244444 8.533333 8.533333 0 0 1 5.973334 11.662223z m106.382222-131.697778a23.04 23.04 0 0 1-2.275556-46.08h1.991111a23.04 23.04 0 0 1 22.186667 23.893333 23.324444 23.324444 0 0 1-21.902222 22.755556z" fill="#333333" /><path d="M786.204444 857.315556a116.622222 116.622222 0 0 1-113.777777-118.328889v-98.417778a19.626667 19.626667 0 0 1 11.662222-18.204445 18.488889 18.488889 0 0 1 20.764444 4.266667l56.888889 59.164445a19.626667 19.626667 0 0 1 0 28.444444 17.351111 17.351111 0 0 1-13.368889 5.973333 18.204444 18.204444 0 0 1-13.653333-5.973333l-23.608889-26.168889V739.555556a76.231111 76.231111 0 1 0 152.462222 0V281.6A59.448889 59.448889 0 0 1 824.888889 227.555556a56.888889 56.888889 0 1 1 113.777778 0 59.448889 59.448889 0 0 1-38.115556 56.888888v455.111112a116.622222 116.622222 0 0 1-114.346667 117.76z" fill="#333333" /></svg>