<svg class="icon" width="200px" height="200.00px" viewBox="0 0 1024 1024" version="1.1" xmlns="http://www.w3.org/2000/svg"><path d="M935.121778 88.877967c-118.504956-118.503956-311.332884-118.503956-429.837841 0L88.878092 505.283812c-118.503956 118.503956-118.503956 311.332884 0 429.837841s311.332884 118.503956 429.837841 0l416.404845-416.404845c118.504956-118.504956 118.504956-311.333884 0.001-429.838841z m-62.684977 62.684977c83.943969 83.943969 83.943969 220.524918 0 304.467887l-197.008927 197.009927-304.468887-304.468887 197.008927-197.008927c83.943969-83.943969 220.524918-83.943969 304.468887 0z m-668.429752 729.618729c-15.198994 8.613997-33.816987 5.613998-45.596983-6.164998a38.162986 38.162986 0 0 1-6.191997-8.149997c-51.862981-91.486966-51.311981-204.839924 1.429999-295.81489 10.524996-18.158993 33.768987-24.341991 51.918981-13.816995 18.176993 10.550996 24.341991 33.768987 13.816995 51.918981-39.264985 67.738975-39.675985 152.128944-1.063 220.239918 10.351996 18.254993 3.941999 41.437985-14.313995 51.787981z" /></svg>