<svg class="icon" width="200px" height="200.00px" viewBox="0 0 1024 1024" version="1.1" xmlns="http://www.w3.org/2000/svg"><path d="M1012.486144 455.851008c-7.334912-7.334912-19.2256-7.334912-26.560512 0-0.219136 0.219136-0.410624 0.45568-0.618496 0.684032l-0.033792-0.033792L848.724992 593.053696 848.724992 478.8992 1006.221312 321.40288l-0.033792-0.033792c0.227328-0.205824 0.462848-0.398336 0.684032-0.617472 7.334912-7.334912 7.334912-19.2256 0-26.560512s-19.2256-7.334912-26.560512 0c-0.219136 0.219136-0.411648 0.45568-0.617472 0.684032l-0.033792-0.033792L847.817728 426.687488l-5.303296-4.777984C739.397632 329.027584 629.37088 281.9328 515.485696 281.9328c-101.842944 0-187.360256 38.560768-241.166336 70.907904-58.165248 34.967552-92.250112 69.767168-93.672448 71.232512l-4.937728 5.082112L44.342272 297.78944l-0.033792 0.033792c-0.205824-0.227328-0.398336-0.462848-0.617472-0.684032-7.334912-7.334912-19.2256-7.334912-26.560512 0s-7.334912 19.2256 0 26.560512c0.219136 0.219136 0.45568 0.410624 0.684032 0.617472l-0.033792 0.033792 157.55264 157.55264 0 114.15552L38.725632 459.44832l-0.033792 0.033792c-0.205824-0.227328-0.398336-0.462848-0.618496-0.684032-7.334912-7.334912-19.2256-7.334912-26.560512 0-7.334912 7.334912-7.334912 19.2256 0 26.560512 0.219136 0.219136 0.45568 0.410624 0.684032 0.618496l-0.033792 0.033792 163.16928 163.16928 0 0.1024 9.984 5.292032c109.518848 58.057728 221.867008 87.494656 333.9264 87.494656 100.685824 0 182.417408-24.283136 233.253888-44.654592 55.48032-22.233088 87.025664-44.507136 88.341504-45.443072l7.8848-5.61664 0-0.1792L1011.83488 483.06176l-0.033792-0.033792c0.227328-0.205824 0.462848-0.398336 0.684032-0.618496C1019.821056 475.076608 1019.821056 463.184896 1012.486144 455.851008zM811.164672 626.496512c-29.207552 18.113536-137.495552 78.007296-291.917824 78.007296-102.4768 0-205.490176-26.207232-306.351104-77.914112L212.895744 445.130752c11.301888-10.5472 40.103936-35.772416 81.75104-60.685312 49.531904-29.632512 128.054272-64.953344 220.838912-64.953344 102.068224 0 201.508864 41.980928 295.678976 124.795904l0 182.207488L811.164672 626.496512 811.164672 626.496512z" fill="#231815" /></svg>