<svg class="icon" width="200px" height="200.00px" viewBox="0 0 1024 1024" version="1.1" xmlns="http://www.w3.org/2000/svg"><path d="M992.256 812.544c-17.92 0-32.256-14.336-32.256-32.256v-249.344c0-40.96-33.28-74.752-74.752-74.752H64v249.344c0 11.776 9.728 21.504 21.504 21.504H138.24c17.92 0 31.744 14.336 31.744 32.256s-14.336 32.256-31.744 32.256H85.504c-47.104 0-85.504-38.4-85.504-85.504V424.96c0-17.92 14.336-32.256 32.256-32.256H885.76c76.288 0 138.752 61.952 138.752 138.752v249.344c-0.512 17.408-14.848 31.744-32.256 31.744z" fill="#333333" /><path d="M693.248 791.552H342.016c-17.92 0-31.744-14.336-31.744-32.256s14.336-32.256 31.744-32.256h351.744c17.92 0 32.256 14.336 32.256 32.256s-14.848 32.256-32.768 32.256zM111.616 456.704c-5.632 0-11.264-1.536-16.384-4.608-15.36-9.216-19.968-28.672-10.752-44.032l152.576-252.928c5.632-9.728 16.384-15.36 27.648-15.36h340.48c8.192 0 16.384 3.072 22.528 9.216l260.608 252.928c12.8 12.288 12.8 32.768 0.512 45.056-12.288 12.8-32.768 12.8-45.056 0.512l-251.392-244.224H282.112l-143.36 237.568c-5.632 10.752-16.384 15.872-27.136 15.872z" fill="#333333" /><path d="M470.016 456.704c-17.92 0-32.256-14.336-32.256-32.256V172.032c0-17.92 14.336-32.256 32.256-32.256s32.256 14.336 32.256 32.256V424.96c-0.512 17.408-14.848 31.744-32.256 31.744zM241.664 884.224c-68.608 0-124.928-55.808-124.928-124.928s56.32-124.416 124.928-124.416 124.928 55.808 124.928 124.928-56.32 124.416-124.928 124.416z m0-185.344c-33.28 0-60.928 27.136-60.928 60.928s27.136 60.928 60.928 60.928 60.416-27.648 60.416-61.44-27.136-60.416-60.416-60.416zM791.552 884.224c-68.608 0-124.928-55.808-124.928-124.928s55.808-124.928 124.928-124.928c68.608 0 124.928 55.808 124.928 124.928s-56.32 124.928-124.928 124.928z m0-185.344c-33.28 0-60.928 27.136-60.928 60.928s27.136 60.928 60.928 60.928 60.928-27.136 60.928-60.928-27.648-60.928-60.928-60.928z" fill="#333333" /></svg>