<svg class="icon" width="200px" height="200.00px" viewBox="0 0 1024 1024" version="1.1" xmlns="http://www.w3.org/2000/svg"><path d="M316 895.3l-11-41.2h-0.1c8.2-2.3 21.5-9.2 23.9-16.7 1.7-5.4-2.3-14.5-11-24.9-19.4-23.3-28-47.3-25.6-71.3 3.3-32.7 26.1-51.8 28.7-53.9l26.7 33.3 0.2-0.2c-0.1 0.1-8.2 7-11.6 18-4.4 14.1 0.4 29.7 14.5 46.6 19 22.8 25.3 44.7 18.8 65.2-10.4 32.7-49.1 43.9-53.5 45.1z m180.2 0l-11-41.2h-0.1c8.2-2.3 21.5-9.2 23.9-16.7 1.7-5.4-2.3-14.5-11-24.9-19.4-23.3-28-47.3-25.6-71.3 3.3-32.7 26.1-51.8 28.7-53.9l26.7 33.3 0.2-0.2c-0.1 0.1-8.2 7-11.7 18-4.4 14.1 0.4 29.7 14.5 46.6 19 22.8 25.3 44.7 18.8 65.2-10.4 32.7-49.1 43.9-53.4 45.1z m180.1 0l-11-41.2h-0.1c8.2-2.3 21.5-9.2 23.9-16.7 1.7-5.4-2.3-14.5-11-24.9-19.4-23.3-28-47.3-25.6-71.3 3.3-32.7 26.1-51.8 28.7-53.9l26.7 33.3 0.2-0.2c-0.1 0.1-8.2 7-11.6 18-4.4 14.1 0.4 29.7 14.5 46.6 19 22.8 25.3 44.7 18.8 65.2-10.4 32.7-49.1 43.9-53.5 45.1z m207.4-724.6c18.6 0 33.7 15.1 33.7 33.7v359.4c0 18.6-15.1 33.7-33.7 33.7H140.3c-18.6 0-33.7-15.1-33.7-33.7V204.3c0-18.6 15.1-33.7 33.7-33.7h743.4m0-42.6H140.3C98.2 128 64 162.2 64 204.3v359.4c0 42.2 34.2 76.3 76.3 76.3h743.4c42.2 0 76.3-34.2 76.3-76.3V204.3c0-42.1-34.2-76.3-76.3-76.3z" fill="#000000" /><path d="M768 469.3c23.5 0 42.7 19.1 42.7 42.7v85.3H213.3V512c0-23.5 19.1-42.7 42.7-42.7h512m0-42.6H256c-47.1 0-85.3 38.2-85.3 85.3v128h682.7V512c-0.1-47.1-38.3-85.3-85.4-85.3z" fill="#707070" /><path d="M746.7 554.7H277.3c-11.8 0-21.3-9.6-21.3-21.3s9.6-21.3 21.3-21.3h469.3c11.8 0 21.3 9.6 21.3 21.3s-9.5 21.3-21.2 21.3z" fill="#707070" /></svg>