<svg class="icon" width="200px" height="200.00px" viewBox="0 0 1024 1024" version="1.1" xmlns="http://www.w3.org/2000/svg"><path d="M266.563 353.557h493.352v9.838h137.104c-46.689-70.166-165.454-109.43-381.523-107.003v0.046l-2.25-0.023-2.25 0.023v-0.046c-216.07-2.42-334.85 36.837-381.54 107.003h137.107v-9.838z m268.732-183.08v30.148c116.624 1.047 242.666 4.748 332.01 49.856 52.322 26.416 93.969 83.79 101.82 110.323 16.696 56.403-41.507 65.535-51.779 51.748a140.608 140.608 0 0 0-4.561-16.983h-152.87v613.406H349.98c-18.806 1.52-21.707-11.637-21.444-53.036l-46.782-0.14c-9.187-1.971-14.726-7.588-15.191-18.325V395.57H113.708a143.602 143.602 0 0 0-4.577 16.983c-10.272 13.787-68.476 4.655-51.78-51.748 7.868-26.533 49.514-83.907 101.837-110.323 89.314-45.1 215.309-48.808 331.917-49.856l-0.405-30.304c1.242-13.887 12.941-30.754 20.98-40.84l1.566 0.03c19.086 0 34.556-15.47 34.556-34.555S532.332 60.4 513.246 60.4c-19.085 0-34.556 15.47-34.556 34.556 0 28.41-44.099 27.9-44.099 0 0-43.432 35.223-78.647 78.654-78.647s78.654 35.215 78.654 78.647c0.002 35.782-23.91 65.986-56.604 75.52z" /></svg>