<svg class="icon" width="200px" height="200.00px" viewBox="0 0 1024 1024" version="1.1" xmlns="http://www.w3.org/2000/svg"><path d="M384.659282 1016.449869H134.529599c-18.857264 0-34.2104-15.353136-34.210401-34.2104V615.534326c0-18.857264 15.353136-34.2104 34.210401-34.2104h250.093558c18.857264 0 34.2104 15.353136 34.2104 34.2104V982.239469c0.036125 18.857264-15.317011 34.2104-34.174275 34.2104zM134.529599 610.260072c-2.890002 0-5.310379 2.420377-5.310379 5.310379v366.669018c0 2.890002 2.420377 5.310379 5.310379 5.310379h250.093558c2.890002 0 5.310379-2.420377 5.310379-5.310379V615.534326c0-2.890002-2.420377-5.310379-5.310379-5.310379H134.529599zM328.701616 306.123474h-0.541876a14.457236 14.457236 0 0 1-13.908135-14.991886c0.036125-0.939251 3.287377-93.310943-11.126508-155.807239-12.932759-56.174416-49.599661-99.488323-67.192549-98.874197-6.32188 3.468003-18.965639 30.886898-24.059268 65.639173-5.852254 39.845904-7.152755 186.730262-7.18888 188.211388a14.468073 14.468073 0 0 1-14.450011 14.341635h-0.108375a14.493361 14.493361 0 0 1-14.341635-14.558386c0.036125-6.105129 1.336626-150.35236 7.47788-192.149015 1.300501-8.922882 13.79976-87.097439 49.671912-90.240316 40.67678-3.576378 84.496437 61.01517 98.368447 121.163338 15.280886 66.253299 11.993509 159.419742 11.849008 163.35737a14.457236 14.457236 0 0 1-14.45001 13.908135zM236.185423 36.341777z"  /><path d="M357.962887 610.260072H161.225993c-7.983631 0-14.450011-6.46638-14.45001-14.450011V325.161363c0-22.939392 18.676639-41.61603 41.61603-41.61603h142.440979c22.939392 0 41.61603 18.676639 41.616031 41.61603v270.612573c-0.036125 7.983631-6.502505 14.486136-14.486136 14.486136z m-182.286883-28.900021H343.549002V325.161363c0-7.008255-5.707754-12.716009-12.71601-12.716009H188.392013c-7.008255 0-12.716009 5.707754-12.716009 12.716009v256.198688zM807.683342 689.15713h-240.990052c-7.983631 0-14.450011-6.46638-14.450011-14.450011s6.46638-14.450011 14.450011-14.45001h240.990052c7.983631 0 14.450011 6.46638 14.45001 14.45001s-6.46638 14.450011-14.45001 14.450011zM773.328441 578.939674c-2.564877 0-5.165879-0.686376-7.55013-2.131377a14.471686 14.471686 0 0 1-4.768504-19.868764l150.352361-245.252805c-38.220278-48.768786-126.545968-81.028434-224.191915-81.028434s-186.007761 32.259649-224.191914 81.028434l150.35236 245.252805c4.154378 6.791505 2.023001 15.714387-4.768503 19.868764a14.471686 14.471686 0 0 1-19.868765-4.768503l-155.373739-253.453186c-2.926127-4.768503-2.817752-10.837508 0.252876-15.497636 40.568405-61.557045 140.092853-101.330699 253.597685-101.330699s213.029281 39.773654 253.597686 101.330699c3.070627 4.696253 3.179002 10.729133 0.252875 15.497636l-155.373739 253.453186a14.384986 14.384986 0 0 1-12.318634 6.89988z"  /><path d="M667.771114 540.863896c-6.105129 0-11.776759-3.901503-13.763635-10.042757l-31.537148-98.115572c-2.456502-7.586256 1.734001-15.750512 9.320257-18.170888 7.586256-2.456502 15.750512 1.734001 18.170888 9.320256l31.537148 98.115572c2.456502 7.586256-1.734001 15.750512-9.320257 18.170889-1.445001 0.469625-2.962252 0.722501-4.407253 0.7225zM712.855147 544.476399a14.442786 14.442786 0 0 1-13.72751-18.857264l31.537148-98.115572a14.442786 14.442786 0 0 1 27.491145 8.850632l-31.537148 98.115571a14.540323 14.540323 0 0 1-13.763635 10.006633z" fill="#DF2B34" /><path d="M789.042828 1016.088619h-203.672899c-21.638891 0-41.941156-8.922882-55.704791-24.456643-12.535384-14.16101-18.243138-32.006773-16.039512-50.286037l37.497778-309.338601c7.766881-64.013547 66.253299-112.276582 136.082974-112.276582s128.316094 48.263035 136.082975 112.276582l37.497777 309.338601c2.203627 18.279263-3.468003 36.125026-16.003386 50.286037-13.79976 15.569886-34.102025 24.456643-55.740916 24.456643z m-101.83645-467.421717c-55.235165 0-101.402949 37.317152-107.399703 86.844563l-37.497778 309.338602c-1.192126 9.934382 1.986876 19.760389 8.959007 27.635645 8.272631 9.356382 20.69964 14.702886 34.102025 14.702886h203.672899c13.36626 0 25.793269-5.346504 34.102025-14.702886 6.97213-7.875256 10.151132-17.701263 8.959006-27.635645l-37.497777-309.338602c-6.032879-49.491286-52.200663-86.844564-107.399704-86.844563z"  /></svg>