<svg class="icon" width="200px" height="200.00px" viewBox="0 0 1024 1024" version="1.1" xmlns="http://www.w3.org/2000/svg"><path d="M232.014991 755.84997a192.389992 192.389992 0 0 0-27.074999-0.866999h-18.136999v52.848997h20.565999a95.457996 95.457996 0 0 0 29.765999-2.949999 23.777999 23.777999 0 0 0 11.714999-8.679 24.818999 24.818999 0 0 0 4.34-14.492 23.863999 23.863999 0 0 0-5.989-16.747999 26.033999 26.033999 0 0 0-15.185999-9.112zM831.227968 452.121982a327.853987 327.853987 0 0 0-66.125998-166.442993l120.102995-120.189995-61.265997-61.352998-120.189995 120.189995a328.286987 328.286987 0 0 0-165.661994-66.126997V0h-86.779997v160.541994a325.943987 325.943987 0 0 0-148.219994 63.782997l-120.362995-120.189995-61.179998 61.179998L241.646991 285.679989a327.853987 327.853987 0 0 0-63.782998 148.219994H17.409999v86.778997H175.519993a331.497987 331.497987 0 0 0 15.447 70.985997A216.949992 216.949992 0 0 0 217.001992 1023.99996h511.99998a295.049988 295.049988 0 0 0 102.225996-571.877978zM285.730989 809.306968a50.592998 50.592998 0 0 1-15.88 18.31 53.021998 53.021998 0 0 1-19.525999 8.678999 209.659992 209.659992 0 0 1-38.963998 2.69h-24.557999v70.290997H149.139994V723.134972h60.745998a216.254992 216.254992 0 0 1 44.777998 2.777 48.682998 48.682998 0 0 1 26.814999 18.223999 57.794998 57.794998 0 0 1 10.761 36.272999 61.873998 61.873998 0 0 1-6.509 28.897998z m216.949991 100.143996h-34.711998V762.79297l-37.054999 146.657994h-36.794998l-36.880999-146.657994v146.657994h-34.711999V723.134972h56.319998L412.429984 850.439967l33.409999-127.045995h56.493997z m149.780995-32.975998v33.149998H527.239979a85.651997 85.651997 0 0 1 12.15-35.666998 239.945991 239.945991 0 0 1 40.177998-44.691998 257.38799 257.38799 0 0 0 29.679999-30.892999 39.657998 39.657998 0 0 0 6.941-21.607999 24.644999 24.644999 0 0 0-6.421-18.398 27.161999 27.161999 0 0 0-35.492998 0 34.711999 34.711999 0 0 0-7.29 22.649999l-35.579999-3.557999a58.055998 58.055998 0 0 1 19.959999-42.261999 66.819997 66.819997 0 0 1 41.914999-12.842999 60.745998 60.745998 0 0 1 43.389998 14.839999 48.769998 48.769998 0 0 1 15.793 36.966999 66.039997 66.039997 0 0 1-4.512 24.211999 99.969996 99.969996 0 0 1-14.406 23.603999 225.626991 225.626991 0 0 1-23.429999 23.777999c-11.281 10.326-18.396999 17.355999-21.434999 20.565999a68.902997 68.902997 0 0 0-7.202 10.154z m67.861997 32.975998h-36.099999v-35.752998h36.099999z m8.678-475.552981A295.049988 295.049988 0 0 0 502.33398 540.029979a173.124993 173.124993 0 0 0-225.627991 32.454999 240.379991 240.379991 0 0 1-16.313999-86.518997 242.982991 242.982991 0 0 1 480.151981-52.067998h-11.541999zM861.427966 887.929965a59.183998 59.183998 0 0 1-50.505998 24.732999 62.914998 62.914998 0 0 1-42.087998-13.884999 57.534998 57.534998 0 0 1-19.438999-37.228999l35.579998-3.731a31.153999 31.153999 0 0 0 8.678 19.178 24.644999 24.644999 0 0 0 17.355999 7.029999 23.950999 23.950999 0 0 0 18.918-9.111999 41.393998 41.393998 0 0 0 7.722999-27.335999 37.661999 37.661999 0 0 0-7.635999-26.033999 26.033999 26.033999 0 0 0-20.047-8.678 36.359999 36.359999 0 0 0-27.595999 13.624l-28.983998-4.252 19.004999-96.584996h94.068996v33.409998H799.119969l-5.554 31.673999a54.497998 54.497998 0 0 1 64.649997 11.282 62.307998 62.307998 0 0 1 16.576 44.864998 67.427997 67.427997 0 0 1-13.364 41.045998z" /></svg>