<svg class="icon" width="200px" height="80.85px" viewBox="0 0 2533 1024" version="1.1" xmlns="http://www.w3.org/2000/svg"><path d="M1263.28067659 381.75184212c54.92934692 0 108.57229195 20.57438502 160.37407455 60.62167357l3.77880425 2.97480353-41.96081037 52.90326411c-41.66333079-33.03639982-82.19301989-48.96365948-122.19206843-48.96365949-39.05032723 0-79.60413634 15.17953853-122.07950806 46.58381632l-3.75468484 2.81400372-40.85932946-53.77158523c54.89718672-41.72765059 110.61445396-63.16231652 166.69352236-63.16231652zM674.81628261 399.43986343a48.24005836 48.24005836 0 1 1 0 96.48011732H562.25614604a48.24005836 48.24005836 0 1 1 0-96.48011732h112.56013657z m1302.48157987 0a48.24005836 48.24005836 0 0 1 0 96.48011732h-112.56013657a48.24005836 48.24005836 0 0 1 0-96.48011732h112.56013657z" fill="#473D3B" /><path d="M875.81652627 769.28031224c142.09109233 0 257.28031224-134.20384289 257.28031224-269.53328725C1133.09683851 364.42562081 1067.59487922 254.71968776 875.81652627 254.71968776S618.53621463 364.42562081 618.53621463 499.74702499C618.53621463 635.07646935 733.72543396 769.28031224 875.81652627 769.28031224z" fill="#616161" /><path d="M1091.73098849 352.48620634c11.2640539 124.78095139-16.85990058 218.07722482-84.38794267 279.89685988C939.82304392 694.18662087 835.67275774 712.91984348 694.91630727 688.55861401c107.20548988 117.70574287 234.9290852 117.70574287 383.14666474 0 88.76170786-113.46865748 93.31235322-225.49815351 13.67605668-336.07240767z" fill="#525252" /><path d="M875.81652627 209.69563349C675.33084336 209.69563349 573.51215976 321.59648932 573.51215976 499.74702499 573.51215976 663.84362418 712.32292819 814.30436651 875.81652627 814.30436651s302.30436651-150.46074233 302.30436711-314.55734152C1178.12089338 321.59648932 1076.30220978 209.69563349 875.81652627 209.69563349zM875.81652627 254.71968776c191.77835235 0 257.28031224 109.70593305 257.28031224 245.02733723C1133.09683851 635.07646935 1017.90761919 769.28031224 875.81652627 769.28031224c-142.09109233 0-257.28031224-134.20384289-257.28031164-269.53328725C618.53621463 364.42562081 684.03817393 254.71968776 875.81652627 254.71968776z" fill="#473D3B" /><path d="M699.98180519 484.81270712a118.29266361 123.32570954 60 1 0 213.60639485-123.32570954 118.29266361 123.32570954 60 1 0-213.60639485 123.32570953Z" fill="#777777" /><path d="M1663.73748227 769.28031224c142.09109233 0 257.28031224-134.20384289 257.28031224-269.53328725C1921.01779451 364.42562081 1855.5158352 254.71968776 1663.73748227 254.71968776s-257.28031224 109.70593305-257.28031226 245.02733723C1406.45717001 635.07646935 1521.64638993 769.28031224 1663.73748227 769.28031224z" fill="#616161" /><path d="M1885.6176313 352.48620634c11.25601372 124.78095139-16.86794018 218.07722482-84.38794207 279.89685988-67.5280421 61.81159485-171.67028808 80.54481745-312.44281894 56.17554779 107.21353009 117.70574287 234.9290852 117.70574287 383.15470433 0 88.75366766-113.46865748 93.31235322-225.49815351 13.66801707-336.07240767z" fill="#525252" /><path d="M1663.73748227 209.69563349c-200.48568292 0-302.30436651 111.90085583-302.30436654 290.0513915 0 164.09659921 138.81076844 314.55734153 302.30436654 314.55734153s302.30436651-150.46074233 302.3043665-314.55734153C1966.04184877 321.59648932 1864.22316576 209.69563349 1663.73748227 209.69563349z m0 45.02405427c191.77835235 0 257.28031224 109.70593305 257.28031224 245.02733723C1921.01779451 635.07646935 1805.82857458 769.28031224 1663.73748227 769.28031224c-142.09109233 0-257.28031224-134.20384289-257.28031226-269.53328725C1406.45717001 364.42562081 1471.95912991 254.71968776 1663.73748227 254.71968776z" fill="#473D3B" /><path d="M1480.69087227 495.10391973a118.29266361 123.32570954 60 1 0 213.60639485-123.32570953 118.29266361 123.32570954 60 1 0-213.60639485 123.32570953Z" fill="#777777" /></svg>