<svg class="icon" width="200px" height="200.00px" viewBox="0 0 1024 1024" version="1.1" xmlns="http://www.w3.org/2000/svg"><path d="M717.751296 305.98144c-55.020544-55.020544-128.17408-85.321728-205.984768-85.321728s-150.964224 30.30016-205.984768 85.321728-85.321728 128.17408-85.321728 205.984768 30.30016 150.964224 85.321728 205.984768 128.17408 85.321728 205.984768 85.321728 150.964224-30.301184 205.984768-85.321728 85.321728-128.17408 85.321728-205.984768S772.77184 361.001984 717.751296 305.98144zM694.445056 694.643712c-48.794624 48.795648-113.672192 75.66848-182.678528 75.66848-69.00736 0-133.88288-26.872832-182.679552-75.66848-48.794624-48.794624-75.667456-113.672192-75.667456-182.678528 0-69.00736 26.872832-133.88288 75.667456-182.679552 48.794624-48.794624 113.672192-75.667456 182.679552-75.667456s133.88288 26.872832 182.678528 75.667456c48.795648 48.794624 75.66848 113.672192 75.66848 182.679552S743.240704 645.849088 694.445056 694.643712z" fill="#231815" /><path d="M527.762432 119.835648c0.003072-0.134144 0.02048-0.264192 0.02048-0.39936 0-9.101312-7.37792-16.480256-16.480256-16.480256-9.101312 0-16.480256 7.37792-16.480256 16.480256 0 0.02048 0.003072 0.04096 0.003072 0.06144l-0.023552 0 0 52.37248 32.959488 0L527.761408 119.835648z" fill="#231815" /><path d="M527.762432 852.18304l-32.959488 0 0 52.37248 0.023552 0c0 0.02048-0.003072 0.04096-0.003072 0.06144 0 9.101312 7.37792 16.480256 16.480256 16.480256 9.101312 0 16.480256-7.37792 16.480256-16.480256 0-0.135168-0.017408-0.265216-0.02048-0.39936L527.763456 852.18304z" fill="#231815" /><path d="M904.85248 495.555584c-0.02048 0-0.04096 0.003072-0.06144 0.003072l0-0.023552L852.41856 495.535104l0 32.959488 52.032512 0c0.135168 0.003072 0.265216 0.02048 0.400384 0.02048 9.101312 0 16.480256-7.37792 16.480256-16.480256C921.331712 502.934528 913.953792 495.555584 904.85248 495.555584z" fill="#231815" /><path d="M119.732224 495.55968c-0.02048 0-0.04096-0.003072-0.06144-0.003072-9.101312 0-16.480256 7.37792-16.480256 16.480256 0 9.101312 7.37792 16.480256 16.480256 16.480256 0.136192 0 0.26624-0.017408 0.400384-0.02048l52.032512 0 0-32.959488-52.37248 0L119.7312 495.55968z" fill="#231815" /><path d="M781.12768 217.929728c-0.014336 0.014336-0.026624 0.03072-0.04096 0.045056l-0.016384-0.016384-37.031936 37.031936 23.30624 23.30624 36.79232-36.79232c0.09728-0.093184 0.201728-0.173056 0.297984-0.268288 6.43584-6.43584 6.43584-16.8704 0-23.30624C797.999104 211.493888 787.56352 211.494912 781.12768 217.929728z" fill="#231815" /><path d="M225.949696 773.078016l0.016384 0.016384c-0.014336 0.014336-0.03072 0.026624-0.045056 0.04096-6.43584 6.43584-6.43584 16.8704 0 23.30624 6.43584 6.43584 16.8704 6.43584 23.30624 0 0.096256-0.096256 0.176128-0.19968 0.268288-0.297984l36.79232-36.79232-23.30624-23.30624L225.949696 773.078016z" fill="#231815" /><path d="M221.370368 245.382144l36.79232 36.79232 23.30624-23.30624-37.031936-37.031936-0.016384 0.016384c-0.014336-0.014336-0.026624-0.03072-0.04096-0.045056-6.43584-6.43584-16.8704-6.43584-23.30624 0-6.43584 6.43584-6.43584 16.8704 0 23.30624C221.16864 245.209088 221.274112 245.289984 221.370368 245.382144z" fill="#231815" /><path d="M799.541248 776.972288l0.016384-0.016384-37.031936-37.031936-23.30624 23.30624 36.79232 36.79232c0.093184 0.09728 0.173056 0.201728 0.268288 0.297984 6.43584 6.43584 16.8704 6.43584 23.30624 0 6.43584-6.43584 6.43584-16.8704 0-23.30624C799.571968 776.998912 799.555584 776.986624 799.541248 776.972288z" fill="#231815" /></svg>