<svg class="icon" width="200px" height="200.00px" viewBox="0 0 1024 1024" version="1.1" xmlns="http://www.w3.org/2000/svg"><path d="M987.022 950.044H827.733V836.836c0-10.24-3.982-19.343-10.809-26.17s-15.928-10.808-26.168-10.808c-20.196 0-36.694 16.498-36.694 36.978v113.493h-58.88c11.947-182.613-25.6-434.062-120.889-572.871 16.783-10.24 28.16-27.307 30.72-47.787l294.116 34.133c-27.022-96.71-110.08-172.657-215.893-184.888a252.245 252.245 0 0 0-101.547 9.386l174.08-169.244A224.2 224.2 0 0 0 509.44 63.43c-17.92 17.351-32.142 37.262-42.951 58.311-17.067-24.462-39.822-45.795-67.982-61.155-72.534-39.538-159.29-28.73-219.876 20.48l160.142 87.324c-11.093-0.569-22.186-0.569-33.564 0.285-93.298 8.533-168.391 73.386-194.276 158.15l215.325-19.057c-24.178 17.92-46.08 40.107-63.431 67.129a255.46 255.46 0 0 0 6.826 284.729l147.343-231.254c11.946 12.8 28.728 20.765 47.786 20.765 29.298 0 53.476-19.627 62.01-46.08 78.506 160.142 62.861 437.475 42.097 547.27h-7.111c2.844-7.395 4.835-15.075 4.835-23.608 0-36.693-29.582-66.276-66.275-66.276s-66.276 29.583-66.276 66.276c0 8.249 1.991 16.213 4.836 23.609h-80.214v-71.396c0-10.24-4.266-19.342-10.808-26.169-6.827-6.826-15.93-10.808-26.17-10.808-20.48 0-36.693 16.497-36.693 36.977v71.396h-55.182V837.12c0-10.24-3.982-19.342-10.809-26.169s-15.929-10.809-26.169-10.809c-20.48 0-36.977 16.498-36.977 36.978v113.493H36.978c-10.24 0-19.342 4.267-26.17 10.81C4.268 967.68 0 977.066 0 987.022 0 1007.502 16.498 1024 36.693 1024h950.33c10.24 0 19.341-4.267 26.168-10.809 6.542-6.827 10.809-15.929 10.809-26.169 0-20.48-16.498-36.978-36.978-36.978z" /></svg>