<svg class="icon" width="200px" height="200.00px" viewBox="0 0 1024 1024" version="1.1" xmlns="http://www.w3.org/2000/svg"><path d="M512 774.257778a262.257778 262.257778 0 1 1 185.457778-76.8 260.835556 260.835556 0 0 1-185.457778 76.8z m0-480.142222a218.453333 218.453333 0 1 0 153.884444 64A215.893333 215.893333 0 0 0 512 294.115556zM268.515556 295.253333a26.737778 26.737778 0 0 1-19.342223-7.68L213.617778 252.017778a28.444444 28.444444 0 0 1 38.4-38.4l35.555555 35.555555a28.444444 28.444444 0 0 1 0 38.4 26.737778 26.737778 0 0 1-19.057777 7.68zM232.675556 818.062222a28.444444 28.444444 0 0 1-19.057778-46.08l35.555555-35.555555a28.444444 28.444444 0 0 1 38.4 0 28.444444 28.444444 0 0 1 0 38.4l-35.555555 35.555555a26.737778 26.737778 0 0 1-19.342222 7.68zM117.191111 540.444444a27.022222 27.022222 0 0 1 0-54.044444h50.346667a27.022222 27.022222 0 1 1 0 54.044444zM512 933.831111a28.444444 28.444444 0 0 1-27.022222-27.022222v-50.346667a27.022222 27.022222 0 0 1 54.044444 0v50.346667a28.444444 28.444444 0 0 1-27.022222 27.022222zM512 194.56a28.444444 28.444444 0 0 1-27.022222-28.444444V117.191111a27.022222 27.022222 0 1 1 54.044444 0v50.346667a28.444444 28.444444 0 0 1-27.022222 27.022222zM856.462222 540.444444a27.022222 27.022222 0 0 1 0-54.044444h50.346667a27.022222 27.022222 0 0 1 0 54.044444zM791.324444 818.062222a26.737778 26.737778 0 0 1-19.342222-7.68l-35.555555-35.555555a28.444444 28.444444 0 0 1 0-38.4 28.444444 28.444444 0 0 1 38.4 0l35.555555 35.555555a27.022222 27.022222 0 0 1-19.057778 46.08zM755.484444 295.253333a26.737778 26.737778 0 0 1-19.057777-7.68 28.444444 28.444444 0 0 1 0-38.4l35.555555-35.555555a28.444444 28.444444 0 0 1 38.4 38.4l-35.555555 35.555555a26.737778 26.737778 0 0 1-19.342223 7.68z" fill="#333333" /><path d="M455.111111 544.995556a40.675556 40.675556 0 0 1-6.826667 26.168888 26.168889 26.168889 0 0 1-21.048888 8.248889 25.031111 25.031111 0 0 1-21.333334-8.533333 40.96 40.96 0 0 1-6.542222-25.884444V440.888889h-41.813333v106.666667a60.017778 60.017778 0 0 0 18.204444 47.502222 74.808889 74.808889 0 0 0 51.768889 16.213333 72.817778 72.817778 0 0 0 52.053333-16.497778 61.155556 61.155556 0 0 0 17.635556-47.502222V440.888889H455.111111zM640 440.888889l-36.408889 113.208889-36.408889-113.208889h-43.235555l57.173333 166.968889h43.804444l57.457778-166.968889H640z" fill="#333333" /></svg>