<svg class="icon" width="200px" height="192.48px" viewBox="0 0 1064 1024" version="1.1" xmlns="http://www.w3.org/2000/svg"><path d="M1057.546 519.619c-11.591-23.06-20.234-37.684-39.567-39.977-20.03-2.458-66.355-5.612-115.303-8.029-55.173-71.434-113.95-135.987-129.843-135.987h-481.32c-15.852 0-74.507 64.553-129.598 135.987-48.824 2.417-95.027 5.571-115.016 8.029-19.333 2.334-27.935 16.916-39.485 39.977-11.551 23.101-9.093 29.737 15.81 40.017 24.863 10.281 47.35 16.016 47.35 16.016s-29.327 56.033-42.434 80.077c-7.906 14.581-8.807 14.704-8.93 42.107-0.205 43.171-0.491 255.18 0.246 285.777 0.614 27.69 6.963 39.732 32.358 40.018 32.031 0.369 122.717 0 140.575 0 23.02 0 31.54-15.155 31.54-31.99v-60.62h611.655v60.62c0 16.794 8.52 31.95 31.621 31.95 17.94 0 109.855 0.409 141.927 0 25.436-0.246 31.006-12.289 31.62-39.978 0.697-30.597 0-222.29 0-255.836 0-44.769 0.328-58.45-7.905-72.048-14.172-23.389-38.543-80.077-38.543-80.077s22.528-5.735 47.473-15.975c24.903-10.321 27.36-16.957 15.81-40.058zM291.512 767.754s-136.233-4.67-173.588-7.987c-47.719-4.219-32.236-69.591-31.54-88.023 0-1.393 119.153 9.871 157.779 15.974 39.69 6.308 47.431 24.863 47.35 32.031-0.083 7.168 0 38.79 0 48.005z m240.436-190.382c-111.821-0.04-291.718-0.123-335.545 0-14.663 0.082 9.708-56.156 47.022-103.383 55.173-69.837 70-64.553 79.258-64.594 14.172-0.123 67.174-0.164 126.607-0.164v0.123l82.658-0.082 82.493 0.082v-0.164c59.679 0 113.05 0 127.263 0.164 9.216 0.041 24.289-2.785 79.38 64.594 44.237 54.067 61.809 103.465 47.104 103.424-43.909-0.164-224.174-0.123-336.24-0.04zM946.79 759.767c-37.396 3.277-173.916 7.987-173.916 7.987 0-9.216 0.082-40.837 0-48.005-0.123-7.168 7.7-25.723 47.432-31.99 38.748-6.144 158.106-17.408 158.146-16.015 0.615 18.432 16.18 83.804-31.62 88.023zM362.537 261.038c25.64 0 46.449-18.432 46.449-41.206a37.888 37.888 0 0 0-8.397-23.552h1.802l-39.813-47.145-39.854 47.145h1.802a37.929 37.929 0 0 0-8.397 23.552c0 22.733 20.808 41.206 46.408 41.206z m120.668-41.206c0 22.733 20.767 41.206 46.408 41.206s46.448-18.432 46.448-41.206a37.888 37.888 0 0 0-8.396-23.552h1.802l-39.813-47.145L489.8 196.28h1.802a37.929 37.929 0 0 0-8.397 23.552z m156.877-23.552a37.929 37.929 0 0 0-8.356 23.552c0 22.733 20.767 41.206 46.408 41.206s46.407-18.432 46.407-41.206a37.847 37.847 0 0 0-8.396-23.552h1.802l-39.813-47.145-39.813 47.145h1.802z m-203.285-84.172c25.641 0 46.45-18.432 46.45-41.206a37.888 37.888 0 0 0-8.398-23.552h1.762L436.838 0.246 396.984 47.35h1.803a37.929 37.929 0 0 0-8.397 23.552c0 22.774 20.766 41.206 46.407 41.206z m167.117 0c25.6 0 46.408-18.432 46.408-41.206a37.847 37.847 0 0 0-8.397-23.552h1.761L603.873 0.246 564.06 47.35h1.802a37.929 37.929 0 0 0-8.396 23.552c0 22.774 20.766 41.206 46.407 41.206z" fill="#333333"/></svg>